Narnoor-Regular.ufo
<glyph name="exclam" format="2">
  <advance width="694"/>
  <unicode hex="0021"/>
  <outline>
    <contour>
      <point x="504" y="1131" type="line"/>
      <point x="430" y="402" type="line"/>
      <point x="351" y="402" type="line"/>
      <point x="274" y="1124" type="line"/>
      <point x="271" y="1167" type="line"/>
      <point x="271" y="1210.33"/>
      <point x="283.333" y="1243.33"/>
      <point x="308" y="1266" type="curve" smooth="yes"/>
      <point x="332.667" y="1290"/>
      <point x="359.667" y="1302"/>
      <point x="389" y="1302" type="curve" smooth="yes"/>
      <point x="424.333" y="1302"/>
      <point x="451" y="1290.17"/>
      <point x="469" y="1266.5" type="curve" smooth="yes"/>
      <point x="487" y="1242.83"/>
      <point x="499.667" y="1212.33"/>
      <point x="507" y="1175" type="curve"/>
    </contour>
    <contour>
      <point x="384" y="-3" type="line"/>
      <point x="249" y="125" type="line"/>
      <point x="394" y="271" type="line"/>
      <point x="532" y="125" type="line"/>
    </contour>
  </outline>
</glyph>
<glyph name="quotedbl" format="2">
  <advance width="1024"/>
  <unicode hex="0022"/>
  <outline>
    <contour>
      <point x="364" y="1277" type="line"/>
      <point x="291" y="1280" type="line"/>
      <point x="284" y="1345"/>
      <point x="276" y="1403"/>
      <point x="268" y="1452" type="curve" smooth="yes"/>
      <point x="261" y="1502"/>
      <point x="253" y="1545"/>
      <point x="244" y="1581" type="curve" smooth="yes"/>
      <point x="228" y="1652"/>
      <point x="223" y="1694"/>
      <point x="230" y="1707" type="curve"/>
      <point x="437" y="1666" type="line"/>
    </contour>
    <contour>
      <point x="709" y="1277" type="line"/>
      <point x="632" y="1280" type="line"/>
      <point x="625" y="1345"/>
      <point x="617" y="1403"/>
      <point x="610" y="1452" type="curve" smooth="yes"/>
      <point x="603" y="1502"/>
      <point x="595" y="1545"/>
      <point x="588" y="1581" type="curve" smooth="yes"/>
      <point x="573" y="1651"/>
      <point x="569" y="1693"/>
      <point x="574" y="1707" type="curve"/>
      <point x="779" y="1666" type="line"/>
    </contour>
  </outline>
</glyph>
<glyph name="numbersign" format="2">
  <advance width="1167"/>
  <unicode hex="0023"/>
  <outline>
    <contour>
      <point x="310" y="389" type="line"/>
      <point x="161" y="389" type="line"/>
      <point x="161" y="520" type="line"/>
      <point x="335" y="520" type="line"/>
      <point x="386" y="784" type="line"/>
      <point x="161" y="784" type="line"/>
      <point x="161" y="906" type="line"/>
      <point x="412" y="906" type="line"/>
      <point x="499" y="1334" type="line"/>
      <point x="625" y="1334" type="line"/>
      <point x="542" y="906" type="line"/>
      <point x="801" y="906" type="line"/>
      <point x="891" y="1334" type="line"/>
      <point x="1014" y="1334" type="line"/>
      <point x="929" y="906" type="line"/>
      <point x="1075" y="906" type="line"/>
      <point x="1075" y="784" type="line"/>
      <point x="901" y="784" type="line"/>
      <point x="850" y="520" type="line"/>
      <point x="1075" y="520" type="line"/>
      <point x="1075" y="389" type="line"/>
      <point x="824" y="389" type="line"/>
      <point x="740" y="-13" type="line"/>
      <point x="611" y="-13" type="line"/>
      <point x="696" y="389" type="line"/>
      <point x="437" y="389" type="line"/>
      <point x="354" y="-13" type="line"/>
      <point x="220" y="-13" type="line"/>
    </contour>
    <contour>
      <point x="464" y="520" type="line"/>
      <point x="716" y="520" type="line"/>
      <point x="772" y="784" type="line"/>
      <point x="517" y="784" type="line"/>
    </contour>
  </outline>
</glyph>
<glyph name="dollar" format="2">
  <advance width="989"/>
  <unicode hex="0024"/>
  <outline>
    <contour>
      <point x="241" y="364" type="line"/>
      <point x="251" y="285.333"/>
      <point x="272.667" y="225"/>
      <point x="306" y="183" type="curve" smooth="yes"/>
      <point x="339.333" y="141"/>
      <point x="391" y="115"/>
      <point x="461" y="105" type="curve"/>
      <point x="461" y="574" type="line"/>
      <point x="413.667" y="608"/>
      <point x="371.5" y="638"/>
      <point x="334.5" y="664" type="curve" smooth="yes"/>
      <point x="297.5" y="690"/>
      <point x="266.167" y="717"/>
      <point x="240.5" y="745" type="curve" smooth="yes"/>
      <point x="214.833" y="773"/>
      <point x="195.167" y="804.167"/>
      <point x="181.5" y="838.5" type="curve" smooth="yes"/>
      <point x="167.833" y="872.833"/>
      <point x="161" y="915.667"/>
      <point x="161" y="967" type="curve" smooth="yes"/>
      <point x="161" y="1046.33"/>
      <point x="186.667" y="1114.67"/>
      <point x="238" y="1172" type="curve" smooth="yes"/>
      <point x="288.667" y="1228.67"/>
      <point x="363" y="1264.67"/>
      <point x="461" y="1280" type="curve"/>
      <point x="461" y="1362" type="line"/>
      <point x="566" y="1362" type="line"/>
      <point x="566" y="1277" type="line"/>
      <point x="596" y="1277"/>
      <point x="623.5" y="1275.33"/>
      <point x="648.5" y="1272" type="curve" smooth="yes"/>
      <point x="673.5" y="1268.67"/>
      <point x="696.667" y="1263"/>
      <point x="718" y="1255" type="curve" smooth="yes"/>
      <point x="739.333" y="1247.67"/>
      <point x="759.333" y="1239.33"/>
      <point x="778" y="1230" type="curve" smooth="yes"/>
      <point x="796.667" y="1220.67"/>
      <point x="819.667" y="1208"/>
      <point x="847" y="1192" type="curve"/>
      <point x="847" y="891" type="line"/>
      <point x="760" y="891" type="line"/>
      <point x="757.333" y="979"/>
      <point x="739.667" y="1043.67"/>
      <point x="707" y="1085" type="curve" smooth="yes"/>
      <point x="675.667" y="1126.33"/>
      <point x="628.667" y="1153"/>
      <point x="566" y="1165" type="curve"/>
      <point x="566" y="760" type="line"/>
      <point x="591.333" y="738.667"/>
      <point x="615.5" y="719.333"/>
      <point x="638.5" y="702" type="curve" smooth="yes"/>
      <point x="661.5" y="684.667"/>
      <point x="683.167" y="668.5"/>
      <point x="703.5" y="653.5" type="curve" smooth="yes"/>
      <point x="723.833" y="638.5"/>
      <point x="742.833" y="624.333"/>
      <point x="760.5" y="611" type="curve" smooth="yes"/>
      <point x="778.167" y="597.667"/>
      <point x="794" y="584"/>
      <point x="808" y="570" type="curve" smooth="yes"/>
      <point x="837.333" y="542.667"/>
      <point x="860" y="511.667"/>
      <point x="876" y="477" type="curve" smooth="yes"/>
      <point x="892.667" y="443"/>
      <point x="901" y="395.667"/>
      <point x="901" y="335" type="curve" smooth="yes"/>
      <point x="902.333" y="291"/>
      <point x="894" y="249.333"/>
      <point x="876" y="210" type="curve" smooth="yes"/>
      <point x="858" y="170.667"/>
      <point x="833.5" y="135.833"/>
      <point x="802.5" y="105.5" type="curve" smooth="yes"/>
      <point x="771.5" y="75.1667"/>
      <point x="735.5" y="50.6667"/>
      <point x="694.5" y="32" type="curve" smooth="yes"/>
      <point x="653.5" y="13.3333"/>
      <point x="610.667" y="3.33333"/>
      <point x="566" y="2" type="curve"/>
      <point x="566" y="-103" type="line"/>
      <point x="461" y="-103" type="line"/>
      <point x="461" y="0" type="line"/>
      <point x="435.667" y="0.666667"/>
      <point x="410.833" y="2.33333"/>
      <point x="386.5" y="5" type="curve" smooth="yes"/>
      <point x="362.167" y="7.66667"/>
      <point x="338.667" y="11.3333"/>
      <point x="316" y="16" type="curve" smooth="yes"/>
      <point x="293.333" y="21.3333"/>
      <point x="269.333" y="28.3333"/>
      <point x="244" y="37" type="curve" smooth="yes"/>
      <point x="218.667" y="45.6667"/>
      <point x="191" y="56.3333"/>
      <point x="161" y="69" type="curve"/>
      <point x="161" y="364" type="line"/>
    </contour>
    <contour>
      <point x="686" y="386" type="curve" smooth="yes"/>
      <point x="676" y="398.667"/>
      <point x="661" y="414.833"/>
      <point x="641" y="434.5" type="curve" smooth="yes"/>
      <point x="621" y="454.167"/>
      <point x="596" y="475.667"/>
      <point x="566" y="499" type="curve"/>
      <point x="566" y="105" type="line"/>
      <point x="596" y="110.333"/>
      <point x="622.5" y="123"/>
      <point x="645.5" y="143" type="curve" smooth="yes"/>
      <point x="668.5" y="163"/>
      <point x="685.833" y="186.5"/>
      <point x="697.5" y="213.5" type="curve" smooth="yes"/>
      <point x="709.167" y="240.5"/>
      <point x="714.5" y="269.333"/>
      <point x="713.5" y="300" type="curve" smooth="yes"/>
      <point x="712.5" y="330.667"/>
      <point x="703.333" y="359.333"/>
    </contour>
    <contour>
      <point x="342" y="1024" type="curve" smooth="yes"/>
      <point x="342" y="1006"/>
      <point x="344" y="989"/>
      <point x="348" y="973" type="curve" smooth="yes"/>
      <point x="352" y="957"/>
      <point x="358.667" y="941.5"/>
      <point x="368" y="926.5" type="curve" smooth="yes"/>
      <point x="377.333" y="911.5"/>
      <point x="389.667" y="896.5"/>
      <point x="405" y="881.5" type="curve" smooth="yes"/>
      <point x="420.333" y="866.5"/>
      <point x="439" y="851"/>
      <point x="461" y="835" type="curve"/>
      <point x="461" y="1165" type="line"/>
      <point x="421" y="1156.33"/>
      <point x="391.167" y="1139.67"/>
      <point x="371.5" y="1115" type="curve" smooth="yes"/>
      <point x="351.833" y="1090.33"/>
      <point x="342" y="1060"/>
    </contour>
  </outline>
</glyph>
<glyph name="percent" format="2">
  <advance width="695"/>
  <unicode hex="0025"/>
  <outline>
    <contour>
      <point x="76" y="457" type="line" smooth="yes"/>
      <point x="76" y="474"/>
      <point x="79" y="492"/>
      <point x="85" y="509" type="curve" smooth="yes"/>
      <point x="91" y="526"/>
      <point x="99" y="542"/>
      <point x="110" y="556" type="curve" smooth="yes"/>
      <point x="121" y="570"/>
      <point x="133" y="581"/>
      <point x="148" y="590" type="curve" smooth="yes"/>
      <point x="164" y="598"/>
      <point x="180" y="603"/>
      <point x="198" y="603" type="curve" smooth="yes"/>
      <point x="216" y="603"/>
      <point x="233" y="600"/>
      <point x="251" y="595" type="curve" smooth="yes"/>
      <point x="268" y="589"/>
      <point x="283" y="581"/>
      <point x="296" y="571" type="curve" smooth="yes"/>
      <point x="309" y="561"/>
      <point x="319" y="547"/>
      <point x="327" y="531" type="curve" smooth="yes"/>
      <point x="335" y="516"/>
      <point x="339" y="498"/>
      <point x="339" y="477" type="curve" smooth="yes"/>
      <point x="339" y="457"/>
      <point x="336" y="438"/>
      <point x="329" y="419" type="curve" smooth="yes"/>
      <point x="323" y="400"/>
      <point x="314" y="384"/>
      <point x="303" y="370" type="curve" smooth="yes"/>
      <point x="291" y="355"/>
      <point x="277" y="344"/>
      <point x="261" y="336" type="curve" smooth="yes"/>
      <point x="245" y="328"/>
      <point x="228" y="323"/>
      <point x="208" y="323" type="curve" smooth="yes"/>
      <point x="177" y="323"/>
      <point x="149" y="333"/>
      <point x="125" y="352" type="curve" smooth="yes"/>
      <point x="100" y="371"/>
      <point x="83" y="397"/>
      <point x="76" y="433" type="curve"/>
    </contour>
    <contour>
      <point x="353" y="144" type="line" smooth="yes"/>
      <point x="353" y="162"/>
      <point x="355" y="180"/>
      <point x="361" y="197" type="curve" smooth="yes"/>
      <point x="367" y="214"/>
      <point x="375" y="229"/>
      <point x="386" y="243" type="curve" smooth="yes"/>
      <point x="396" y="257"/>
      <point x="409" y="268"/>
      <point x="424" y="276" type="curve" smooth="yes"/>
      <point x="439" y="284"/>
      <point x="456" y="289"/>
      <point x="474" y="289" type="curve" smooth="yes"/>
      <point x="493" y="289"/>
      <point x="511" y="287"/>
      <point x="528" y="281" type="curve" smooth="yes"/>
      <point x="545" y="276"/>
      <point x="560" y="268"/>
      <point x="572" y="257" type="curve" smooth="yes"/>
      <point x="585" y="247"/>
      <point x="595" y="233"/>
      <point x="603" y="218" type="curve" smooth="yes"/>
      <point x="610" y="202"/>
      <point x="614" y="184"/>
      <point x="614" y="164" type="curve" smooth="yes"/>
      <point x="614" y="144"/>
      <point x="611" y="125"/>
      <point x="605" y="106" type="curve" smooth="yes"/>
      <point x="599" y="88"/>
      <point x="590" y="71"/>
      <point x="578" y="58" type="curve" smooth="yes"/>
      <point x="567" y="43"/>
      <point x="553" y="32"/>
      <point x="537" y="23" type="curve" smooth="yes"/>
      <point x="521" y="15"/>
      <point x="504" y="11"/>
      <point x="486" y="11" type="curve" smooth="yes"/>
      <point x="455" y="11"/>
      <point x="427" y="20"/>
      <point x="402" y="39" type="curve" smooth="yes"/>
      <point x="377" y="57"/>
      <point x="361" y="83"/>
      <point x="353" y="119" type="curve"/>
    </contour>
    <contour>
      <point x="188" y="-22" type="line"/>
      <point x="126" y="-22" type="line"/>
      <point x="511" y="644" type="line"/>
      <point x="576" y="644" type="line"/>
    </contour>
    <contour>
      <point x="137" y="491" type="curve" smooth="yes"/>
      <point x="137" y="478"/>
      <point x="140" y="464"/>
      <point x="144" y="451" type="curve" smooth="yes"/>
      <point x="148" y="438"/>
      <point x="155" y="426"/>
      <point x="163" y="416" type="curve" smooth="yes"/>
      <point x="172" y="405"/>
      <point x="182" y="397"/>
      <point x="193" y="391" type="curve" smooth="yes"/>
      <point x="204" y="385"/>
      <point x="217" y="381"/>
      <point x="230" y="381" type="curve" smooth="yes"/>
      <point x="245" y="381"/>
      <point x="257" y="387"/>
      <point x="265" y="397" type="curve" smooth="yes"/>
      <point x="273" y="409"/>
      <point x="278" y="420"/>
      <point x="278" y="433" type="curve" smooth="yes"/>
      <point x="278" y="444"/>
      <point x="275" y="457"/>
      <point x="271" y="470" type="curve" smooth="yes"/>
      <point x="265" y="483"/>
      <point x="258" y="495"/>
      <point x="250" y="506" type="curve" smooth="yes"/>
      <point x="242" y="517"/>
      <point x="232" y="526"/>
      <point x="221" y="533" type="curve" smooth="yes"/>
      <point x="210" y="541"/>
      <point x="199" y="544"/>
      <point x="188" y="544" type="curve" smooth="yes"/>
      <point x="180" y="544"/>
      <point x="173" y="542"/>
      <point x="166" y="540" type="curve" smooth="yes"/>
      <point x="160" y="537"/>
      <point x="155" y="533"/>
      <point x="150" y="528" type="curve" smooth="yes"/>
      <point x="146" y="523"/>
      <point x="143" y="518"/>
      <point x="141" y="512" type="curve" smooth="yes"/>
      <point x="138" y="505"/>
      <point x="137" y="499"/>
    </contour>
    <contour>
      <point x="415" y="179" type="curve" smooth="yes"/>
      <point x="415" y="165"/>
      <point x="417" y="151"/>
      <point x="422" y="138" type="curve" smooth="yes"/>
      <point x="426" y="124"/>
      <point x="432" y="112"/>
      <point x="440" y="102" type="curve" smooth="yes"/>
      <point x="448" y="91"/>
      <point x="458" y="83"/>
      <point x="469" y="76" type="curve" smooth="yes"/>
      <point x="480" y="70"/>
      <point x="493" y="67"/>
      <point x="507" y="68" type="curve" smooth="yes"/>
      <point x="515" y="68"/>
      <point x="522" y="69"/>
      <point x="528" y="72" type="curve" smooth="yes"/>
      <point x="534" y="75"/>
      <point x="539" y="79"/>
      <point x="542" y="84" type="curve" smooth="yes"/>
      <point x="546" y="89"/>
      <point x="549" y="94"/>
      <point x="551" y="101" type="curve" smooth="yes"/>
      <point x="553" y="106"/>
      <point x="554" y="113"/>
      <point x="554" y="119" type="curve" smooth="yes"/>
      <point x="553" y="131"/>
      <point x="551" y="143"/>
      <point x="546" y="156" type="curve" smooth="yes"/>
      <point x="542" y="169"/>
      <point x="535" y="181"/>
      <point x="527" y="192" type="curve" smooth="yes"/>
      <point x="519" y="203"/>
      <point x="509" y="212"/>
      <point x="498" y="219" type="curve" smooth="yes"/>
      <point x="487" y="227"/>
      <point x="475" y="230"/>
      <point x="462" y="230" type="curve" smooth="yes"/>
      <point x="447" y="230"/>
      <point x="435" y="225"/>
      <point x="427" y="216" type="curve" smooth="yes"/>
      <point x="419" y="206"/>
      <point x="415" y="194"/>
    </contour>
  </outline>
</glyph>
<glyph name="ampersand" format="2">
  <advance width="823"/>
  <unicode hex="0026"/>
  <outline>
    <contour>
      <point x="724" y="416" type="line"/>
      <point x="724" y="398" type="line"/>
      <point x="711" y="398"/>
      <point x="700" y="396"/>
      <point x="690" y="394" type="curve" smooth="yes"/>
      <point x="681" y="392"/>
      <point x="672" y="387"/>
      <point x="665" y="381" type="curve" smooth="yes"/>
      <point x="653" y="372"/>
      <point x="632" y="343"/>
      <point x="604" y="293" type="curve" smooth="yes"/>
      <point x="589" y="269"/>
      <point x="574" y="245"/>
      <point x="561" y="222" type="curve" smooth="yes"/>
      <point x="546" y="199"/>
      <point x="530" y="177"/>
      <point x="513" y="155" type="curve"/>
      <point x="540" y="123"/>
      <point x="564" y="100"/>
      <point x="585" y="87" type="curve" smooth="yes"/>
      <point x="607" y="74"/>
      <point x="629" y="68"/>
      <point x="652" y="68" type="curve" smooth="yes"/>
      <point x="674" y="68"/>
      <point x="692" y="74"/>
      <point x="707" y="86" type="curve" smooth="yes"/>
      <point x="721" y="98"/>
      <point x="731" y="114"/>
      <point x="736" y="136" type="curve"/>
      <point x="755" y="125" type="line"/>
      <point x="742" y="81"/>
      <point x="723" y="49"/>
      <point x="699" y="29" type="curve" smooth="yes"/>
      <point x="675" y="10"/>
      <point x="646" y="0"/>
      <point x="611" y="0" type="curve" smooth="yes"/>
      <point x="586" y="0"/>
      <point x="561" y="6"/>
      <point x="535" y="19" type="curve" smooth="yes"/>
      <point x="509" y="31"/>
      <point x="480" y="54"/>
      <point x="449" y="87" type="curve"/>
      <point x="430" y="71"/>
      <point x="412" y="57"/>
      <point x="395" y="46" type="curve" smooth="yes"/>
      <point x="377" y="34"/>
      <point x="361" y="25"/>
      <point x="345" y="19" type="curve" smooth="yes"/>
      <point x="329" y="12"/>
      <point x="313" y="7"/>
      <point x="297" y="4" type="curve" smooth="yes"/>
      <point x="281" y="1"/>
      <point x="265" y="0"/>
      <point x="248" y="0" type="curve" smooth="yes"/>
      <point x="222" y="0"/>
      <point x="199" y="3"/>
      <point x="178" y="11" type="curve" smooth="yes"/>
      <point x="157" y="18"/>
      <point x="140" y="27"/>
      <point x="125" y="39" type="curve" smooth="yes"/>
      <point x="111" y="51"/>
      <point x="100" y="65"/>
      <point x="92" y="82" type="curve" smooth="yes"/>
      <point x="84" y="98"/>
      <point x="80" y="116"/>
      <point x="80" y="135" type="curve" smooth="yes"/>
      <point x="80" y="164"/>
      <point x="85" y="188"/>
      <point x="95" y="209" type="curve" smooth="yes"/>
      <point x="104" y="230"/>
      <point x="118" y="250"/>
      <point x="135" y="267" type="curve" smooth="yes"/>
      <point x="152" y="284"/>
      <point x="173" y="301"/>
      <point x="196" y="316" type="curve" smooth="yes"/>
      <point x="219" y="331"/>
      <point x="245" y="347"/>
      <point x="272" y="364" type="curve"/>
      <point x="265" y="380"/>
      <point x="258" y="394"/>
      <point x="253" y="407" type="curve" smooth="yes"/>
      <point x="248" y="420"/>
      <point x="244" y="431"/>
      <point x="242" y="441" type="curve" smooth="yes"/>
      <point x="237" y="462"/>
      <point x="235" y="483"/>
      <point x="235" y="502" type="curve" smooth="yes"/>
      <point x="235" y="554"/>
      <point x="254" y="594"/>
      <point x="293" y="624" type="curve"/>
      <point x="323" y="644"/>
      <point x="357" y="654"/>
      <point x="396" y="654" type="curve" smooth="yes"/>
      <point x="434" y="654"/>
      <point x="464" y="643"/>
      <point x="487" y="622" type="curve" smooth="yes"/>
      <point x="510" y="601"/>
      <point x="521" y="574"/>
      <point x="521" y="542" type="curve" smooth="yes"/>
      <point x="521" y="509"/>
      <point x="509" y="480"/>
      <point x="486" y="457" type="curve" smooth="yes"/>
      <point x="475" y="444"/>
      <point x="460" y="431"/>
      <point x="441" y="418" type="curve" smooth="yes"/>
      <point x="422" y="405"/>
      <point x="398" y="391"/>
      <point x="369" y="375" type="curve"/>
      <point x="388" y="338"/>
      <point x="408" y="305"/>
      <point x="429" y="274" type="curve" smooth="yes"/>
      <point x="450" y="243"/>
      <point x="470" y="213"/>
      <point x="491" y="183" type="curve"/>
      <point x="546" y="247"/>
      <point x="574" y="301"/>
      <point x="574" y="347" type="curve" smooth="yes"/>
      <point x="574" y="360"/>
      <point x="569" y="373"/>
      <point x="559" y="385" type="curve" smooth="yes"/>
      <point x="555" y="389"/>
      <point x="551" y="392"/>
      <point x="546" y="395" type="curve" smooth="yes"/>
      <point x="540" y="396"/>
      <point x="535" y="398"/>
      <point x="530" y="398" type="curve"/>
      <point x="530" y="416" type="line"/>
    </contour>
    <contour>
      <point x="422" y="113" type="curve"/>
      <point x="412" y="128"/>
      <point x="402" y="142"/>
      <point x="395" y="154" type="curve" smooth="yes"/>
      <point x="386" y="166"/>
      <point x="378" y="177"/>
      <point x="372" y="187" type="curve" smooth="yes"/>
      <point x="365" y="197"/>
      <point x="359" y="206"/>
      <point x="354" y="214" type="curve" smooth="yes"/>
      <point x="349" y="222"/>
      <point x="344" y="229"/>
      <point x="339" y="237" type="curve" smooth="yes"/>
      <point x="335" y="244"/>
      <point x="331" y="251"/>
      <point x="327" y="258" type="curve" smooth="yes"/>
      <point x="323" y="265"/>
      <point x="319" y="272"/>
      <point x="314" y="278" type="curve" smooth="yes"/>
      <point x="311" y="285"/>
      <point x="306" y="292"/>
      <point x="302" y="302" type="curve" smooth="yes"/>
      <point x="297" y="311"/>
      <point x="292" y="320"/>
      <point x="286" y="332" type="curve"/>
      <point x="214" y="290"/>
      <point x="178" y="238"/>
      <point x="178" y="178" type="curve" smooth="yes"/>
      <point x="178" y="157"/>
      <point x="183" y="137"/>
      <point x="192" y="118" type="curve" smooth="yes"/>
      <point x="202" y="99"/>
      <point x="215" y="84"/>
      <point x="232" y="73" type="curve" smooth="yes"/>
      <point x="249" y="62"/>
      <point x="267" y="55"/>
      <point x="287" y="53" type="curve" smooth="yes"/>
      <point x="308" y="51"/>
      <point x="328" y="55"/>
      <point x="349" y="64" type="curve" smooth="yes"/>
      <point x="358" y="68"/>
      <point x="368" y="74"/>
      <point x="381" y="83" type="curve" smooth="yes"/>
      <point x="393" y="91"/>
      <point x="407" y="101"/>
    </contour>
    <contour>
      <point x="351" y="405" type="curve"/>
      <point x="427" y="440"/>
      <point x="465" y="486"/>
      <point x="465" y="544" type="curve" smooth="yes"/>
      <point x="465" y="568"/>
      <point x="458" y="586"/>
      <point x="445" y="601" type="curve" smooth="yes"/>
      <point x="432" y="614"/>
      <point x="415" y="621"/>
      <point x="394" y="621" type="curve" smooth="yes"/>
      <point x="368" y="621"/>
      <point x="348" y="612"/>
      <point x="334" y="594" type="curve" smooth="yes"/>
      <point x="320" y="576"/>
      <point x="313" y="557"/>
      <point x="313" y="537" type="curve" smooth="yes"/>
      <point x="313" y="529"/>
      <point x="314" y="521"/>
      <point x="315" y="514" type="curve" smooth="yes"/>
      <point x="317" y="506"/>
      <point x="319" y="497"/>
      <point x="322" y="487" type="curve" smooth="yes"/>
      <point x="326" y="477"/>
      <point x="330" y="465"/>
      <point x="334" y="452" type="curve" smooth="yes"/>
      <point x="339" y="439"/>
      <point x="345" y="423"/>
    </contour>
  </outline>
</glyph>
<glyph name="quotesingle" format="2">
  <advance width="532"/>
  <unicode hex="0027"/>
  <outline>
    <contour>
      <point x="447" y="1620" type="curve" smooth="yes"/>
      <point x="447" y="1584"/>
      <point x="414" y="1524"/>
      <point x="349" y="1441" type="curve" smooth="yes"/>
      <point x="317" y="1400"/>
      <point x="286" y="1363"/>
      <point x="256" y="1330" type="curve" smooth="yes"/>
      <point x="226" y="1297"/>
      <point x="197" y="1268"/>
      <point x="169" y="1244" type="curve"/>
      <point x="169" y="1356" type="line"/>
      <point x="317" y="1559" type="line"/>
      <point x="317" y="1620" type="line"/>
      <point x="222" y="1771" type="line"/>
      <point x="332" y="1897" type="line"/>
      <point x="409" y="1829"/>
      <point x="447" y="1737"/>
    </contour>
  </outline>
</glyph>
<glyph name="parenleft" format="2">
  <advance width="684"/>
  <unicode hex="0028"/>
  <outline>
    <contour>
      <point x="510" y="-249" type="line"/>
      <point x="496" y="-236"/>
      <point x="484" y="-224"/>
      <point x="473" y="-212" type="curve" smooth="yes"/>
      <point x="462" y="-200"/>
      <point x="452" y="-188"/>
      <point x="443" y="-176" type="curve" smooth="yes"/>
      <point x="434" y="-164"/>
      <point x="425" y="-152"/>
      <point x="416" y="-140" type="curve" smooth="yes"/>
      <point x="407" y="-127"/>
      <point x="398" y="-114"/>
      <point x="389" y="-100" type="curve" smooth="yes"/>
      <point x="357" y="-59"/>
      <point x="328" y="-14"/>
      <point x="304" y="35" type="curve" smooth="yes"/>
      <point x="278" y="84"/>
      <point x="256" y="138"/>
      <point x="237" y="197" type="curve"/>
      <point x="206" y="267"/>
      <point x="184" y="342"/>
      <point x="172" y="422" type="curve" smooth="yes"/>
      <point x="160" y="502"/>
      <point x="154" y="588"/>
      <point x="154" y="679" type="curve" smooth="yes"/>
      <point x="154" y="753"/>
      <point x="160" y="826"/>
      <point x="172" y="898" type="curve" smooth="yes"/>
      <point x="184" y="970"/>
      <point x="204" y="1045"/>
      <point x="232" y="1124" type="curve"/>
      <point x="260" y="1217"/>
      <point x="298" y="1300"/>
      <point x="347" y="1373" type="curve" smooth="yes"/>
      <point x="372" y="1411"/>
      <point x="398" y="1449"/>
      <point x="424" y="1486" type="curve" smooth="yes"/>
      <point x="452" y="1523"/>
      <point x="480" y="1561"/>
      <point x="510" y="1600" type="curve"/>
      <point x="569" y="1500" type="line"/>
      <point x="520" y="1448"/>
      <point x="476" y="1385"/>
      <point x="439" y="1311" type="curve" smooth="yes"/>
      <point x="402" y="1238"/>
      <point x="372" y="1165"/>
      <point x="349" y="1090" type="curve"/>
      <point x="331" y="1022"/>
      <point x="318" y="955"/>
      <point x="308" y="889" type="curve" smooth="yes"/>
      <point x="300" y="823"/>
      <point x="295" y="753"/>
      <point x="295" y="679" type="curve" smooth="yes"/>
      <point x="295" y="605"/>
      <point x="299" y="530"/>
      <point x="308" y="454" type="curve" smooth="yes"/>
      <point x="316" y="379"/>
      <point x="328" y="300"/>
      <point x="345" y="217" type="curve"/>
      <point x="358" y="191"/>
      <point x="372" y="162"/>
      <point x="387" y="130" type="curve" smooth="yes"/>
      <point x="402" y="97"/>
      <point x="419" y="64"/>
      <point x="438" y="32" type="curve" smooth="yes"/>
      <point x="457" y="-2"/>
      <point x="477" y="-34"/>
      <point x="498" y="-65" type="curve" smooth="yes"/>
      <point x="520" y="-96"/>
      <point x="544" y="-124"/>
      <point x="569" y="-149" type="curve"/>
    </contour>
  </outline>
</glyph>
<glyph name="parenright" format="2">
  <advance width="676"/>
  <unicode hex="0029"/>
  <outline>
    <contour>
      <point x="205" y="1595" type="line"/>
      <point x="223" y="1577.67"/>
      <point x="242.833" y="1557"/>
      <point x="264.5" y="1533" type="curve" smooth="yes"/>
      <point x="286.167" y="1509"/>
      <point x="306.333" y="1481"/>
      <point x="325" y="1449" type="curve" smooth="yes"/>
      <point x="355.667" y="1399"/>
      <point x="384.5" y="1347.67"/>
      <point x="411.5" y="1295" type="curve" smooth="yes"/>
      <point x="438.5" y="1242.33"/>
      <point x="462.667" y="1188.67"/>
      <point x="484" y="1134" type="curve" smooth="yes"/>
      <point x="538.667" y="978"/>
      <point x="566" y="818.333"/>
      <point x="566" y="655" type="curve" smooth="yes"/>
      <point x="566" y="531"/>
      <point x="538.667" y="381.667"/>
      <point x="484" y="207" type="curve" smooth="yes"/>
      <point x="464.667" y="150.333"/>
      <point x="441.833" y="98"/>
      <point x="415.5" y="50" type="curve" smooth="yes"/>
      <point x="389.167" y="2"/>
      <point x="359.667" y="-43"/>
      <point x="327" y="-85" type="curve" smooth="yes"/>
      <point x="318.333" y="-100.333"/>
      <point x="309.833" y="-114.667"/>
      <point x="301.5" y="-128" type="curve" smooth="yes"/>
      <point x="293.167" y="-141.333"/>
      <point x="284.333" y="-153.667"/>
      <point x="275" y="-165" type="curve" smooth="yes"/>
      <point x="266.333" y="-176.333"/>
      <point x="256.333" y="-189"/>
      <point x="245" y="-203" type="curve" smooth="yes"/>
      <point x="233.667" y="-217"/>
      <point x="221" y="-232.333"/>
      <point x="207" y="-249" type="curve"/>
      <point x="149" y="-154" type="line"/>
      <point x="167.667" y="-123.333"/>
      <point x="186.833" y="-93.6667"/>
      <point x="206.5" y="-65" type="curve" smooth="yes"/>
      <point x="226.167" y="-36.3333"/>
      <point x="245.167" y="-7.5"/>
      <point x="263.5" y="21.5" type="curve" smooth="yes"/>
      <point x="281.833" y="50.5"/>
      <point x="299.167" y="80.5"/>
      <point x="315.5" y="111.5" type="curve" smooth="yes"/>
      <point x="331.833" y="142.5"/>
      <point x="346.333" y="176"/>
      <point x="359" y="212" type="curve"/>
      <point x="377" y="284"/>
      <point x="392" y="355.333"/>
      <point x="404" y="426" type="curve" smooth="yes"/>
      <point x="416" y="496.667"/>
      <point x="422" y="573"/>
      <point x="422" y="655" type="curve" smooth="yes"/>
      <point x="422" y="731.667"/>
      <point x="416.833" y="810.833"/>
      <point x="406.5" y="892.5" type="curve" smooth="yes"/>
      <point x="396.167" y="974.167"/>
      <point x="380.333" y="1057"/>
      <point x="359" y="1141" type="curve"/>
      <point x="341" y="1185"/>
      <point x="323.167" y="1226.5"/>
      <point x="305.5" y="1265.5" type="curve" smooth="yes"/>
      <point x="287.833" y="1304.5"/>
      <point x="267.333" y="1343.33"/>
      <point x="244" y="1382" type="curve" smooth="yes"/>
      <point x="239.333" y="1388.67"/>
      <point x="234.5" y="1395.5"/>
      <point x="229.5" y="1402.5" type="curve" smooth="yes"/>
      <point x="224.5" y="1409.5"/>
      <point x="218.333" y="1417.5"/>
      <point x="211" y="1426.5" type="curve" smooth="yes"/>
      <point x="203.667" y="1435.5"/>
      <point x="194.833" y="1446"/>
      <point x="184.5" y="1458" type="curve" smooth="yes"/>
      <point x="174.167" y="1470"/>
      <point x="161.333" y="1484.67"/>
      <point x="146" y="1502" type="curve"/>
    </contour>
  </outline>
</glyph>
<glyph name="asterisk" format="2">
  <advance width="545"/>
  <unicode hex="002A"/>
  <outline>
    <contour>
      <point x="385" y="234" type="line"/>
      <point x="304" y="309" type="line"/>
      <point x="283" y="297" type="line"/>
      <point x="321" y="193" type="line"/>
      <point x="281" y="142" type="line"/>
      <point x="227" y="188" type="line"/>
      <point x="250" y="295" type="line"/>
      <point x="228" y="305" type="line"/>
      <point x="147" y="228" type="line"/>
      <point x="96" y="235" type="line"/>
      <point x="107" y="313" type="line"/>
      <point x="212" y="335" type="line"/>
      <point x="213" y="360" type="line"/>
      <point x="126" y="385" type="line"/>
      <point x="83" y="447" type="line"/>
      <point x="155" y="474" type="line"/>
      <point x="225" y="393" type="line"/>
      <point x="249" y="402" type="line"/>
      <point x="212" y="514" type="line"/>
      <point x="252" y="569" type="line"/>
      <point x="306" y="520" type="line"/>
      <point x="279" y="410" type="line"/>
      <point x="305" y="394" type="line"/>
      <point x="380" y="471" type="line"/>
      <point x="439" y="474" type="line"/>
      <point x="427" y="394" type="line"/>
      <point x="318" y="365" type="line"/>
      <point x="320" y="336" type="line"/>
      <point x="414" y="320" type="line"/>
      <point x="447" y="260" type="line"/>
    </contour>
  </outline>
</glyph>
<glyph name="plus" format="2">
  <advance width="691"/>
  <unicode hex="002B"/>
  <outline>
    <contour>
      <point x="375" y="284" type="line"/>
      <point x="375" y="46" type="line"/>
      <point x="304" y="46" type="line"/>
      <point x="304" y="284" type="line"/>
      <point x="80" y="284" type="line"/>
      <point x="80" y="364" type="line"/>
      <point x="304" y="364" type="line"/>
      <point x="304" y="600" type="line"/>
      <point x="375" y="600" type="line"/>
      <point x="375" y="364" type="line"/>
      <point x="603" y="364" type="line"/>
      <point x="603" y="284" type="line"/>
    </contour>
  </outline>
</glyph>
<glyph name="comma" format="2">
  <advance width="486"/>
  <unicode hex="002C"/>
  <outline>
    <contour>
      <point x="302" y="0" type="curve" smooth="yes"/>
      <point x="302" y="-23"/>
      <point x="270" y="-77"/>
      <point x="205" y="-164" type="curve"/>
      <point x="167" y="-207"/>
      <point x="133" y="-244"/>
      <point x="104" y="-275" type="curve" smooth="yes"/>
      <point x="74" y="-306"/>
      <point x="46" y="-336"/>
      <point x="20" y="-364" type="curve"/>
      <point x="20" y="-259" type="line"/>
      <point x="169" y="-54" type="line"/>
      <point x="169" y="0" type="line"/>
      <point x="161" y="0" type="line"/>
      <point x="71" y="136" type="line"/>
      <point x="179" y="264" type="line"/>
      <point x="261" y="195"/>
      <point x="302" y="107"/>
    </contour>
  </outline>
</glyph>
<glyph name="hyphen" format="2">
  <advance width="652"/>
  <unicode hex="002D"/>
  <outline>
    <contour>
      <point x="80" y="237" type="line"/>
      <point x="80" y="311" type="line"/>
      <point x="538" y="311" type="line"/>
      <point x="538" y="237" type="line"/>
    </contour>
  </outline>
</glyph>
<glyph name="period" format="2">
  <advance width="494"/>
  <unicode hex="002E"/>
  <outline>
    <contour>
      <point x="181" y="17" type="line"/>
      <point x="46" y="164" type="line"/>
      <point x="197" y="310" type="line"/>
      <point x="332" y="164" type="line"/>
    </contour>
  </outline>
</glyph>
<glyph name="slash" format="2">
  <advance width="909"/>
  <unicode hex="002F"/>
  <outline>
    <contour>
      <point x="34" y="-64" type="line"/>
      <point x="640" y="1441" type="line"/>
      <point x="786" y="1441" type="line"/>
      <point x="179" y="-64" type="line"/>
    </contour>
  </outline>
</glyph>
<glyph name="zero" format="2">
  <advance width="540"/>
  <unicode hex="0030"/>
  <outline>
    <contour>
      <point x="57" y="357" type="curve" smooth="yes"/>
      <point x="57" y="419"/>
      <point x="62" y="473"/>
      <point x="71" y="521" type="curve" smooth="yes"/>
      <point x="82" y="568"/>
      <point x="96" y="607"/>
      <point x="114" y="640" type="curve" smooth="yes"/>
      <point x="132" y="671"/>
      <point x="155" y="696"/>
      <point x="181" y="712" type="curve" smooth="yes"/>
      <point x="208" y="728"/>
      <point x="237" y="736"/>
      <point x="270" y="736" type="curve" smooth="yes"/>
      <point x="305" y="736"/>
      <point x="335" y="728"/>
      <point x="361" y="711" type="curve" smooth="yes"/>
      <point x="388" y="694"/>
      <point x="410" y="669"/>
      <point x="428" y="637" type="curve" smooth="yes"/>
      <point x="445" y="604"/>
      <point x="458" y="564"/>
      <point x="468" y="517" type="curve" smooth="yes"/>
      <point x="477" y="469"/>
      <point x="481" y="415"/>
      <point x="481" y="354" type="curve" smooth="yes"/>
      <point x="481" y="308"/>
      <point x="478" y="267"/>
      <point x="472" y="231" type="curve" smooth="yes"/>
      <point x="466" y="195"/>
      <point x="458" y="164"/>
      <point x="447" y="138" type="curve" smooth="yes"/>
      <point x="437" y="110"/>
      <point x="424" y="88"/>
      <point x="410" y="69" type="curve" smooth="yes"/>
      <point x="396" y="51"/>
      <point x="381" y="36"/>
      <point x="365" y="24" type="curve" smooth="yes"/>
      <point x="349" y="13"/>
      <point x="332" y="5"/>
      <point x="315" y="0" type="curve" smooth="yes"/>
      <point x="298" y="-6"/>
      <point x="281" y="-8"/>
      <point x="265" y="-8" type="curve" smooth="yes"/>
      <point x="235" y="-8"/>
      <point x="207" y="0"/>
      <point x="182" y="16" type="curve" smooth="yes"/>
      <point x="156" y="32"/>
      <point x="134" y="55"/>
      <point x="116" y="86" type="curve" smooth="yes"/>
      <point x="97" y="117"/>
      <point x="83" y="155"/>
      <point x="72" y="201" type="curve" smooth="yes"/>
      <point x="62" y="246"/>
      <point x="57" y="298"/>
    </contour>
    <contour>
      <point x="152" y="345" type="curve" smooth="yes"/>
      <point x="152" y="293"/>
      <point x="155" y="247"/>
      <point x="159" y="208" type="curve" smooth="yes"/>
      <point x="164" y="168"/>
      <point x="171" y="134"/>
      <point x="180" y="107" type="curve" smooth="yes"/>
      <point x="189" y="81"/>
      <point x="202" y="60"/>
      <point x="216" y="46" type="curve" smooth="yes"/>
      <point x="230" y="32"/>
      <point x="248" y="25"/>
      <point x="268" y="25" type="curve" smooth="yes"/>
      <point x="286" y="25"/>
      <point x="302" y="31"/>
      <point x="316" y="43" type="curve" smooth="yes"/>
      <point x="331" y="55"/>
      <point x="343" y="75"/>
      <point x="354" y="103" type="curve" smooth="yes"/>
      <point x="363" y="131"/>
      <point x="372" y="169"/>
      <point x="377" y="216" type="curve" smooth="yes"/>
      <point x="383" y="262"/>
      <point x="386" y="321"/>
      <point x="386" y="391" type="curve" smooth="yes"/>
      <point x="386" y="494"/>
      <point x="376" y="571"/>
      <point x="356" y="624" type="curve" smooth="yes"/>
      <point x="336" y="677"/>
      <point x="308" y="703"/>
      <point x="269" y="703" type="curve" smooth="yes"/>
      <point x="247" y="703"/>
      <point x="229" y="694"/>
      <point x="213" y="677" type="curve" smooth="yes"/>
      <point x="198" y="660"/>
      <point x="187" y="635"/>
      <point x="178" y="604" type="curve" smooth="yes"/>
      <point x="168" y="572"/>
      <point x="162" y="534"/>
      <point x="158" y="490" type="curve" smooth="yes"/>
      <point x="154" y="446"/>
      <point x="152" y="398"/>
    </contour>
  </outline>
</glyph>
<glyph name="one" format="2">
  <advance width="1024"/>
  <unicode hex="0031"/>
  <outline>
    <contour>
      <point x="617" y="229" type="line" smooth="yes"/>
      <point x="617" y="196"/>
      <point x="620" y="168"/>
      <point x="628" y="145" type="curve" smooth="yes"/>
      <point x="634" y="122"/>
      <point x="646" y="104"/>
      <point x="661" y="90" type="curve" smooth="yes"/>
      <point x="676" y="76"/>
      <point x="696" y="66"/>
      <point x="720" y="60" type="curve" smooth="yes"/>
      <point x="743" y="53"/>
      <point x="772" y="50"/>
      <point x="806" y="50" type="curve"/>
      <point x="806" y="0" type="line"/>
      <point x="285" y="0" type="line"/>
      <point x="285" y="50" type="line"/>
      <point x="344" y="50"/>
      <point x="386" y="63"/>
      <point x="414" y="90" type="curve" smooth="yes"/>
      <point x="440" y="117"/>
      <point x="454" y="163"/>
      <point x="454" y="229" type="curve" smooth="yes"/>
      <point x="454" y="1254" type="line" smooth="yes"/>
      <point x="454" y="1281"/>
      <point x="453" y="1303"/>
      <point x="452" y="1318" type="curve" smooth="yes"/>
      <point x="451" y="1334"/>
      <point x="448" y="1346"/>
      <point x="446" y="1354" type="curve" smooth="yes"/>
      <point x="442" y="1361"/>
      <point x="439" y="1366"/>
      <point x="435" y="1367" type="curve" smooth="yes"/>
      <point x="431" y="1368"/>
      <point x="426" y="1368"/>
      <point x="420" y="1366" type="curve" smooth="yes"/>
      <point x="415" y="1365"/>
      <point x="408" y="1363"/>
      <point x="402" y="1360" type="curve" smooth="yes"/>
      <point x="394" y="1357"/>
      <point x="387" y="1356"/>
      <point x="378" y="1356" type="curve" smooth="yes"/>
      <point x="371" y="1356"/>
      <point x="362" y="1354"/>
      <point x="350" y="1350" type="curve" smooth="yes"/>
      <point x="339" y="1345"/>
      <point x="326" y="1340"/>
      <point x="313" y="1333" type="curve" smooth="yes"/>
      <point x="300" y="1326"/>
      <point x="287" y="1319"/>
      <point x="274" y="1312" type="curve" smooth="yes"/>
      <point x="261" y="1304"/>
      <point x="251" y="1297"/>
      <point x="243" y="1291" type="curve"/>
      <point x="228" y="1368" type="line"/>
      <point x="554" y="1495" type="line"/>
      <point x="617" y="1495" type="line"/>
    </contour>
  </outline>
</glyph>
<glyph name="two" format="2">
  <advance width="1111"/>
  <unicode hex="0032"/>
  <outline>
    <contour>
      <point x="1032" y="263" type="line"/>
      <point x="963" y="0" type="line"/>
      <point x="136" y="0" type="line"/>
      <point x="89" y="76" type="line"/>
      <point x="187" y="160"/>
      <point x="272" y="235"/>
      <point x="342" y="300" type="curve" smooth="yes"/>
      <point x="414" y="366"/>
      <point x="474" y="426"/>
      <point x="523" y="479" type="curve" smooth="yes"/>
      <point x="572" y="532"/>
      <point x="612" y="581"/>
      <point x="642" y="624" type="curve" smooth="yes"/>
      <point x="673" y="667"/>
      <point x="696" y="708"/>
      <point x="713" y="746" type="curve" smooth="yes"/>
      <point x="730" y="785"/>
      <point x="741" y="822"/>
      <point x="746" y="858" type="curve" smooth="yes"/>
      <point x="752" y="895"/>
      <point x="755" y="933"/>
      <point x="755" y="972" type="curve" smooth="yes"/>
      <point x="755" y="1034"/>
      <point x="748" y="1088"/>
      <point x="733" y="1135" type="curve" smooth="yes"/>
      <point x="718" y="1182"/>
      <point x="698" y="1221"/>
      <point x="674" y="1252" type="curve" smooth="yes"/>
      <point x="648" y="1283"/>
      <point x="620" y="1307"/>
      <point x="587" y="1323" type="curve" smooth="yes"/>
      <point x="554" y="1339"/>
      <point x="520" y="1347"/>
      <point x="485" y="1347" type="curve" smooth="yes"/>
      <point x="453" y="1347"/>
      <point x="422" y="1341"/>
      <point x="391" y="1328" type="curve" smooth="yes"/>
      <point x="360" y="1316"/>
      <point x="332" y="1298"/>
      <point x="305" y="1274" type="curve" smooth="yes"/>
      <point x="278" y="1251"/>
      <point x="254" y="1222"/>
      <point x="234" y="1188" type="curve" smooth="yes"/>
      <point x="212" y="1155"/>
      <point x="196" y="1117"/>
      <point x="183" y="1075" type="curve"/>
      <point x="139" y="1173" type="line"/>
      <point x="146" y="1219"/>
      <point x="160" y="1262"/>
      <point x="182" y="1302" type="curve" smooth="yes"/>
      <point x="202" y="1342"/>
      <point x="230" y="1377"/>
      <point x="264" y="1406" type="curve" smooth="yes"/>
      <point x="298" y="1435"/>
      <point x="338" y="1458"/>
      <point x="384" y="1475" type="curve" smooth="yes"/>
      <point x="429" y="1492"/>
      <point x="481" y="1500"/>
      <point x="538" y="1500" type="curve" smooth="yes"/>
      <point x="596" y="1500"/>
      <point x="650" y="1486"/>
      <point x="700" y="1458" type="curve" smooth="yes"/>
      <point x="750" y="1431"/>
      <point x="793" y="1395"/>
      <point x="830" y="1352" type="curve" smooth="yes"/>
      <point x="867" y="1309"/>
      <point x="896" y="1261"/>
      <point x="916" y="1208" type="curve" smooth="yes"/>
      <point x="938" y="1155"/>
      <point x="948" y="1104"/>
      <point x="948" y="1055" type="curve" smooth="yes"/>
      <point x="948" y="1002"/>
      <point x="943" y="954"/>
      <point x="934" y="911" type="curve" smooth="yes"/>
      <point x="924" y="868"/>
      <point x="909" y="827"/>
      <point x="888" y="788" type="curve" smooth="yes"/>
      <point x="867" y="748"/>
      <point x="841" y="708"/>
      <point x="808" y="668" type="curve" smooth="yes"/>
      <point x="775" y="627"/>
      <point x="736" y="582"/>
      <point x="690" y="533" type="curve" smooth="yes"/>
      <point x="643" y="484"/>
      <point x="590" y="428"/>
      <point x="528" y="366" type="curve" smooth="yes"/>
      <point x="468" y="305"/>
      <point x="399" y="233"/>
      <point x="322" y="151" type="curve"/>
      <point x="713" y="151" type="line" smooth="yes"/>
      <point x="746" y="151"/>
      <point x="775" y="152"/>
      <point x="800" y="154" type="curve" smooth="yes"/>
      <point x="826" y="157"/>
      <point x="850" y="162"/>
      <point x="870" y="170" type="curve" smooth="yes"/>
      <point x="892" y="177"/>
      <point x="910" y="188"/>
      <point x="927" y="203" type="curve" smooth="yes"/>
      <point x="944" y="218"/>
      <point x="959" y="238"/>
      <point x="974" y="263" type="curve"/>
    </contour>
  </outline>
</glyph>
<glyph name="three" format="2">
  <advance width="1054"/>
  <unicode hex="0033"/>
  <outline>
    <contour>
      <point x="123" y="1250" type="line"/>
      <point x="145" y="1284"/>
      <point x="169" y="1316"/>
      <point x="196" y="1346" type="curve" smooth="yes"/>
      <point x="222" y="1376"/>
      <point x="251" y="1402"/>
      <point x="283" y="1426" type="curve" smooth="yes"/>
      <point x="315" y="1448"/>
      <point x="350" y="1467"/>
      <point x="389" y="1480" type="curve" smooth="yes"/>
      <point x="428" y="1493"/>
      <point x="471" y="1500"/>
      <point x="518" y="1500" type="curve" smooth="yes"/>
      <point x="567" y="1500"/>
      <point x="612" y="1492"/>
      <point x="654" y="1476" type="curve" smooth="yes"/>
      <point x="694" y="1460"/>
      <point x="730" y="1439"/>
      <point x="760" y="1412" type="curve" smooth="yes"/>
      <point x="789" y="1385"/>
      <point x="812" y="1355"/>
      <point x="828" y="1320" type="curve" smooth="yes"/>
      <point x="845" y="1286"/>
      <point x="853" y="1251"/>
      <point x="853" y="1214" type="curve" smooth="yes"/>
      <point x="853" y="1168"/>
      <point x="847" y="1126"/>
      <point x="834" y="1088" type="curve" smooth="yes"/>
      <point x="822" y="1050"/>
      <point x="806" y="1016"/>
      <point x="786" y="984" type="curve" smooth="yes"/>
      <point x="766" y="954"/>
      <point x="743" y="926"/>
      <point x="718" y="901" type="curve" smooth="yes"/>
      <point x="693" y="876"/>
      <point x="667" y="854"/>
      <point x="640" y="835" type="curve"/>
      <point x="683" y="818"/>
      <point x="721" y="798"/>
      <point x="756" y="774" type="curve" smooth="yes"/>
      <point x="790" y="751"/>
      <point x="819" y="724"/>
      <point x="844" y="693" type="curve" smooth="yes"/>
      <point x="868" y="662"/>
      <point x="886" y="629"/>
      <point x="900" y="592" type="curve" smooth="yes"/>
      <point x="912" y="556"/>
      <point x="919" y="517"/>
      <point x="919" y="476" type="curve" smooth="yes"/>
      <point x="919" y="400"/>
      <point x="905" y="332"/>
      <point x="878" y="270" type="curve" smooth="yes"/>
      <point x="851" y="210"/>
      <point x="812" y="158"/>
      <point x="763" y="114" type="curve" smooth="yes"/>
      <point x="714" y="72"/>
      <point x="654" y="38"/>
      <point x="584" y="16" type="curve" smooth="yes"/>
      <point x="515" y="-8"/>
      <point x="438" y="-19"/>
      <point x="354" y="-19" type="curve" smooth="yes"/>
      <point x="335" y="-19"/>
      <point x="314" y="-18"/>
      <point x="294" y="-14" type="curve" smooth="yes"/>
      <point x="272" y="-12"/>
      <point x="250" y="-6"/>
      <point x="228" y="2" type="curve" smooth="yes"/>
      <point x="204" y="10"/>
      <point x="181" y="21"/>
      <point x="156" y="36" type="curve" smooth="yes"/>
      <point x="131" y="50"/>
      <point x="105" y="68"/>
      <point x="78" y="90" type="curve"/>
      <point x="196" y="234" type="line"/>
      <point x="234" y="180"/>
      <point x="278" y="141"/>
      <point x="329" y="116" type="curve" smooth="yes"/>
      <point x="380" y="91"/>
      <point x="434" y="79"/>
      <point x="491" y="79" type="curve" smooth="yes"/>
      <point x="525" y="79"/>
      <point x="558" y="84"/>
      <point x="589" y="94" type="curve" smooth="yes"/>
      <point x="620" y="103"/>
      <point x="648" y="119"/>
      <point x="672" y="141" type="curve" smooth="yes"/>
      <point x="695" y="163"/>
      <point x="714" y="192"/>
      <point x="728" y="228" type="curve" smooth="yes"/>
      <point x="743" y="264"/>
      <point x="750" y="308"/>
      <point x="750" y="361" type="curve" smooth="yes"/>
      <point x="750" y="424"/>
      <point x="741" y="479"/>
      <point x="723" y="524" type="curve" smooth="yes"/>
      <point x="705" y="569"/>
      <point x="680" y="606"/>
      <point x="647" y="636" type="curve" smooth="yes"/>
      <point x="614" y="664"/>
      <point x="576" y="686"/>
      <point x="531" y="699" type="curve" smooth="yes"/>
      <point x="486" y="712"/>
      <point x="438" y="719"/>
      <point x="385" y="719" type="curve" smooth="yes"/>
      <point x="345" y="719" type="line"/>
      <point x="300" y="796" type="line"/>
      <point x="351" y="802"/>
      <point x="399" y="812"/>
      <point x="444" y="828" type="curve" smooth="yes"/>
      <point x="490" y="842"/>
      <point x="530" y="864"/>
      <point x="566" y="890" type="curve" smooth="yes"/>
      <point x="600" y="918"/>
      <point x="628" y="951"/>
      <point x="649" y="992" type="curve" smooth="yes"/>
      <point x="670" y="1033"/>
      <point x="680" y="1082"/>
      <point x="680" y="1140" type="curve" smooth="yes"/>
      <point x="680" y="1180"/>
      <point x="674" y="1215"/>
      <point x="662" y="1244" type="curve" smooth="yes"/>
      <point x="649" y="1273"/>
      <point x="632" y="1298"/>
      <point x="611" y="1317" type="curve" smooth="yes"/>
      <point x="590" y="1336"/>
      <point x="565" y="1351"/>
      <point x="536" y="1360" type="curve" smooth="yes"/>
      <point x="508" y="1369"/>
      <point x="478" y="1374"/>
      <point x="446" y="1374" type="curve" smooth="yes"/>
      <point x="396" y="1374"/>
      <point x="350" y="1360"/>
      <point x="308" y="1332" type="curve" smooth="yes"/>
      <point x="267" y="1304"/>
      <point x="223" y="1260"/>
      <point x="178" y="1201" type="curve"/>
    </contour>
  </outline>
</glyph>
<glyph name="four" format="2">
  <advance width="1111"/>
  <unicode hex="0034"/>
  <outline>
    <contour>
      <point x="1028" y="461" type="line"/>
      <point x="1007" y="328" type="line"/>
      <point x="842" y="328" type="line"/>
      <point x="842" y="0" type="line"/>
      <point x="668" y="0" type="line"/>
      <point x="668" y="328" type="line"/>
      <point x="132" y="328" type="line"/>
      <point x="79" y="446" type="line"/>
      <point x="743" y="1497" type="line"/>
      <point x="842" y="1497" type="line"/>
      <point x="842" y="461" type="line"/>
    </contour>
    <contour>
      <point x="668" y="461" type="line"/>
      <point x="668" y="1182" type="line"/>
      <point x="629" y="1117"/>
      <point x="590" y="1056"/>
      <point x="551" y="996" type="curve" smooth="yes"/>
      <point x="512" y="938"/>
      <point x="474" y="879"/>
      <point x="435" y="822" type="curve" smooth="yes"/>
      <point x="396" y="764"/>
      <point x="358" y="706"/>
      <point x="319" y="646" type="curve" smooth="yes"/>
      <point x="280" y="588"/>
      <point x="241" y="526"/>
      <point x="202" y="461" type="curve"/>
    </contour>
  </outline>
</glyph>
<glyph name="five" format="2">
  <advance width="528"/>
  <unicode hex="0035"/>
  <outline>
    <contour>
      <point x="463" y="731" type="line"/>
      <point x="435" y="654" type="line"/>
      <point x="236" y="654" type="line"/>
      <point x="230" y="639"/>
      <point x="224" y="624"/>
      <point x="218" y="610" type="curve" smooth="yes"/>
      <point x="211" y="596"/>
      <point x="206" y="582"/>
      <point x="199" y="568" type="curve" smooth="yes"/>
      <point x="193" y="555"/>
      <point x="188" y="541"/>
      <point x="182" y="527" type="curve" smooth="yes"/>
      <point x="175" y="513"/>
      <point x="169" y="498"/>
      <point x="163" y="483" type="curve"/>
      <point x="206" y="477"/>
      <point x="245" y="466"/>
      <point x="281" y="452" type="curve" smooth="yes"/>
      <point x="316" y="438"/>
      <point x="347" y="422"/>
      <point x="372" y="402" type="curve" smooth="yes"/>
      <point x="397" y="382"/>
      <point x="417" y="360"/>
      <point x="431" y="335" type="curve" smooth="yes"/>
      <point x="445" y="310"/>
      <point x="452" y="282"/>
      <point x="452" y="253" type="curve" smooth="yes"/>
      <point x="452" y="226"/>
      <point x="448" y="200"/>
      <point x="439" y="176" type="curve" smooth="yes"/>
      <point x="431" y="152"/>
      <point x="420" y="131"/>
      <point x="406" y="111" type="curve" smooth="yes"/>
      <point x="393" y="92"/>
      <point x="376" y="75"/>
      <point x="358" y="60" type="curve" smooth="yes"/>
      <point x="340" y="45"/>
      <point x="321" y="33"/>
      <point x="301" y="22" type="curve" smooth="yes"/>
      <point x="280" y="12"/>
      <point x="259" y="5"/>
      <point x="238" y="0" type="curve" smooth="yes"/>
      <point x="217" y="-6"/>
      <point x="197" y="-8"/>
      <point x="178" y="-8" type="curve" smooth="yes"/>
      <point x="168" y="-8"/>
      <point x="158" y="-7"/>
      <point x="146" y="-5" type="curve" smooth="yes"/>
      <point x="136" y="-3"/>
      <point x="124" y="0"/>
      <point x="112" y="6" type="curve" smooth="yes"/>
      <point x="100" y="11"/>
      <point x="88" y="18"/>
      <point x="76" y="27" type="curve" smooth="yes"/>
      <point x="63" y="36"/>
      <point x="52" y="47"/>
      <point x="41" y="61" type="curve"/>
      <point x="93" y="141" type="line"/>
      <point x="114" y="112"/>
      <point x="136" y="92"/>
      <point x="157" y="79" type="curve" smooth="yes"/>
      <point x="180" y="67"/>
      <point x="204" y="61"/>
      <point x="231" y="61" type="curve" smooth="yes"/>
      <point x="251" y="61"/>
      <point x="270" y="64"/>
      <point x="287" y="71" type="curve" smooth="yes"/>
      <point x="304" y="78"/>
      <point x="319" y="88"/>
      <point x="333" y="101" type="curve" smooth="yes"/>
      <point x="346" y="113"/>
      <point x="356" y="128"/>
      <point x="364" y="146" type="curve" smooth="yes"/>
      <point x="372" y="163"/>
      <point x="375" y="182"/>
      <point x="375" y="202" type="curve" smooth="yes"/>
      <point x="375" y="233"/>
      <point x="369" y="261"/>
      <point x="356" y="285" type="curve" smooth="yes"/>
      <point x="344" y="311"/>
      <point x="325" y="332"/>
      <point x="300" y="349" type="curve" smooth="yes"/>
      <point x="275" y="367"/>
      <point x="243" y="380"/>
      <point x="205" y="390" type="curve" smooth="yes"/>
      <point x="167" y="399"/>
      <point x="123" y="404"/>
      <point x="71" y="404" type="curve"/>
      <point x="209" y="731" type="line"/>
    </contour>
  </outline>
</glyph>
<glyph name="six" format="2">
  <advance width="1142"/>
  <unicode hex="0036"/>
  <outline>
    <contour>
      <point x="987" y="1498" type="line"/>
      <point x="987" y="1453" type="line"/>
      <point x="931.667" y="1451"/>
      <point x="879.667" y="1440.83"/>
      <point x="831" y="1422.5" type="curve" smooth="yes"/>
      <point x="782.333" y="1404.17"/>
      <point x="737.167" y="1380.17"/>
      <point x="695.5" y="1350.5" type="curve" smooth="yes"/>
      <point x="653.833" y="1320.83"/>
      <point x="615.333" y="1286.17"/>
      <point x="580" y="1246.5" type="curve" smooth="yes"/>
      <point x="544.667" y="1206.83"/>
      <point x="513.167" y="1164.33"/>
      <point x="485.5" y="1119" type="curve" smooth="yes"/>
      <point x="457.833" y="1073.67"/>
      <point x="433.833" y="1026.67"/>
      <point x="413.5" y="978" type="curve" smooth="yes"/>
      <point x="393.167" y="929.333"/>
      <point x="376.667" y="881"/>
      <point x="364" y="833" type="curve"/>
      <point x="386" y="847.667"/>
      <point x="408.833" y="861"/>
      <point x="432.5" y="873" type="curve" smooth="yes"/>
      <point x="456.167" y="885"/>
      <point x="480" y="895"/>
      <point x="504" y="903" type="curve" smooth="yes"/>
      <point x="528" y="911"/>
      <point x="551.667" y="917.167"/>
      <point x="575" y="921.5" type="curve" smooth="yes"/>
      <point x="598.333" y="925.833"/>
      <point x="620" y="928"/>
      <point x="640" y="928" type="curve" smooth="yes"/>
      <point x="690.667" y="928"/>
      <point x="737.5" y="919.167"/>
      <point x="780.5" y="901.5" type="curve" smooth="yes"/>
      <point x="823.5" y="883.833"/>
      <point x="860.5" y="858.167"/>
      <point x="891.5" y="824.5" type="curve" smooth="yes"/>
      <point x="922.5" y="790.833"/>
      <point x="946.833" y="749.333"/>
      <point x="964.5" y="700" type="curve" smooth="yes"/>
      <point x="982.167" y="650.667"/>
      <point x="991" y="594.667"/>
      <point x="991" y="532" type="curve" smooth="yes"/>
      <point x="991" y="454"/>
      <point x="979.833" y="381.833"/>
      <point x="957.5" y="315.5" type="curve" smooth="yes"/>
      <point x="935.167" y="249.167"/>
      <point x="904.5" y="191.833"/>
      <point x="865.5" y="143.5" type="curve" smooth="yes"/>
      <point x="826.5" y="95.1667"/>
      <point x="780.167" y="57.1667"/>
      <point x="726.5" y="29.5" type="curve" smooth="yes"/>
      <point x="672.833" y="1.83333"/>
      <point x="614.667" y="-12"/>
      <point x="552" y="-12" type="curve" smooth="yes"/>
      <point x="486" y="-12"/>
      <point x="426.333" y="3.33333"/>
      <point x="373" y="34" type="curve" smooth="yes"/>
      <point x="319.667" y="64.6667"/>
      <point x="274.333" y="106.833"/>
      <point x="237" y="160.5" type="curve" smooth="yes"/>
      <point x="199.667" y="214.167"/>
      <point x="170.833" y="277.333"/>
      <point x="150.5" y="350" type="curve" smooth="yes"/>
      <point x="130.167" y="422.667"/>
      <point x="120" y="501"/>
      <point x="120" y="585" type="curve" smooth="yes"/>
      <point x="120" y="656.333"/>
      <point x="128.833" y="728.5"/>
      <point x="146.5" y="801.5" type="curve" smooth="yes"/>
      <point x="164.167" y="874.5"/>
      <point x="189.5" y="944.833"/>
      <point x="222.5" y="1012.5" type="curve" smooth="yes"/>
      <point x="255.5" y="1080.17"/>
      <point x="295.667" y="1143.5"/>
      <point x="343" y="1202.5" type="curve" smooth="yes"/>
      <point x="390.333" y="1261.5"/>
      <point x="443.5" y="1312.83"/>
      <point x="502.5" y="1356.5" type="curve" smooth="yes"/>
      <point x="561.5" y="1400.17"/>
      <point x="625.667" y="1434.67"/>
      <point x="695" y="1460" type="curve" smooth="yes"/>
      <point x="764.333" y="1485.33"/>
      <point x="838" y="1498"/>
      <point x="916" y="1498" type="curve" smooth="yes"/>
    </contour>
    <contour>
      <point x="326" y="512" type="curve" smooth="yes"/>
      <point x="326" y="440.667"/>
      <point x="332.333" y="377"/>
      <point x="345" y="321" type="curve" smooth="yes"/>
      <point x="357.667" y="265"/>
      <point x="375.167" y="217.833"/>
      <point x="397.5" y="179.5" type="curve" smooth="yes"/>
      <point x="419.833" y="141.167"/>
      <point x="446.167" y="111.833"/>
      <point x="476.5" y="91.5" type="curve" smooth="yes"/>
      <point x="506.833" y="71.1667"/>
      <point x="539.667" y="61"/>
      <point x="575" y="61" type="curve" smooth="yes"/>
      <point x="603.667" y="61"/>
      <point x="631.667" y="69.1667"/>
      <point x="659" y="85.5" type="curve" smooth="yes"/>
      <point x="686.333" y="101.833"/>
      <point x="710.5" y="125.5"/>
      <point x="731.5" y="156.5" type="curve" smooth="yes"/>
      <point x="752.5" y="187.5"/>
      <point x="769.5" y="225.667"/>
      <point x="782.5" y="271" type="curve" smooth="yes"/>
      <point x="795.5" y="316.333"/>
      <point x="802" y="368.333"/>
      <point x="802" y="427" type="curve" smooth="yes"/>
      <point x="802" y="561.667"/>
      <point x="780.167" y="661.833"/>
      <point x="736.5" y="727.5" type="curve" smooth="yes"/>
      <point x="692.833" y="793.167"/>
      <point x="634" y="826"/>
      <point x="560" y="826" type="curve" smooth="yes"/>
      <point x="544.667" y="826"/>
      <point x="527.5" y="823.333"/>
      <point x="508.5" y="818" type="curve" smooth="yes"/>
      <point x="489.5" y="812.667"/>
      <point x="470.333" y="805"/>
      <point x="451" y="795" type="curve" smooth="yes"/>
      <point x="431.667" y="785"/>
      <point x="412.833" y="772.667"/>
      <point x="394.5" y="758" type="curve" smooth="yes"/>
      <point x="376.167" y="743.333"/>
      <point x="359.667" y="727"/>
      <point x="345" y="709" type="curve"/>
      <point x="338.333" y="663.667"/>
      <point x="333.5" y="625.833"/>
      <point x="330.5" y="595.5" type="curve" smooth="yes"/>
      <point x="327.5" y="565.167"/>
      <point x="326" y="537.333"/>
    </contour>
  </outline>
</glyph>
<glyph name="seven" format="2">
  <advance width="1099"/>
  <unicode hex="0037"/>
  <outline>
    <contour>
      <point x="231" y="1500" type="line"/>
      <point x="1004" y="1500" type="line"/>
      <point x="1004" y="1396" type="line"/>
      <point x="524" y="-32" type="line"/>
      <point x="385" y="47" type="line"/>
      <point x="865" y="1333" type="line"/>
      <point x="446" y="1333" type="line" smooth="yes"/>
      <point x="402.667" y="1333"/>
      <point x="367" y="1328.67"/>
      <point x="339" y="1320" type="curve" smooth="yes"/>
      <point x="311" y="1311.33"/>
      <point x="287.667" y="1299"/>
      <point x="269" y="1283" type="curve" smooth="yes"/>
      <point x="250.333" y="1267"/>
      <point x="234.333" y="1247.83"/>
      <point x="221" y="1225.5" type="curve" smooth="yes"/>
      <point x="207.667" y="1203.17"/>
      <point x="193.667" y="1178.67"/>
      <point x="179" y="1152" type="curve"/>
      <point x="102" y="1166" type="line"/>
    </contour>
  </outline>
</glyph>
<glyph name="eight" format="2">
  <advance width="1049"/>
  <unicode hex="0038"/>
  <outline>
    <contour>
      <point x="113" y="329" type="curve" smooth="yes"/>
      <point x="113" y="367"/>
      <point x="118.5" y="402.667"/>
      <point x="129.5" y="436" type="curve" smooth="yes"/>
      <point x="140.5" y="469.333"/>
      <point x="157.833" y="502.333"/>
      <point x="181.5" y="535" type="curve" smooth="yes"/>
      <point x="205.167" y="567.667"/>
      <point x="235.167" y="600.5"/>
      <point x="271.5" y="633.5" type="curve" smooth="yes"/>
      <point x="307.833" y="666.5"/>
      <point x="351.333" y="701.333"/>
      <point x="402" y="738" type="curve"/>
      <point x="344.667" y="784"/>
      <point x="298.167" y="824"/>
      <point x="262.5" y="858" type="curve" smooth="yes"/>
      <point x="226.833" y="892"/>
      <point x="199.167" y="924"/>
      <point x="179.5" y="954" type="curve" smooth="yes"/>
      <point x="159.833" y="984"/>
      <point x="146.5" y="1013.83"/>
      <point x="139.5" y="1043.5" type="curve" smooth="yes"/>
      <point x="132.5" y="1073.17"/>
      <point x="129" y="1106.33"/>
      <point x="129" y="1143" type="curve" smooth="yes"/>
      <point x="129" y="1193.67"/>
      <point x="138.667" y="1240.83"/>
      <point x="158" y="1284.5" type="curve" smooth="yes"/>
      <point x="177.333" y="1328.17"/>
      <point x="204.5" y="1366"/>
      <point x="239.5" y="1398" type="curve" smooth="yes"/>
      <point x="274.5" y="1430"/>
      <point x="316.5" y="1455"/>
      <point x="365.5" y="1473" type="curve" smooth="yes"/>
      <point x="414.5" y="1491"/>
      <point x="468.667" y="1500"/>
      <point x="528" y="1500" type="curve" smooth="yes"/>
      <point x="584.667" y="1500"/>
      <point x="636.667" y="1490.33"/>
      <point x="684" y="1471" type="curve" smooth="yes"/>
      <point x="731.333" y="1451.67"/>
      <point x="772" y="1425.83"/>
      <point x="806" y="1393.5" type="curve" smooth="yes"/>
      <point x="840" y="1361.17"/>
      <point x="866.333" y="1324.33"/>
      <point x="885" y="1283" type="curve" smooth="yes"/>
      <point x="903.667" y="1241.67"/>
      <point x="913" y="1199"/>
      <point x="913" y="1155" type="curve" smooth="yes"/>
      <point x="913" y="1121"/>
      <point x="908.5" y="1090"/>
      <point x="899.5" y="1062" type="curve" smooth="yes"/>
      <point x="890.5" y="1034"/>
      <point x="874.5" y="1006.17"/>
      <point x="851.5" y="978.5" type="curve" smooth="yes"/>
      <point x="828.5" y="950.833"/>
      <point x="797.5" y="922"/>
      <point x="758.5" y="892" type="curve" smooth="yes"/>
      <point x="719.5" y="862"/>
      <point x="670" y="828.333"/>
      <point x="610" y="791" type="curve"/>
      <point x="678" y="737"/>
      <point x="733.5" y="690"/>
      <point x="776.5" y="650" type="curve" smooth="yes"/>
      <point x="819.5" y="610"/>
      <point x="853.333" y="573"/>
      <point x="878" y="539" type="curve" smooth="yes"/>
      <point x="902.667" y="505"/>
      <point x="919.667" y="471.667"/>
      <point x="929" y="439" type="curve" smooth="yes"/>
      <point x="938.333" y="406.333"/>
      <point x="943" y="370.333"/>
      <point x="943" y="331" type="curve" smooth="yes"/>
      <point x="943" y="277.667"/>
      <point x="932.833" y="229"/>
      <point x="912.5" y="185" type="curve" smooth="yes"/>
      <point x="892.167" y="141"/>
      <point x="863.667" y="103.333"/>
      <point x="827" y="72" type="curve" smooth="yes"/>
      <point x="790.333" y="40.6667"/>
      <point x="746.5" y="16.5"/>
      <point x="695.5" y="-0.5" type="curve" smooth="yes"/>
      <point x="644.5" y="-17.5"/>
      <point x="588.667" y="-26"/>
      <point x="528" y="-26" type="curve" smooth="yes"/>
      <point x="466.667" y="-26"/>
      <point x="410.667" y="-17.6667"/>
      <point x="360" y="-1" type="curve" smooth="yes"/>
      <point x="309.333" y="15.6667"/>
      <point x="265.667" y="39.5"/>
      <point x="229" y="70.5" type="curve" smooth="yes"/>
      <point x="192.333" y="101.5"/>
      <point x="163.833" y="138.833"/>
      <point x="143.5" y="182.5" type="curve" smooth="yes"/>
      <point x="123.167" y="226.167"/>
      <point x="113" y="275"/>
    </contour>
    <contour>
      <point x="305" y="1193" type="curve" smooth="yes"/>
      <point x="305" y="1167"/>
      <point x="307.333" y="1143.17"/>
      <point x="312" y="1121.5" type="curve" smooth="yes"/>
      <point x="316.667" y="1099.83"/>
      <point x="327.5" y="1076.33"/>
      <point x="344.5" y="1051" type="curve" smooth="yes"/>
      <point x="361.5" y="1025.67"/>
      <point x="386.5" y="996.333"/>
      <point x="419.5" y="963" type="curve" smooth="yes"/>
      <point x="452.5" y="929.667"/>
      <point x="497.333" y="888.333"/>
      <point x="554" y="839" type="curve"/>
      <point x="593.333" y="875"/>
      <point x="624.833" y="906.167"/>
      <point x="648.5" y="932.5" type="curve" smooth="yes"/>
      <point x="672.167" y="958.833"/>
      <point x="690.333" y="984"/>
      <point x="703" y="1008" type="curve" smooth="yes"/>
      <point x="715.667" y="1032"/>
      <point x="724" y="1056.33"/>
      <point x="728" y="1081" type="curve" smooth="yes"/>
      <point x="732" y="1105.67"/>
      <point x="734" y="1134"/>
      <point x="734" y="1166" type="curve" smooth="yes"/>
      <point x="734" y="1202.67"/>
      <point x="729.5" y="1237.33"/>
      <point x="720.5" y="1270" type="curve" smooth="yes"/>
      <point x="711.5" y="1302.67"/>
      <point x="698.333" y="1331.17"/>
      <point x="681" y="1355.5" type="curve" smooth="yes"/>
      <point x="663.667" y="1379.83"/>
      <point x="642.333" y="1399"/>
      <point x="617" y="1413" type="curve" smooth="yes"/>
      <point x="591.667" y="1427"/>
      <point x="562.333" y="1434"/>
      <point x="529" y="1434" type="curve" smooth="yes"/>
      <point x="495.667" y="1434"/>
      <point x="465.333" y="1427.17"/>
      <point x="438" y="1413.5" type="curve" smooth="yes"/>
      <point x="410.667" y="1399.83"/>
      <point x="387.167" y="1381.83"/>
      <point x="367.5" y="1359.5" type="curve" smooth="yes"/>
      <point x="347.833" y="1337.17"/>
      <point x="332.5" y="1311.5"/>
      <point x="321.5" y="1282.5" type="curve" smooth="yes"/>
      <point x="310.5" y="1253.5"/>
      <point x="305" y="1223.67"/>
    </contour>
    <contour>
      <point x="778" y="260" type="curve" smooth="yes"/>
      <point x="778" y="294.667"/>
      <point x="772.167" y="327.833"/>
      <point x="760.5" y="359.5" type="curve" smooth="yes"/>
      <point x="748.833" y="391.167"/>
      <point x="730.333" y="424"/>
      <point x="705" y="458" type="curve" smooth="yes"/>
      <point x="679.667" y="492"/>
      <point x="646.833" y="527.833"/>
      <point x="606.5" y="565.5" type="curve" smooth="yes"/>
      <point x="566.167" y="603.167"/>
      <point x="517.333" y="645.333"/>
      <point x="460" y="692" type="curve"/>
      <point x="433.333" y="669.333"/>
      <point x="409.833" y="646.333"/>
      <point x="389.5" y="623" type="curve" smooth="yes"/>
      <point x="369.167" y="599.667"/>
      <point x="352" y="574"/>
      <point x="338" y="546" type="curve" smooth="yes"/>
      <point x="324" y="518"/>
      <point x="313.5" y="486.833"/>
      <point x="306.5" y="452.5" type="curve" smooth="yes"/>
      <point x="299.5" y="418.167"/>
      <point x="296" y="378.333"/>
      <point x="296" y="333" type="curve" smooth="yes"/>
      <point x="296" y="279.667"/>
      <point x="302" y="234.333"/>
      <point x="314" y="197" type="curve" smooth="yes"/>
      <point x="326" y="159.667"/>
      <point x="342.833" y="129.333"/>
      <point x="364.5" y="106" type="curve" smooth="yes"/>
      <point x="386.167" y="82.6667"/>
      <point x="412.167" y="65.8333"/>
      <point x="442.5" y="55.5" type="curve" smooth="yes"/>
      <point x="472.833" y="45.1667"/>
      <point x="506.333" y="40"/>
      <point x="543" y="40" type="curve" smooth="yes"/>
      <point x="577.667" y="40"/>
      <point x="609.5" y="44.5"/>
      <point x="638.5" y="53.5" type="curve" smooth="yes"/>
      <point x="667.5" y="62.5"/>
      <point x="692.333" y="76.1667"/>
      <point x="713" y="94.5" type="curve" smooth="yes"/>
      <point x="733.667" y="112.833"/>
      <point x="749.667" y="135.667"/>
      <point x="761" y="163" type="curve" smooth="yes"/>
      <point x="772.333" y="190.333"/>
      <point x="778" y="222.667"/>
    </contour>
  </outline>
</glyph>
<glyph name="nine" format="2">
  <advance width="1058"/>
  <unicode hex="0039"/>
  <outline>
    <contour>
      <point x="95" y="-12" type="line"/>
      <point x="95" y="33" type="line"/>
      <point x="179" y="37.6667"/>
      <point x="255.167" y="58.3333"/>
      <point x="323.5" y="95" type="curve" smooth="yes"/>
      <point x="391.833" y="131.667"/>
      <point x="452" y="178.333"/>
      <point x="504" y="235" type="curve" smooth="yes"/>
      <point x="556" y="291.667"/>
      <point x="599.833" y="355.333"/>
      <point x="635.5" y="426" type="curve" smooth="yes"/>
      <point x="671.167" y="496.667"/>
      <point x="698.667" y="568.333"/>
      <point x="718" y="641" type="curve"/>
      <point x="696" y="625.667"/>
      <point x="673" y="612.167"/>
      <point x="649" y="600.5" type="curve" smooth="yes"/>
      <point x="625" y="588.833"/>
      <point x="601" y="579"/>
      <point x="577" y="571" type="curve" smooth="yes"/>
      <point x="553" y="563"/>
      <point x="529.333" y="557"/>
      <point x="506" y="553" type="curve" smooth="yes"/>
      <point x="482.667" y="549"/>
      <point x="460.667" y="547"/>
      <point x="440" y="547" type="curve" smooth="yes"/>
      <point x="389.333" y="547"/>
      <point x="342.667" y="558.167"/>
      <point x="300" y="580.5" type="curve" smooth="yes"/>
      <point x="257.333" y="602.833"/>
      <point x="220.5" y="633.5"/>
      <point x="189.5" y="672.5" type="curve" smooth="yes"/>
      <point x="158.5" y="711.5"/>
      <point x="134.333" y="757.833"/>
      <point x="117" y="811.5" type="curve" smooth="yes"/>
      <point x="99.6667" y="865.167"/>
      <point x="91" y="923.667"/>
      <point x="91" y="987" type="curve" smooth="yes"/>
      <point x="91" y="1065"/>
      <point x="102.167" y="1135.5"/>
      <point x="124.5" y="1198.5" type="curve" smooth="yes"/>
      <point x="146.833" y="1261.5"/>
      <point x="177.5" y="1315.17"/>
      <point x="216.5" y="1359.5" type="curve" smooth="yes"/>
      <point x="255.5" y="1403.83"/>
      <point x="301.667" y="1438"/>
      <point x="355" y="1462" type="curve" smooth="yes"/>
      <point x="408.333" y="1486"/>
      <point x="466.333" y="1498"/>
      <point x="529" y="1498" type="curve" smooth="yes"/>
      <point x="595.667" y="1498"/>
      <point x="655.5" y="1482.17"/>
      <point x="708.5" y="1450.5" type="curve" smooth="yes"/>
      <point x="761.5" y="1418.83"/>
      <point x="806.667" y="1375.5"/>
      <point x="844" y="1320.5" type="curve" smooth="yes"/>
      <point x="881.333" y="1265.5"/>
      <point x="910" y="1201"/>
      <point x="930" y="1127" type="curve" smooth="yes"/>
      <point x="950" y="1053"/>
      <point x="960" y="973.333"/>
      <point x="960" y="888" type="curve" smooth="yes"/>
      <point x="960" y="816.667"/>
      <point x="951.167" y="744.833"/>
      <point x="933.5" y="672.5" type="curve" smooth="yes"/>
      <point x="915.833" y="600.167"/>
      <point x="890.667" y="530.667"/>
      <point x="858" y="464" type="curve" smooth="yes"/>
      <point x="825.333" y="397.333"/>
      <point x="785.5" y="335.167"/>
      <point x="738.5" y="277.5" type="curve" smooth="yes"/>
      <point x="691.5" y="219.833"/>
      <point x="638.5" y="169.5"/>
      <point x="579.5" y="126.5" type="curve" smooth="yes"/>
      <point x="520.5" y="83.5"/>
      <point x="456.167" y="49.6667"/>
      <point x="386.5" y="25" type="curve" smooth="yes"/>
      <point x="316.833" y="0.333333"/>
      <point x="243" y="-12"/>
      <point x="165" y="-12" type="curve" smooth="yes"/>
    </contour>
    <contour>
      <point x="738" y="765" type="curve"/>
      <point x="744" y="810.333"/>
      <point x="748.5" y="848.333"/>
      <point x="751.5" y="879" type="curve" smooth="yes"/>
      <point x="754.5" y="909.667"/>
      <point x="756" y="938.333"/>
      <point x="756" y="965" type="curve" smooth="yes"/>
      <point x="756" y="1035.67"/>
      <point x="749.667" y="1099.33"/>
      <point x="737" y="1156" type="curve" smooth="yes"/>
      <point x="724.333" y="1212.67"/>
      <point x="707" y="1260.67"/>
      <point x="685" y="1300" type="curve" smooth="yes"/>
      <point x="663" y="1339.33"/>
      <point x="636.833" y="1369.67"/>
      <point x="606.5" y="1391" type="curve" smooth="yes"/>
      <point x="576.167" y="1412.33"/>
      <point x="543" y="1423"/>
      <point x="507" y="1423" type="curve" smooth="yes"/>
      <point x="478.333" y="1423"/>
      <point x="450.5" y="1416.83"/>
      <point x="423.5" y="1404.5" type="curve" smooth="yes"/>
      <point x="396.5" y="1392.17"/>
      <point x="372.333" y="1372.67"/>
      <point x="351" y="1346" type="curve" smooth="yes"/>
      <point x="329.667" y="1319.33"/>
      <point x="312.5" y="1285"/>
      <point x="299.5" y="1243" type="curve" smooth="yes"/>
      <point x="286.5" y="1201"/>
      <point x="280" y="1150.67"/>
      <point x="280" y="1092" type="curve" smooth="yes"/>
      <point x="280" y="1024.67"/>
      <point x="285.5" y="963.667"/>
      <point x="296.5" y="909" type="curve" smooth="yes"/>
      <point x="307.5" y="854.333"/>
      <point x="323.5" y="807.667"/>
      <point x="344.5" y="769" type="curve" smooth="yes"/>
      <point x="365.5" y="730.333"/>
      <point x="391" y="700.5"/>
      <point x="421" y="679.5" type="curve" smooth="yes"/>
      <point x="451" y="658.5"/>
      <point x="485.333" y="648"/>
      <point x="524" y="648" type="curve" smooth="yes"/>
      <point x="538.667" y="648"/>
      <point x="555.333" y="650.667"/>
      <point x="574" y="656" type="curve" smooth="yes"/>
      <point x="592.667" y="661.333"/>
      <point x="611.667" y="669.167"/>
      <point x="631" y="679.5" type="curve" smooth="yes"/>
      <point x="650.333" y="689.833"/>
      <point x="669.333" y="702.167"/>
      <point x="688" y="716.5" type="curve" smooth="yes"/>
      <point x="706.667" y="730.833"/>
      <point x="723.333" y="747"/>
    </contour>
  </outline>
</glyph>
<glyph name="colon" format="2">
  <advance width="321"/>
  <unicode hex="003A"/>
  <outline>
    <contour>
      <point x="152" y="329" type="line"/>
      <point x="85" y="401" type="line"/>
      <point x="157" y="472" type="line"/>
      <point x="225" y="401" type="line"/>
    </contour>
    <contour>
      <point x="155" y="3" type="line"/>
      <point x="87" y="76" type="line"/>
      <point x="160" y="147" type="line"/>
      <point x="228" y="76" type="line"/>
    </contour>
  </outline>
</glyph>
<glyph name="less" format="2">
  <advance width="867"/>
  <unicode hex="003C"/>
  <outline>
    <contour>
      <point x="715" y="34" type="line"/>
      <point x="123" y="450" type="line"/>
      <point x="123" y="597" type="line"/>
      <point x="705" y="1011" type="line"/>
      <point x="705" y="825" type="line"/>
      <point x="284" y="519" type="line"/>
      <point x="715" y="213" type="line"/>
    </contour>
  </outline>
</glyph>
<glyph name="equal" format="2">
  <advance width="1339"/>
  <unicode hex="003D"/>
  <outline>
    <contour>
      <point x="164" y="850" type="line"/>
      <point x="164" y="975" type="line"/>
      <point x="1155" y="975" type="line"/>
      <point x="1155" y="850" type="line"/>
    </contour>
    <contour>
      <point x="164" y="420" type="line"/>
      <point x="164" y="547" type="line"/>
      <point x="1155" y="547" type="line"/>
      <point x="1155" y="420" type="line"/>
    </contour>
  </outline>
</glyph>
<glyph name="greater" format="2">
  <advance width="867"/>
  <unicode hex="003E"/>
  <outline>
    <contour>
      <point x="123" y="213" type="line"/>
      <point x="554" y="519" type="line"/>
      <point x="133" y="825" type="line"/>
      <point x="133" y="1011" type="line"/>
      <point x="715" y="597" type="line"/>
      <point x="715" y="450" type="line"/>
      <point x="123" y="34" type="line"/>
    </contour>
  </outline>
</glyph>
<glyph name="question" format="2">
  <advance width="1116"/>
  <unicode hex="003F"/>
  <outline>
    <contour>
      <point x="926" y="970" type="curve" smooth="yes"/>
      <point x="926" y="951"/>
      <point x="919" y="927"/>
      <point x="906" y="897" type="curve" smooth="yes"/>
      <point x="892" y="867"/>
      <point x="874" y="834"/>
      <point x="852" y="798" type="curve" smooth="yes"/>
      <point x="831" y="762"/>
      <point x="806" y="724"/>
      <point x="778" y="686" type="curve" smooth="yes"/>
      <point x="751" y="646"/>
      <point x="723" y="609"/>
      <point x="694" y="572" type="curve" smooth="yes"/>
      <point x="666" y="536"/>
      <point x="639" y="503"/>
      <point x="614" y="472" type="curve" smooth="yes"/>
      <point x="588" y="441"/>
      <point x="566" y="416"/>
      <point x="547" y="396" type="curve"/>
      <point x="442" y="504" type="line"/>
      <point x="509" y="574"/>
      <point x="563" y="634"/>
      <point x="606" y="683" type="curve" smooth="yes"/>
      <point x="649" y="732"/>
      <point x="681" y="775"/>
      <point x="704" y="811" type="curve" smooth="yes"/>
      <point x="739" y="868"/>
      <point x="766" y="916"/>
      <point x="784" y="956" type="curve" smooth="yes"/>
      <point x="802" y="995"/>
      <point x="811" y="1028"/>
      <point x="811" y="1055" type="curve" smooth="yes"/>
      <point x="811" y="1076"/>
      <point x="806" y="1098"/>
      <point x="798" y="1120" type="curve" smooth="yes"/>
      <point x="788" y="1141"/>
      <point x="777" y="1161"/>
      <point x="762" y="1178" type="curve" smooth="yes"/>
      <point x="748" y="1195"/>
      <point x="732" y="1209"/>
      <point x="713" y="1220" type="curve" smooth="yes"/>
      <point x="694" y="1231"/>
      <point x="675" y="1236"/>
      <point x="655" y="1236" type="curve" smooth="yes"/>
      <point x="639" y="1236"/>
      <point x="620" y="1233"/>
      <point x="598" y="1228" type="curve" smooth="yes"/>
      <point x="577" y="1223"/>
      <point x="554" y="1214"/>
      <point x="529" y="1202" type="curve" smooth="yes"/>
      <point x="504" y="1191"/>
      <point x="479" y="1176"/>
      <point x="452" y="1158" type="curve" smooth="yes"/>
      <point x="426" y="1139"/>
      <point x="400" y="1117"/>
      <point x="374" y="1090" type="curve"/>
      <point x="279" y="1175" type="line"/>
      <point x="391" y="1285" type="line"/>
      <point x="461" y="1321"/>
      <point x="531" y="1339"/>
      <point x="601" y="1339" type="curve" smooth="yes"/>
      <point x="645" y="1339"/>
      <point x="687" y="1329"/>
      <point x="726" y="1309" type="curve" smooth="yes"/>
      <point x="766" y="1289"/>
      <point x="801" y="1262"/>
      <point x="830" y="1228" type="curve" smooth="yes"/>
      <point x="859" y="1194"/>
      <point x="883" y="1155"/>
      <point x="900" y="1110" type="curve" smooth="yes"/>
      <point x="917" y="1065"/>
      <point x="926" y="1019"/>
    </contour>
    <contour>
      <point x="537" y="-3" type="line"/>
      <point x="402" y="125" type="line"/>
      <point x="550" y="271" type="line"/>
      <point x="686" y="125" type="line"/>
    </contour>
  </outline>
</glyph>
<glyph name="at" format="2">
  <advance width="1865"/>
  <unicode hex="0040"/>
  <outline>
    <contour>
      <point x="1719" y="156" type="line"/>
      <point x="1691" y="72"/>
      <point x="1650.83" y="-4.33333"/>
      <point x="1598.5" y="-73" type="curve" smooth="yes"/>
      <point x="1546.17" y="-141.667"/>
      <point x="1485.17" y="-200.5"/>
      <point x="1415.5" y="-249.5" type="curve" smooth="yes"/>
      <point x="1345.83" y="-298.5"/>
      <point x="1269.5" y="-336.333"/>
      <point x="1186.5" y="-363" type="curve" smooth="yes"/>
      <point x="1103.5" y="-389.667"/>
      <point x="1017.33" y="-403"/>
      <point x="928" y="-403" type="curve" smooth="yes"/>
      <point x="850.667" y="-403"/>
      <point x="777.333" y="-393.5"/>
      <point x="708" y="-374.5" type="curve" smooth="yes"/>
      <point x="638.667" y="-355.5"/>
      <point x="574.5" y="-328.5"/>
      <point x="515.5" y="-293.5" type="curve" smooth="yes"/>
      <point x="456.5" y="-258.5"/>
      <point x="403.167" y="-216.667"/>
      <point x="355.5" y="-168" type="curve" smooth="yes"/>
      <point x="307.833" y="-119.333"/>
      <point x="267.333" y="-65.5"/>
      <point x="234" y="-6.5" type="curve" smooth="yes"/>
      <point x="200.667" y="52.5"/>
      <point x="175" y="116.167"/>
      <point x="157" y="184.5" type="curve" smooth="yes"/>
      <point x="139" y="252.833"/>
      <point x="130" y="323.667"/>
      <point x="130" y="397" type="curve" smooth="yes"/>
      <point x="130" y="475.667"/>
      <point x="140.167" y="551.833"/>
      <point x="160.5" y="625.5" type="curve" smooth="yes"/>
      <point x="180.833" y="699.167"/>
      <point x="209.667" y="768.333"/>
      <point x="247" y="833" type="curve" smooth="yes"/>
      <point x="284.333" y="897.667"/>
      <point x="329" y="957"/>
      <point x="381" y="1011" type="curve" smooth="yes"/>
      <point x="433" y="1065"/>
      <point x="491" y="1111.33"/>
      <point x="555" y="1150" type="curve" smooth="yes"/>
      <point x="619" y="1188.67"/>
      <point x="687.833" y="1218.67"/>
      <point x="761.5" y="1240" type="curve" smooth="yes"/>
      <point x="835.167" y="1261.33"/>
      <point x="912" y="1272"/>
      <point x="992" y="1272" type="curve" smooth="yes"/>
      <point x="1088" y="1272"/>
      <point x="1176.67" y="1256.5"/>
      <point x="1258" y="1225.5" type="curve" smooth="yes"/>
      <point x="1339.33" y="1194.5"/>
      <point x="1409.67" y="1151.5"/>
      <point x="1469" y="1096.5" type="curve" smooth="yes"/>
      <point x="1528.33" y="1041.5"/>
      <point x="1574.83" y="976.167"/>
      <point x="1608.5" y="900.5" type="curve" smooth="yes"/>
      <point x="1642.17" y="824.833"/>
      <point x="1659" y="742"/>
      <point x="1659" y="652" type="curve" smooth="yes"/>
      <point x="1659" y="596.667"/>
      <point x="1652.67" y="542.833"/>
      <point x="1640" y="490.5" type="curve" smooth="yes"/>
      <point x="1627.33" y="438.167"/>
      <point x="1609.5" y="388.833"/>
      <point x="1586.5" y="342.5" type="curve" smooth="yes"/>
      <point x="1563.5" y="296.167"/>
      <point x="1535.83" y="253.667"/>
      <point x="1503.5" y="215" type="curve" smooth="yes"/>
      <point x="1471.17" y="176.333"/>
      <point x="1435.5" y="143"/>
      <point x="1396.5" y="115" type="curve" smooth="yes"/>
      <point x="1357.5" y="87"/>
      <point x="1315.67" y="65.1667"/>
      <point x="1271" y="49.5" type="curve" smooth="yes"/>
      <point x="1226.33" y="33.8333"/>
      <point x="1180" y="26"/>
      <point x="1132" y="26" type="curve" smooth="yes"/>
      <point x="1028" y="26"/>
      <point x="976" y="69.6667"/>
      <point x="976" y="157" type="curve" smooth="yes"/>
      <point x="976" y="169"/>
      <point x="976" y="169"/>
      <point x="976" y="182.5" type="curve" smooth="yes"/>
      <point x="976" y="191.5"/>
      <point x="976.333" y="201.667"/>
      <point x="977" y="213" type="curve"/>
      <point x="916.333" y="145.667"/>
      <point x="860.333" y="97.1667"/>
      <point x="809" y="67.5" type="curve" smooth="yes"/>
      <point x="757.667" y="37.8333"/>
      <point x="711" y="23"/>
      <point x="669" y="23" type="curve" smooth="yes"/>
      <point x="641.667" y="23"/>
      <point x="616.667" y="28.8333"/>
      <point x="594" y="40.5" type="curve" smooth="yes"/>
      <point x="571.333" y="52.1667"/>
      <point x="551.667" y="67.8333"/>
      <point x="535" y="87.5" type="curve" smooth="yes"/>
      <point x="518.333" y="107.167"/>
      <point x="505.333" y="130.167"/>
      <point x="496" y="156.5" type="curve" smooth="yes"/>
      <point x="486.667" y="182.833"/>
      <point x="482" y="211"/>
      <point x="482" y="241" type="curve" smooth="yes"/>
      <point x="482" y="281.667"/>
      <point x="489.333" y="325.167"/>
      <point x="504" y="371.5" type="curve" smooth="yes"/>
      <point x="518.667" y="417.833"/>
      <point x="538.5" y="463.833"/>
      <point x="563.5" y="509.5" type="curve" smooth="yes"/>
      <point x="588.5" y="555.167"/>
      <point x="617.833" y="599.167"/>
      <point x="651.5" y="641.5" type="curve" smooth="yes"/>
      <point x="685.167" y="683.833"/>
      <point x="720.833" y="721"/>
      <point x="758.5" y="753" type="curve" smooth="yes"/>
      <point x="796.167" y="785"/>
      <point x="835.167" y="810.667"/>
      <point x="875.5" y="830" type="curve" smooth="yes"/>
      <point x="915.833" y="849.333"/>
      <point x="955.333" y="859"/>
      <point x="994" y="859" type="curve" smooth="yes"/>
      <point x="1026" y="859"/>
      <point x="1054.17" y="854.333"/>
      <point x="1078.5" y="845" type="curve" smooth="yes"/>
      <point x="1102.83" y="835.667"/>
      <point x="1122.67" y="819"/>
      <point x="1138" y="795" type="curve" smooth="yes"/>
      <point x="1139.33" y="795.667"/>
      <point x="1140" y="796.667"/>
      <point x="1140" y="798" type="curve" smooth="yes"/>
      <point x="1142" y="804.667"/>
      <point x="1144" y="811.5"/>
      <point x="1146" y="818.5" type="curve" smooth="yes"/>
      <point x="1148" y="825.5"/>
      <point x="1150" y="831.667"/>
      <point x="1152" y="837" type="curve"/>
      <point x="1164" y="838.333"/>
      <point x="1177.33" y="840"/>
      <point x="1192" y="842" type="curve" smooth="yes"/>
      <point x="1206.67" y="844"/>
      <point x="1219.67" y="846"/>
      <point x="1231" y="848" type="curve" smooth="yes"/>
      <point x="1244.33" y="850.667"/>
      <point x="1260.67" y="852.833"/>
      <point x="1280" y="854.5" type="curve" smooth="yes"/>
      <point x="1299.33" y="856.167"/>
      <point x="1319.67" y="857.667"/>
      <point x="1341" y="859" type="curve"/>
      <point x="1325.67" y="809.667"/>
      <point x="1310.5" y="759.667"/>
      <point x="1295.5" y="709" type="curve" smooth="yes"/>
      <point x="1280.5" y="658.333"/>
      <point x="1266.17" y="609"/>
      <point x="1252.5" y="561" type="curve" smooth="yes"/>
      <point x="1238.83" y="513"/>
      <point x="1226" y="467.167"/>
      <point x="1214" y="423.5" type="curve" smooth="yes"/>
      <point x="1202" y="379.833"/>
      <point x="1191.5" y="340.5"/>
      <point x="1182.5" y="305.5" type="curve" smooth="yes"/>
      <point x="1173.5" y="270.5"/>
      <point x="1166.5" y="240.833"/>
      <point x="1161.5" y="216.5" type="curve" smooth="yes"/>
      <point x="1156.5" y="192.167"/>
      <point x="1154" y="175.333"/>
      <point x="1154" y="166" type="curve" smooth="yes"/>
      <point x="1154" y="133.333"/>
      <point x="1167.67" y="117"/>
      <point x="1195" y="117" type="curve" smooth="yes"/>
      <point x="1215.67" y="117"/>
      <point x="1238.83" y="122.833"/>
      <point x="1264.5" y="134.5" type="curve" smooth="yes"/>
      <point x="1290.17" y="146.167"/>
      <point x="1316" y="163"/>
      <point x="1342" y="185" type="curve" smooth="yes"/>
      <point x="1368" y="207"/>
      <point x="1393.17" y="234"/>
      <point x="1417.5" y="266" type="curve" smooth="yes"/>
      <point x="1441.83" y="298"/>
      <point x="1463.5" y="334.5"/>
      <point x="1482.5" y="375.5" type="curve" smooth="yes"/>
      <point x="1501.5" y="416.5"/>
      <point x="1516.83" y="461.5"/>
      <point x="1528.5" y="510.5" type="curve" smooth="yes"/>
      <point x="1540.17" y="559.5"/>
      <point x="1546" y="612"/>
      <point x="1546" y="668" type="curve" smooth="yes"/>
      <point x="1546" y="742.667"/>
      <point x="1532.17" y="811.667"/>
      <point x="1504.5" y="875" type="curve" smooth="yes"/>
      <point x="1476.83" y="938.333"/>
      <point x="1438.33" y="993"/>
      <point x="1389" y="1039" type="curve" smooth="yes"/>
      <point x="1339.67" y="1085"/>
      <point x="1281.33" y="1121"/>
      <point x="1214" y="1147" type="curve" smooth="yes"/>
      <point x="1146.67" y="1173"/>
      <point x="1073.33" y="1186"/>
      <point x="994" y="1186" type="curve" smooth="yes"/>
      <point x="925.333" y="1186"/>
      <point x="859.667" y="1176.33"/>
      <point x="797" y="1157" type="curve" smooth="yes"/>
      <point x="734.333" y="1137.67"/>
      <point x="676" y="1110.33"/>
      <point x="622" y="1075" type="curve" smooth="yes"/>
      <point x="568" y="1039.67"/>
      <point x="518.833" y="997.167"/>
      <point x="474.5" y="947.5" type="curve" smooth="yes"/>
      <point x="430.167" y="897.833"/>
      <point x="392.333" y="843"/>
      <point x="361" y="783" type="curve" smooth="yes"/>
      <point x="329.667" y="723"/>
      <point x="305.5" y="658.333"/>
      <point x="288.5" y="589" type="curve" smooth="yes"/>
      <point x="271.5" y="519.667"/>
      <point x="263" y="448"/>
      <point x="263" y="374" type="curve" smooth="yes"/>
      <point x="263" y="273.333"/>
      <point x="279.167" y="181.667"/>
      <point x="311.5" y="99" type="curve" smooth="yes"/>
      <point x="343.833" y="16.3333"/>
      <point x="389.167" y="-54.5"/>
      <point x="447.5" y="-113.5" type="curve" smooth="yes"/>
      <point x="505.833" y="-172.5"/>
      <point x="576" y="-218.333"/>
      <point x="658" y="-251" type="curve" smooth="yes"/>
      <point x="740" y="-283.667"/>
      <point x="831" y="-300"/>
      <point x="931" y="-300" type="curve" smooth="yes"/>
      <point x="1087" y="-300"/>
      <point x="1223.83" y="-258.833"/>
      <point x="1341.5" y="-176.5" type="curve" smooth="yes"/>
      <point x="1459.17" y="-94.1667"/>
      <point x="1554.33" y="26"/>
      <point x="1627" y="184" type="curve"/>
    </contour>
    <contour>
      <point x="1091" y="681" type="curve" smooth="yes"/>
      <point x="1091" y="695.667"/>
      <point x="1089" y="709.5"/>
      <point x="1085" y="722.5" type="curve" smooth="yes"/>
      <point x="1081" y="735.5"/>
      <point x="1075.17" y="747"/>
      <point x="1067.5" y="757" type="curve" smooth="yes"/>
      <point x="1059.83" y="767"/>
      <point x="1050.5" y="775"/>
      <point x="1039.5" y="781" type="curve" smooth="yes"/>
      <point x="1028.5" y="787"/>
      <point x="1015.67" y="790"/>
      <point x="1001" y="790" type="curve" smooth="yes"/>
      <point x="977.667" y="790"/>
      <point x="953.333" y="780.833"/>
      <point x="928" y="762.5" type="curve" smooth="yes"/>
      <point x="902.667" y="744.167"/>
      <point x="877.833" y="720.167"/>
      <point x="853.5" y="690.5" type="curve" smooth="yes"/>
      <point x="829.167" y="660.833"/>
      <point x="805.833" y="627.167"/>
      <point x="783.5" y="589.5" type="curve" smooth="yes"/>
      <point x="761.167" y="551.833"/>
      <point x="741.667" y="513.667"/>
      <point x="725" y="475" type="curve" smooth="yes"/>
      <point x="708.333" y="436.333"/>
      <point x="695" y="398.5"/>
      <point x="685" y="361.5" type="curve" smooth="yes"/>
      <point x="675" y="324.5"/>
      <point x="670" y="292.333"/>
      <point x="670" y="265" type="curve" smooth="yes"/>
      <point x="670" y="235.667"/>
      <point x="676.5" y="210.5"/>
      <point x="689.5" y="189.5" type="curve" smooth="yes"/>
      <point x="702.5" y="168.5"/>
      <point x="721.667" y="158"/>
      <point x="747" y="158" type="curve" smooth="yes"/>
      <point x="774.333" y="158"/>
      <point x="801.667" y="166.333"/>
      <point x="829" y="183" type="curve" smooth="yes"/>
      <point x="856.333" y="199.667"/>
      <point x="882.833" y="221.833"/>
      <point x="908.5" y="249.5" type="curve" smooth="yes"/>
      <point x="934.167" y="277.167"/>
      <point x="958" y="309"/>
      <point x="980" y="345" type="curve" smooth="yes"/>
      <point x="1002" y="381"/>
      <point x="1021.33" y="418.333"/>
      <point x="1038" y="457" type="curve" smooth="yes"/>
      <point x="1054.67" y="495.667"/>
      <point x="1067.67" y="534.333"/>
      <point x="1077" y="573" type="curve" smooth="yes"/>
      <point x="1086.33" y="611.667"/>
      <point x="1091" y="647.667"/>
    </contour>
    <contour>
      <point x="1131" y="772" type="line"/>
      <point x="1131" y="773" type="line"/>
    </contour>
  </outline>
</glyph>
<glyph name="A" format="2">
  <advance width="1733"/>
  <unicode hex="0041"/>
  <outline>
    <contour>
      <point x="1085" y="540" type="line"/>
      <point x="540" y="540" type="line"/>
      <point x="522" y="494.667"/>
      <point x="502" y="449.5"/>
      <point x="480" y="404.5" type="curve" smooth="yes"/>
      <point x="458" y="359.5"/>
      <point x="437.333" y="313.667"/>
      <point x="418" y="267" type="curve" smooth="yes"/>
      <point x="410.667" y="249"/>
      <point x="404.833" y="231.833"/>
      <point x="400.5" y="215.5" type="curve" smooth="yes"/>
      <point x="396.167" y="199.167"/>
      <point x="394" y="183.333"/>
      <point x="394" y="168" type="curve" smooth="yes"/>
      <point x="394" y="132.667"/>
      <point x="409.333" y="106.833"/>
      <point x="440" y="90.5" type="curve" smooth="yes"/>
      <point x="470.667" y="74.1667"/>
      <point x="512.333" y="63.6667"/>
      <point x="565" y="59" type="curve"/>
      <point x="565" y="0" type="line"/>
      <point x="80" y="0" type="line"/>
      <point x="80" y="58" type="line"/>
      <point x="116" y="64.6667"/>
      <point x="144.833" y="72.6667"/>
      <point x="166.5" y="82" type="curve" smooth="yes"/>
      <point x="188.167" y="91.3333"/>
      <point x="206.833" y="103.667"/>
      <point x="222.5" y="119" type="curve" smooth="yes"/>
      <point x="238.167" y="134.333"/>
      <point x="252.167" y="153.667"/>
      <point x="264.5" y="177" type="curve" smooth="yes"/>
      <point x="276.833" y="200.333"/>
      <point x="291.333" y="229.667"/>
      <point x="308" y="265" type="curve"/>
      <point x="307" y="264" type="line"/>
      <point x="839" y="1507" type="line"/>
      <point x="883" y="1507" type="line"/>
      <point x="1386" y="298" type="line"/>
      <point x="1406" y="258"/>
      <point x="1424.83" y="223.333"/>
      <point x="1442.5" y="194" type="curve" smooth="yes"/>
      <point x="1460.17" y="164.667"/>
      <point x="1478.67" y="140.5"/>
      <point x="1498" y="121.5" type="curve" smooth="yes"/>
      <point x="1517.33" y="102.5"/>
      <point x="1538.67" y="88"/>
      <point x="1562" y="78" type="curve" smooth="yes"/>
      <point x="1585.33" y="68"/>
      <point x="1612" y="62.3333"/>
      <point x="1642" y="61" type="curve"/>
      <point x="1642" y="0" type="line"/>
      <point x="1087" y="0" type="line"/>
      <point x="1087" y="61" type="line"/>
      <point x="1115" y="62.3333"/>
      <point x="1138.33" y="65.5"/>
      <point x="1157" y="70.5" type="curve" smooth="yes"/>
      <point x="1175.67" y="75.5"/>
      <point x="1190.83" y="81.6667"/>
      <point x="1202.5" y="89" type="curve" smooth="yes"/>
      <point x="1214.17" y="96.3333"/>
      <point x="1222.33" y="104.5"/>
      <point x="1227" y="113.5" type="curve" smooth="yes"/>
      <point x="1231.67" y="122.5"/>
      <point x="1234" y="132"/>
      <point x="1234" y="142" type="curve" smooth="yes"/>
      <point x="1234" y="159.333"/>
      <point x="1230.83" y="179.5"/>
      <point x="1224.5" y="202.5" type="curve" smooth="yes"/>
      <point x="1218.17" y="225.5"/>
      <point x="1207.67" y="254"/>
      <point x="1193" y="288" type="curve" smooth="yes"/>
    </contour>
    <contour>
      <point x="1052" y="629" type="line"/>
      <point x="817" y="1190" type="line"/>
      <point x="576" y="629" type="line"/>
    </contour>
  </outline>
</glyph>
<glyph name="B" format="2">
  <advance width="1423"/>
  <unicode hex="0042"/>
  <outline>
    <contour>
      <point x="1228" y="1108" type="curve" smooth="yes"/>
      <point x="1228" y="1074"/>
      <point x="1221.83" y="1040.17"/>
      <point x="1209.5" y="1006.5" type="curve" smooth="yes"/>
      <point x="1197.17" y="972.833"/>
      <point x="1179.67" y="941.167"/>
      <point x="1157" y="911.5" type="curve" smooth="yes"/>
      <point x="1134.33" y="881.833"/>
      <point x="1107.17" y="854.833"/>
      <point x="1075.5" y="830.5" type="curve" smooth="yes"/>
      <point x="1043.83" y="806.167"/>
      <point x="1008.67" y="786"/>
      <point x="970" y="770" type="curve"/>
      <point x="1067.33" y="733.333"/>
      <point x="1143.5" y="685.167"/>
      <point x="1198.5" y="625.5" type="curve" smooth="yes"/>
      <point x="1253.5" y="565.833"/>
      <point x="1281" y="496"/>
      <point x="1281" y="416" type="curve" smooth="yes"/>
      <point x="1280.33" y="359.333"/>
      <point x="1271.83" y="309.833"/>
      <point x="1255.5" y="267.5" type="curve" smooth="yes"/>
      <point x="1239.17" y="225.167"/>
      <point x="1217.17" y="188.333"/>
      <point x="1189.5" y="157" type="curve" smooth="yes"/>
      <point x="1161.83" y="125.667"/>
      <point x="1129.33" y="99.8333"/>
      <point x="1092" y="79.5" type="curve" smooth="yes"/>
      <point x="1054.67" y="59.1667"/>
      <point x="1014.5" y="43"/>
      <point x="971.5" y="31" type="curve" smooth="yes"/>
      <point x="928.5" y="19"/>
      <point x="883.5" y="10.6667"/>
      <point x="836.5" y="6" type="curve" smooth="yes"/>
      <point x="789.5" y="1.33333"/>
      <point x="743" y="-0.666667"/>
      <point x="697" y="0" type="curve" smooth="yes"/>
      <point x="100" y="0" type="line"/>
      <point x="100" y="63" type="line"/>
      <point x="142" y="63" type="line" smooth="yes"/>
      <point x="164.667" y="63"/>
      <point x="184.667" y="65.3333"/>
      <point x="202" y="70" type="curve" smooth="yes"/>
      <point x="219.333" y="74.6667"/>
      <point x="233.833" y="84.5"/>
      <point x="245.5" y="99.5" type="curve" smooth="yes"/>
      <point x="257.167" y="114.5"/>
      <point x="265.833" y="135.5"/>
      <point x="271.5" y="162.5" type="curve" smooth="yes"/>
      <point x="277.167" y="189.5"/>
      <point x="280" y="225.667"/>
      <point x="280" y="271" type="curve" smooth="yes"/>
      <point x="280" y="1228" type="line" smooth="yes"/>
      <point x="280" y="1275.33"/>
      <point x="276.667" y="1313"/>
      <point x="270" y="1341" type="curve" smooth="yes"/>
      <point x="263.333" y="1369"/>
      <point x="254" y="1390.17"/>
      <point x="242" y="1404.5" type="curve" smooth="yes"/>
      <point x="230" y="1418.83"/>
      <point x="215.5" y="1428.17"/>
      <point x="198.5" y="1432.5" type="curve" smooth="yes"/>
      <point x="181.5" y="1436.83"/>
      <point x="162.667" y="1439"/>
      <point x="142" y="1439" type="curve" smooth="yes"/>
      <point x="100" y="1439" type="line"/>
      <point x="100" y="1505" type="line"/>
      <point x="639" y="1505" type="line" smooth="yes"/>
      <point x="729" y="1505"/>
      <point x="810" y="1496.83"/>
      <point x="882" y="1480.5" type="curve" smooth="yes"/>
      <point x="954" y="1464.17"/>
      <point x="1015.5" y="1439.5"/>
      <point x="1066.5" y="1406.5" type="curve" smooth="yes"/>
      <point x="1117.5" y="1373.5"/>
      <point x="1156.83" y="1332.17"/>
      <point x="1184.5" y="1282.5" type="curve" smooth="yes"/>
      <point x="1212.17" y="1232.83"/>
      <point x="1226.67" y="1174.67"/>
    </contour>
    <contour>
      <point x="460" y="836" type="line"/>
      <point x="485.333" y="832"/>
      <point x="513.333" y="828.5"/>
      <point x="544" y="825.5" type="curve" smooth="yes"/>
      <point x="574.667" y="822.5"/>
      <point x="608.667" y="821"/>
      <point x="646" y="821" type="curve" smooth="yes"/>
      <point x="716.667" y="821"/>
      <point x="776.833" y="828.333"/>
      <point x="826.5" y="843" type="curve" smooth="yes"/>
      <point x="876.167" y="857.667"/>
      <point x="916.333" y="878.333"/>
      <point x="947" y="905" type="curve" smooth="yes"/>
      <point x="977.667" y="931.667"/>
      <point x="1000" y="963"/>
      <point x="1014" y="999" type="curve" smooth="yes"/>
      <point x="1028" y="1035"/>
      <point x="1035" y="1074.67"/>
      <point x="1035" y="1118" type="curve" smooth="yes"/>
      <point x="1033.67" y="1214.67"/>
      <point x="999.833" y="1288.83"/>
      <point x="933.5" y="1340.5" type="curve" smooth="yes"/>
      <point x="867.167" y="1392.17"/>
      <point x="768.333" y="1418.67"/>
      <point x="637" y="1420" type="curve" smooth="yes"/>
      <point x="603" y="1420"/>
      <point x="572" y="1418.17"/>
      <point x="544" y="1414.5" type="curve" smooth="yes"/>
      <point x="516" y="1410.83"/>
      <point x="488" y="1406"/>
      <point x="460" y="1400" type="curve"/>
    </contour>
    <contour>
      <point x="460" y="112" type="line"/>
      <point x="502" y="103.333"/>
      <point x="540.833" y="96.6667"/>
      <point x="576.5" y="92" type="curve" smooth="yes"/>
      <point x="612.167" y="87.3333"/>
      <point x="650.333" y="85"/>
      <point x="691" y="85" type="curve" smooth="yes"/>
      <point x="755" y="85"/>
      <point x="811.333" y="92.5"/>
      <point x="860" y="107.5" type="curve" smooth="yes"/>
      <point x="908.667" y="122.5"/>
      <point x="949.5" y="144"/>
      <point x="982.5" y="172" type="curve" smooth="yes"/>
      <point x="1015.5" y="200"/>
      <point x="1040.5" y="233.833"/>
      <point x="1057.5" y="273.5" type="curve" smooth="yes"/>
      <point x="1074.5" y="313.167"/>
      <point x="1083" y="357.667"/>
      <point x="1083" y="407" type="curve" smooth="yes"/>
      <point x="1083" y="445.667"/>
      <point x="1074" y="484.5"/>
      <point x="1056" y="523.5" type="curve" smooth="yes"/>
      <point x="1038" y="562.5"/>
      <point x="1011" y="597.5"/>
      <point x="975" y="628.5" type="curve" smooth="yes"/>
      <point x="939" y="659.5"/>
      <point x="894.167" y="684.833"/>
      <point x="840.5" y="704.5" type="curve" smooth="yes"/>
      <point x="786.833" y="724.167"/>
      <point x="724.667" y="733.667"/>
      <point x="654" y="733" type="curve" smooth="yes"/>
      <point x="606" y="733"/>
      <point x="567" y="732.333"/>
      <point x="537" y="731" type="curve" smooth="yes"/>
      <point x="507" y="729.667"/>
      <point x="481.333" y="728.333"/>
      <point x="460" y="727" type="curve"/>
    </contour>
  </outline>
</glyph>
<glyph name="C" format="2">
  <advance width="763"/>
  <unicode hex="0043"/>
  <outline>
    <contour>
      <point x="661" y="740" type="line"/>
      <point x="677" y="484" type="line"/>
      <point x="640" y="484" type="line"/>
      <point x="630" y="520"/>
      <point x="618" y="551"/>
      <point x="603" y="577" type="curve" smooth="yes"/>
      <point x="587" y="604"/>
      <point x="569" y="625"/>
      <point x="549" y="642" type="curve" smooth="yes"/>
      <point x="529" y="659"/>
      <point x="508" y="671"/>
      <point x="484" y="680" type="curve" smooth="yes"/>
      <point x="460" y="688"/>
      <point x="435" y="692"/>
      <point x="408" y="692" type="curve" smooth="yes"/>
      <point x="373" y="691"/>
      <point x="340" y="684"/>
      <point x="309" y="669" type="curve" smooth="yes"/>
      <point x="278" y="654"/>
      <point x="251" y="632"/>
      <point x="229" y="603" type="curve" smooth="yes"/>
      <point x="205" y="573"/>
      <point x="187" y="536"/>
      <point x="174" y="492" type="curve" smooth="yes"/>
      <point x="161" y="447"/>
      <point x="154" y="395"/>
      <point x="154" y="333" type="curve" smooth="yes"/>
      <point x="154" y="287"/>
      <point x="161" y="247"/>
      <point x="175" y="211" type="curve" smooth="yes"/>
      <point x="189" y="175"/>
      <point x="208" y="146"/>
      <point x="233" y="121" type="curve" smooth="yes"/>
      <point x="257" y="97"/>
      <point x="286" y="78"/>
      <point x="319" y="64" type="curve" smooth="yes"/>
      <point x="352" y="51"/>
      <point x="388" y="43"/>
      <point x="426" y="42" type="curve"/>
      <point x="447" y="42"/>
      <point x="467" y="44"/>
      <point x="486" y="49" type="curve" smooth="yes"/>
      <point x="505" y="54"/>
      <point x="524" y="63"/>
      <point x="543" y="74" type="curve" smooth="yes"/>
      <point x="563" y="86"/>
      <point x="582" y="102"/>
      <point x="601" y="121" type="curve" smooth="yes"/>
      <point x="620" y="141"/>
      <point x="640" y="166"/>
      <point x="661" y="196" type="curve"/>
      <point x="695" y="176" type="line"/>
      <point x="659" y="112"/>
      <point x="615" y="64"/>
      <point x="563" y="32" type="curve" smooth="yes"/>
      <point x="512" y="1"/>
      <point x="453" y="-16"/>
      <point x="385" y="-16" type="curve"/>
      <point x="335" y="-15"/>
      <point x="291" y="-5"/>
      <point x="250" y="13" type="curve" smooth="yes"/>
      <point x="210" y="32"/>
      <point x="175" y="57"/>
      <point x="146" y="90" type="curve" smooth="yes"/>
      <point x="117" y="123"/>
      <point x="95" y="161"/>
      <point x="79" y="206" type="curve" smooth="yes"/>
      <point x="63" y="251"/>
      <point x="55" y="301"/>
      <point x="55" y="355" type="curve" smooth="yes"/>
      <point x="55" y="388"/>
      <point x="58" y="419"/>
      <point x="65" y="451" type="curve" smooth="yes"/>
      <point x="72" y="483"/>
      <point x="82" y="513"/>
      <point x="95" y="541" type="curve" smooth="yes"/>
      <point x="108" y="570"/>
      <point x="124" y="596"/>
      <point x="143" y="620" type="curve" smooth="yes"/>
      <point x="162" y="645"/>
      <point x="185" y="666"/>
      <point x="209" y="684" type="curve" smooth="yes"/>
      <point x="234" y="701"/>
      <point x="262" y="715"/>
      <point x="292" y="725" type="curve" smooth="yes"/>
      <point x="322" y="735"/>
      <point x="355" y="740"/>
      <point x="391" y="740" type="curve" smooth="yes"/>
      <point x="419" y="740"/>
      <point x="448" y="737"/>
      <point x="477" y="731" type="curve" smooth="yes"/>
      <point x="505" y="725"/>
      <point x="535" y="714"/>
      <point x="565" y="700" type="curve" smooth="yes"/>
      <point x="576" y="693"/>
      <point x="584" y="690"/>
      <point x="589" y="690" type="curve" smooth="yes"/>
      <point x="597" y="690"/>
      <point x="604" y="695"/>
      <point x="610" y="705" type="curve" smooth="yes"/>
      <point x="616" y="715"/>
      <point x="620" y="727"/>
      <point x="624" y="740" type="curve"/>
    </contour>
  </outline>
</glyph>
<glyph name="D" format="2">
  <advance width="750"/>
  <unicode hex="0044"/>
  <outline>
    <contour>
      <point x="27" y="0" type="line"/>
      <point x="27" y="30" type="line"/>
      <point x="53" y="30" type="line" smooth="yes"/>
      <point x="65" y="30"/>
      <point x="75" y="31"/>
      <point x="83" y="33" type="curve" smooth="yes"/>
      <point x="92" y="36"/>
      <point x="99" y="41"/>
      <point x="104" y="48" type="curve" smooth="yes"/>
      <point x="110" y="56"/>
      <point x="115" y="66"/>
      <point x="117" y="79" type="curve" smooth="yes"/>
      <point x="120" y="92"/>
      <point x="121" y="110"/>
      <point x="121" y="132" type="curve" smooth="yes"/>
      <point x="121" y="603" type="line" smooth="yes"/>
      <point x="121" y="626"/>
      <point x="120" y="645"/>
      <point x="117" y="658" type="curve" smooth="yes"/>
      <point x="114" y="671"/>
      <point x="109" y="681"/>
      <point x="104" y="688" type="curve" smooth="yes"/>
      <point x="98" y="695"/>
      <point x="91" y="699"/>
      <point x="83" y="701" type="curve" smooth="yes"/>
      <point x="74" y="702"/>
      <point x="64" y="703"/>
      <point x="53" y="703" type="curve" smooth="yes"/>
      <point x="27" y="703" type="line"/>
      <point x="27" y="735" type="line"/>
      <point x="289" y="735" type="line" smooth="yes"/>
      <point x="359" y="735"/>
      <point x="420" y="726"/>
      <point x="471" y="708" type="curve" smooth="yes"/>
      <point x="521" y="690"/>
      <point x="563" y="666"/>
      <point x="596" y="634" type="curve" smooth="yes"/>
      <point x="629" y="603"/>
      <point x="653" y="564"/>
      <point x="669" y="521" type="curve" smooth="yes"/>
      <point x="685" y="477"/>
      <point x="692" y="428"/>
      <point x="692" y="376" type="curve" smooth="yes"/>
      <point x="692" y="322"/>
      <point x="685" y="272"/>
      <point x="669" y="226" type="curve" smooth="yes"/>
      <point x="654" y="180"/>
      <point x="631" y="141"/>
      <point x="600" y="107" type="curve" smooth="yes"/>
      <point x="569" y="73"/>
      <point x="530" y="47"/>
      <point x="483" y="28" type="curve" smooth="yes"/>
      <point x="436" y="9"/>
      <point x="381" y="0"/>
      <point x="317" y="0" type="curve" smooth="yes"/>
    </contour>
    <contour>
      <point x="209" y="50" type="line"/>
      <point x="231" y="46"/>
      <point x="250" y="43"/>
      <point x="266" y="41" type="curve" smooth="yes"/>
      <point x="282" y="39"/>
      <point x="298" y="38"/>
      <point x="313" y="38" type="curve" smooth="yes"/>
      <point x="353" y="38"/>
      <point x="389" y="46"/>
      <point x="423" y="62" type="curve" smooth="yes"/>
      <point x="457" y="78"/>
      <point x="487" y="101"/>
      <point x="512" y="131" type="curve" smooth="yes"/>
      <point x="537" y="160"/>
      <point x="557" y="195"/>
      <point x="571" y="236" type="curve" smooth="yes"/>
      <point x="585" y="277"/>
      <point x="592" y="322"/>
      <point x="592" y="372" type="curve" smooth="yes"/>
      <point x="592" y="420"/>
      <point x="585" y="464"/>
      <point x="571" y="504" type="curve" smooth="yes"/>
      <point x="557" y="543"/>
      <point x="537" y="577"/>
      <point x="512" y="605" type="curve" smooth="yes"/>
      <point x="486" y="633"/>
      <point x="457" y="655"/>
      <point x="422" y="670" type="curve" smooth="yes"/>
      <point x="388" y="686"/>
      <point x="351" y="693"/>
      <point x="310" y="693" type="curve" smooth="yes"/>
      <point x="281" y="693"/>
      <point x="248" y="688"/>
      <point x="209" y="678" type="curve"/>
    </contour>
  </outline>
</glyph>
<glyph name="E" format="2">
  <advance width="1402"/>
  <unicode hex="0045"/>
  <outline>
    <contour>
      <point x="454" y="1420" type="line"/>
      <point x="454" y="827" type="line"/>
      <point x="759" y="827" type="line" smooth="yes"/>
      <point x="801" y="827"/>
      <point x="836.833" y="829.667"/>
      <point x="866.5" y="835" type="curve" smooth="yes"/>
      <point x="896.167" y="840.333"/>
      <point x="920.333" y="849.667"/>
      <point x="939" y="863" type="curve" smooth="yes"/>
      <point x="957.667" y="876.333"/>
      <point x="971.5" y="894.833"/>
      <point x="980.5" y="918.5" type="curve" smooth="yes"/>
      <point x="989.5" y="942.167"/>
      <point x="994.667" y="972.667"/>
      <point x="996" y="1010" type="curve"/>
      <point x="1054" y="1010" type="line"/>
      <point x="1054" y="547" type="line"/>
      <point x="996" y="547" type="line"/>
      <point x="990" y="589.667"/>
      <point x="982.5" y="623.667"/>
      <point x="973.5" y="649" type="curve" smooth="yes"/>
      <point x="964.5" y="674.333"/>
      <point x="951.333" y="693.333"/>
      <point x="934" y="706" type="curve" smooth="yes"/>
      <point x="916.667" y="718.667"/>
      <point x="894" y="726.833"/>
      <point x="866" y="730.5" type="curve" smooth="yes"/>
      <point x="838" y="734.167"/>
      <point x="802.333" y="736"/>
      <point x="759" y="736" type="curve" smooth="yes"/>
      <point x="454" y="736" type="line"/>
      <point x="454" y="216" type="line" smooth="yes"/>
      <point x="454" y="187.333"/>
      <point x="454.5" y="164.167"/>
      <point x="455.5" y="146.5" type="curve" smooth="yes"/>
      <point x="456.5" y="128.833"/>
      <point x="460.333" y="115"/>
      <point x="467" y="105" type="curve" smooth="yes"/>
      <point x="473.667" y="95"/>
      <point x="484" y="88.1667"/>
      <point x="498" y="84.5" type="curve" smooth="yes"/>
      <point x="512" y="80.8333"/>
      <point x="532" y="79"/>
      <point x="558" y="79" type="curve" smooth="yes"/>
      <point x="806" y="79" type="line"/>
      <point x="864" y="81.6667"/>
      <point x="913.5" y="88.3333"/>
      <point x="954.5" y="99" type="curve" smooth="yes"/>
      <point x="995.5" y="109.667"/>
      <point x="1032" y="125.167"/>
      <point x="1064" y="145.5" type="curve" smooth="yes"/>
      <point x="1096" y="165.833"/>
      <point x="1125.33" y="192"/>
      <point x="1152" y="224" type="curve" smooth="yes"/>
      <point x="1178.67" y="256"/>
      <point x="1206.67" y="295"/>
      <point x="1236" y="341" type="curve"/>
      <point x="1305" y="341" type="line"/>
      <point x="1191" y="0" type="line"/>
      <point x="99" y="0" type="line"/>
      <point x="99" y="61" type="line"/>
      <point x="135" y="61" type="line" smooth="yes"/>
      <point x="159.667" y="61"/>
      <point x="180.833" y="63.6667"/>
      <point x="198.5" y="69" type="curve" smooth="yes"/>
      <point x="216.167" y="74.3333"/>
      <point x="230.833" y="84.6667"/>
      <point x="242.5" y="100" type="curve" smooth="yes"/>
      <point x="254.167" y="115.333"/>
      <point x="262.667" y="136.667"/>
      <point x="268" y="164" type="curve" smooth="yes"/>
      <point x="273.333" y="191.333"/>
      <point x="276" y="227"/>
      <point x="276" y="271" type="curve" smooth="yes"/>
      <point x="276" y="1234" type="line" smooth="yes"/>
      <point x="276" y="1286.67"/>
      <point x="273.167" y="1327.17"/>
      <point x="267.5" y="1355.5" type="curve" smooth="yes"/>
      <point x="261.833" y="1383.83"/>
      <point x="253.167" y="1404.5"/>
      <point x="241.5" y="1417.5" type="curve" smooth="yes"/>
      <point x="229.833" y="1430.5"/>
      <point x="215.167" y="1438"/>
      <point x="197.5" y="1440" type="curve" smooth="yes"/>
      <point x="179.833" y="1442"/>
      <point x="159" y="1443"/>
      <point x="135" y="1443" type="curve" smooth="yes"/>
      <point x="99" y="1443" type="line"/>
      <point x="99" y="1505" type="line"/>
      <point x="1174" y="1505" type="line"/>
      <point x="1174" y="1192" type="line"/>
      <point x="1109" y="1192" type="line"/>
      <point x="1099" y="1244"/>
      <point x="1088" y="1285"/>
      <point x="1076" y="1315" type="curve" smooth="yes"/>
      <point x="1064" y="1345"/>
      <point x="1048.33" y="1367.83"/>
      <point x="1029" y="1383.5" type="curve" smooth="yes"/>
      <point x="1009.67" y="1399.17"/>
      <point x="985.167" y="1409.17"/>
      <point x="955.5" y="1413.5" type="curve" smooth="yes"/>
      <point x="925.833" y="1417.83"/>
      <point x="888" y="1420"/>
      <point x="842" y="1420" type="curve" smooth="yes"/>
    </contour>
  </outline>
</glyph>
<glyph name="F" format="2">
  <advance width="1240"/>
  <unicode hex="0046"/>
  <outline>
    <contour>
      <point x="440" y="1412" type="line"/>
      <point x="440" y="855" type="line"/>
      <point x="689" y="855" type="line" smooth="yes"/>
      <point x="716" y="854"/>
      <point x="741" y="856"/>
      <point x="763" y="859" type="curve" smooth="yes"/>
      <point x="785" y="862"/>
      <point x="804" y="870"/>
      <point x="820" y="882" type="curve" smooth="yes"/>
      <point x="837" y="894"/>
      <point x="851" y="912"/>
      <point x="862" y="936" type="curve" smooth="yes"/>
      <point x="873" y="960"/>
      <point x="882" y="992"/>
      <point x="887" y="1033" type="curve"/>
      <point x="944" y="1033" type="line"/>
      <point x="944" y="569" type="line"/>
      <point x="883" y="569" type="line"/>
      <point x="881" y="609"/>
      <point x="875" y="641"/>
      <point x="866" y="664" type="curve" smooth="yes"/>
      <point x="856" y="687"/>
      <point x="842" y="706"/>
      <point x="826" y="718" type="curve" smooth="yes"/>
      <point x="808" y="732"/>
      <point x="788" y="740"/>
      <point x="765" y="745" type="curve" smooth="yes"/>
      <point x="742" y="750"/>
      <point x="716" y="753"/>
      <point x="687" y="756" type="curve"/>
      <point x="440" y="756" type="line"/>
      <point x="440" y="271" type="line" smooth="yes"/>
      <point x="439" y="238"/>
      <point x="441" y="208"/>
      <point x="444" y="182" type="curve" smooth="yes"/>
      <point x="447" y="156"/>
      <point x="454" y="134"/>
      <point x="464" y="116" type="curve" smooth="yes"/>
      <point x="475" y="99"/>
      <point x="489" y="85"/>
      <point x="508" y="76" type="curve" smooth="yes"/>
      <point x="527" y="67"/>
      <point x="551" y="62"/>
      <point x="580" y="61" type="curve" smooth="yes"/>
      <point x="619" y="61" type="line"/>
      <point x="619" y="0" type="line"/>
      <point x="77" y="0" type="line"/>
      <point x="77" y="61" type="line"/>
      <point x="117" y="61" type="line" smooth="yes"/>
      <point x="139" y="61"/>
      <point x="159" y="63"/>
      <point x="176" y="68" type="curve" smooth="yes"/>
      <point x="193" y="73"/>
      <point x="208" y="82"/>
      <point x="219" y="97" type="curve" smooth="yes"/>
      <point x="230" y="112"/>
      <point x="239" y="133"/>
      <point x="245" y="160" type="curve" smooth="yes"/>
      <point x="251" y="188"/>
      <point x="254" y="225"/>
      <point x="254" y="271" type="curve" smooth="yes"/>
      <point x="254" y="1234" type="line" smooth="yes"/>
      <point x="254" y="1265"/>
      <point x="252" y="1294"/>
      <point x="249" y="1320" type="curve" smooth="yes"/>
      <point x="246" y="1345"/>
      <point x="239" y="1367"/>
      <point x="230" y="1386" type="curve" smooth="yes"/>
      <point x="220" y="1404"/>
      <point x="206" y="1418"/>
      <point x="188" y="1428" type="curve" smooth="yes"/>
      <point x="170" y="1438"/>
      <point x="146" y="1443"/>
      <point x="117" y="1443" type="curve" smooth="yes"/>
      <point x="77" y="1443" type="line"/>
      <point x="77" y="1505" type="line"/>
      <point x="1118" y="1505" type="line"/>
      <point x="1118" y="1192" type="line"/>
      <point x="1057" y="1192" type="line"/>
      <point x="1042" y="1240"/>
      <point x="1026" y="1278"/>
      <point x="1010" y="1307" type="curve" smooth="yes"/>
      <point x="993" y="1336"/>
      <point x="973" y="1358"/>
      <point x="950" y="1373" type="curve" smooth="yes"/>
      <point x="927" y="1388"/>
      <point x="899" y="1398"/>
      <point x="866" y="1404" type="curve" smooth="yes"/>
      <point x="833" y="1408"/>
      <point x="794" y="1411"/>
      <point x="747" y="1412" type="curve" smooth="yes"/>
    </contour>
  </outline>
</glyph>
<glyph name="G" format="2">
  <advance width="1586"/>
  <unicode hex="0047"/>
  <outline>
    <contour>
      <point x="1347" y="1516" type="line"/>
      <point x="1347" y="1068" type="line"/>
      <point x="1284" y="1068" type="line"/>
      <point x="1263" y="1134"/>
      <point x="1238" y="1190"/>
      <point x="1210" y="1235" type="curve" smooth="yes"/>
      <point x="1183" y="1280"/>
      <point x="1151" y="1317"/>
      <point x="1116" y="1346" type="curve" smooth="yes"/>
      <point x="1080" y="1374"/>
      <point x="1040" y="1394"/>
      <point x="996" y="1408" type="curve" smooth="yes"/>
      <point x="951" y="1420"/>
      <point x="901" y="1427"/>
      <point x="846" y="1428" type="curve" smooth="yes"/>
      <point x="764" y="1425"/>
      <point x="690" y="1406"/>
      <point x="624" y="1370" type="curve" smooth="yes"/>
      <point x="558" y="1333"/>
      <point x="502" y="1284"/>
      <point x="456" y="1224" type="curve" smooth="yes"/>
      <point x="409" y="1162"/>
      <point x="374" y="1091"/>
      <point x="348" y="1010" type="curve" smooth="yes"/>
      <point x="324" y="929"/>
      <point x="311" y="842"/>
      <point x="311" y="750" type="curve" smooth="yes"/>
      <point x="311" y="671"/>
      <point x="319" y="600"/>
      <point x="334" y="534" type="curve" smooth="yes"/>
      <point x="349" y="470"/>
      <point x="370" y="411"/>
      <point x="396" y="359" type="curve" smooth="yes"/>
      <point x="423" y="307"/>
      <point x="454" y="262"/>
      <point x="490" y="223" type="curve" smooth="yes"/>
      <point x="525" y="184"/>
      <point x="563" y="152"/>
      <point x="604" y="126" type="curve" smooth="yes"/>
      <point x="645" y="101"/>
      <point x="687" y="82"/>
      <point x="731" y="69" type="curve" smooth="yes"/>
      <point x="775" y="56"/>
      <point x="819" y="50"/>
      <point x="862" y="50" type="curve" smooth="yes"/>
      <point x="912" y="50"/>
      <point x="961" y="56"/>
      <point x="1008" y="69" type="curve" smooth="yes"/>
      <point x="1056" y="82"/>
      <point x="1103" y="100"/>
      <point x="1149" y="123" type="curve"/>
      <point x="1149" y="451" type="line" smooth="yes"/>
      <point x="1149" y="493"/>
      <point x="1147" y="527"/>
      <point x="1144" y="554" type="curve" smooth="yes"/>
      <point x="1140" y="581"/>
      <point x="1131" y="602"/>
      <point x="1118" y="617" type="curve" smooth="yes"/>
      <point x="1105" y="632"/>
      <point x="1085" y="643"/>
      <point x="1060" y="648" type="curve" smooth="yes"/>
      <point x="1035" y="654"/>
      <point x="1000" y="657"/>
      <point x="956" y="657" type="curve"/>
      <point x="956" y="721" type="line"/>
      <point x="1491" y="721" type="line"/>
      <point x="1491" y="657" type="line"/>
      <point x="1448" y="657" type="line" smooth="yes"/>
      <point x="1425" y="657"/>
      <point x="1406" y="654"/>
      <point x="1391" y="648" type="curve" smooth="yes"/>
      <point x="1376" y="643"/>
      <point x="1363" y="632"/>
      <point x="1354" y="617" type="curve" smooth="yes"/>
      <point x="1344" y="602"/>
      <point x="1337" y="581"/>
      <point x="1333" y="554" type="curve" smooth="yes"/>
      <point x="1329" y="527"/>
      <point x="1327" y="493"/>
      <point x="1327" y="451" type="curve" smooth="yes"/>
      <point x="1327" y="102" type="line"/>
      <point x="1285" y="81"/>
      <point x="1248" y="63"/>
      <point x="1214" y="46" type="curve" smooth="yes"/>
      <point x="1182" y="29"/>
      <point x="1148" y="15"/>
      <point x="1114" y="4" type="curve" smooth="yes"/>
      <point x="1079" y="-8"/>
      <point x="1042" y="-17"/>
      <point x="1002" y="-24" type="curve" smooth="yes"/>
      <point x="962" y="-30"/>
      <point x="915" y="-33"/>
      <point x="860" y="-33" type="curve" smooth="yes"/>
      <point x="751" y="-33"/>
      <point x="651" y="-15"/>
      <point x="560" y="22" type="curve" smooth="yes"/>
      <point x="469" y="59"/>
      <point x="390" y="110"/>
      <point x="324" y="176" type="curve" smooth="yes"/>
      <point x="258" y="242"/>
      <point x="206" y="321"/>
      <point x="170" y="412" type="curve" smooth="yes"/>
      <point x="132" y="504"/>
      <point x="114" y="605"/>
      <point x="114" y="714" type="curve" smooth="yes"/>
      <point x="114" y="785"/>
      <point x="121" y="854"/>
      <point x="135" y="920" type="curve" smooth="yes"/>
      <point x="149" y="988"/>
      <point x="170" y="1050"/>
      <point x="198" y="1109" type="curve" smooth="yes"/>
      <point x="225" y="1168"/>
      <point x="259" y="1222"/>
      <point x="300" y="1271" type="curve" smooth="yes"/>
      <point x="340" y="1320"/>
      <point x="386" y="1363"/>
      <point x="440" y="1398" type="curve" smooth="yes"/>
      <point x="492" y="1434"/>
      <point x="551" y="1462"/>
      <point x="616" y="1483" type="curve" smooth="yes"/>
      <point x="681" y="1504"/>
      <point x="751" y="1515"/>
      <point x="827" y="1516" type="curve" smooth="yes"/>
      <point x="853" y="1516"/>
      <point x="878" y="1514"/>
      <point x="902" y="1511" type="curve" smooth="yes"/>
      <point x="926" y="1508"/>
      <point x="950" y="1503"/>
      <point x="976" y="1496" type="curve" smooth="yes"/>
      <point x="1000" y="1490"/>
      <point x="1027" y="1483"/>
      <point x="1055" y="1474" type="curve" smooth="yes"/>
      <point x="1083" y="1465"/>
      <point x="1114" y="1455"/>
      <point x="1147" y="1444" type="curve" smooth="yes"/>
      <point x="1157" y="1438"/>
      <point x="1169" y="1432"/>
      <point x="1183" y="1428" type="curve" smooth="yes"/>
      <point x="1197" y="1422"/>
      <point x="1209" y="1420"/>
      <point x="1219" y="1420" type="curve" smooth="yes"/>
      <point x="1223" y="1420"/>
      <point x="1229" y="1422"/>
      <point x="1236" y="1424" type="curve" smooth="yes"/>
      <point x="1243" y="1428"/>
      <point x="1251" y="1433"/>
      <point x="1258" y="1440" type="curve" smooth="yes"/>
      <point x="1265" y="1447"/>
      <point x="1272" y="1457"/>
      <point x="1278" y="1470" type="curve" smooth="yes"/>
      <point x="1284" y="1482"/>
      <point x="1288" y="1497"/>
      <point x="1291" y="1516" type="curve"/>
    </contour>
  </outline>
</glyph>
<glyph name="H" format="2">
  <advance width="766"/>
  <unicode hex="0048"/>
  <outline>
    <contour>
      <point x="220" y="393" type="line"/>
      <point x="538" y="393" type="line"/>
      <point x="538" y="602" type="line" smooth="yes"/>
      <point x="538" y="618"/>
      <point x="537" y="632"/>
      <point x="536" y="645" type="curve" smooth="yes"/>
      <point x="534" y="657"/>
      <point x="531" y="668"/>
      <point x="526" y="677" type="curve" smooth="yes"/>
      <point x="521" y="687"/>
      <point x="514" y="693"/>
      <point x="505" y="698" type="curve" smooth="yes"/>
      <point x="495" y="703"/>
      <point x="483" y="706"/>
      <point x="468" y="706" type="curve" smooth="yes"/>
      <point x="449" y="706" type="line"/>
      <point x="449" y="736" type="line"/>
      <point x="712" y="736" type="line"/>
      <point x="712" y="706" type="line"/>
      <point x="693" y="706" type="line" smooth="yes"/>
      <point x="682" y="705"/>
      <point x="672" y="704"/>
      <point x="663" y="701" type="curve" smooth="yes"/>
      <point x="655" y="699"/>
      <point x="648" y="693"/>
      <point x="643" y="687" type="curve" smooth="yes"/>
      <point x="638" y="679"/>
      <point x="633" y="668"/>
      <point x="630" y="655" type="curve" smooth="yes"/>
      <point x="627" y="642"/>
      <point x="625" y="624"/>
      <point x="625" y="602" type="curve" smooth="yes"/>
      <point x="625" y="132" type="line" smooth="yes"/>
      <point x="625" y="116"/>
      <point x="626" y="102"/>
      <point x="628" y="89" type="curve" smooth="yes"/>
      <point x="629" y="77"/>
      <point x="633" y="66"/>
      <point x="638" y="57" type="curve" smooth="yes"/>
      <point x="643" y="48"/>
      <point x="650" y="42"/>
      <point x="659" y="37" type="curve" smooth="yes"/>
      <point x="668" y="32"/>
      <point x="679" y="30"/>
      <point x="693" y="30" type="curve" smooth="yes"/>
      <point x="712" y="30" type="line"/>
      <point x="712" y="0" type="line"/>
      <point x="449" y="0" type="line"/>
      <point x="449" y="30" type="line"/>
      <point x="468" y="30" type="line" smooth="yes"/>
      <point x="479" y="30"/>
      <point x="489" y="31"/>
      <point x="498" y="33" type="curve" smooth="yes"/>
      <point x="506" y="35"/>
      <point x="514" y="40"/>
      <point x="520" y="47" type="curve" smooth="yes"/>
      <point x="526" y="54"/>
      <point x="530" y="64"/>
      <point x="533" y="78" type="curve" smooth="yes"/>
      <point x="537" y="91"/>
      <point x="538" y="109"/>
      <point x="538" y="132" type="curve" smooth="yes"/>
      <point x="538" y="349" type="line"/>
      <point x="220" y="349" type="line"/>
      <point x="220" y="132" type="line" smooth="yes"/>
      <point x="220" y="116"/>
      <point x="221" y="102"/>
      <point x="223" y="89" type="curve" smooth="yes"/>
      <point x="225" y="77"/>
      <point x="228" y="66"/>
      <point x="233" y="57" type="curve" smooth="yes"/>
      <point x="238" y="48"/>
      <point x="245" y="42"/>
      <point x="254" y="37" type="curve" smooth="yes"/>
      <point x="263" y="32"/>
      <point x="274" y="30"/>
      <point x="289" y="30" type="curve" smooth="yes"/>
      <point x="309" y="30" type="line"/>
      <point x="309" y="0" type="line"/>
      <point x="43" y="0" type="line"/>
      <point x="43" y="30" type="line"/>
      <point x="63" y="30" type="line" smooth="yes"/>
      <point x="74" y="30"/>
      <point x="84" y="31"/>
      <point x="93" y="33" type="curve" smooth="yes"/>
      <point x="101" y="36"/>
      <point x="108" y="40"/>
      <point x="114" y="47" type="curve" smooth="yes"/>
      <point x="120" y="55"/>
      <point x="124" y="65"/>
      <point x="127" y="78" type="curve" smooth="yes"/>
      <point x="130" y="92"/>
      <point x="131" y="110"/>
      <point x="131" y="132" type="curve" smooth="yes"/>
      <point x="131" y="602" type="line" smooth="yes"/>
      <point x="131" y="618"/>
      <point x="131" y="632"/>
      <point x="129" y="646" type="curve" smooth="yes"/>
      <point x="128" y="658"/>
      <point x="125" y="669"/>
      <point x="120" y="678" type="curve" smooth="yes"/>
      <point x="115" y="687"/>
      <point x="108" y="694"/>
      <point x="99" y="698" type="curve" smooth="yes"/>
      <point x="90" y="703"/>
      <point x="78" y="706"/>
      <point x="63" y="706" type="curve" smooth="yes"/>
      <point x="43" y="706" type="line"/>
      <point x="43" y="736" type="line"/>
      <point x="309" y="736" type="line"/>
      <point x="309" y="706" type="line"/>
      <point x="289" y="706" type="line" smooth="yes"/>
      <point x="276" y="706"/>
      <point x="266" y="705"/>
      <point x="258" y="702" type="curve" smooth="yes"/>
      <point x="250" y="700"/>
      <point x="242" y="695"/>
      <point x="237" y="688" type="curve" smooth="yes"/>
      <point x="231" y="681"/>
      <point x="228" y="670"/>
      <point x="225" y="656" type="curve" smooth="yes"/>
      <point x="222" y="643"/>
      <point x="221" y="625"/>
      <point x="220" y="602" type="curve" smooth="yes"/>
    </contour>
  </outline>
</glyph>
<glyph name="I" format="2">
  <advance width="750"/>
  <unicode hex="0049"/>
  <outline>
    <contour>
      <point x="635" y="61" type="line"/>
      <point x="635" y="0" type="line"/>
      <point x="94" y="0" type="line"/>
      <point x="94" y="61" type="line"/>
      <point x="130" y="61" type="line" smooth="yes"/>
      <point x="153" y="61"/>
      <point x="174" y="63"/>
      <point x="192" y="68" type="curve" smooth="yes"/>
      <point x="210" y="72"/>
      <point x="225" y="81"/>
      <point x="237" y="96" type="curve" smooth="yes"/>
      <point x="249" y="111"/>
      <point x="258" y="132"/>
      <point x="264" y="160" type="curve" smooth="yes"/>
      <point x="271" y="187"/>
      <point x="274" y="224"/>
      <point x="274" y="271" type="curve" smooth="yes"/>
      <point x="274" y="1234" type="line" smooth="yes"/>
      <point x="274" y="1266"/>
      <point x="272" y="1295"/>
      <point x="268" y="1320" type="curve" smooth="yes"/>
      <point x="265" y="1346"/>
      <point x="258" y="1368"/>
      <point x="248" y="1386" type="curve" smooth="yes"/>
      <point x="237" y="1404"/>
      <point x="222" y="1418"/>
      <point x="204" y="1428" type="curve" smooth="yes"/>
      <point x="184" y="1438"/>
      <point x="160" y="1443"/>
      <point x="130" y="1443" type="curve" smooth="yes"/>
      <point x="94" y="1443" type="line"/>
      <point x="94" y="1505" type="line"/>
      <point x="635" y="1505" type="line"/>
      <point x="635" y="1443" type="line"/>
      <point x="596" y="1443" type="line" smooth="yes"/>
      <point x="573" y="1443"/>
      <point x="552" y="1441"/>
      <point x="534" y="1436" type="curve" smooth="yes"/>
      <point x="517" y="1432"/>
      <point x="502" y="1423"/>
      <point x="490" y="1408" type="curve" smooth="yes"/>
      <point x="478" y="1393"/>
      <point x="469" y="1372"/>
      <point x="463" y="1345" type="curve" smooth="yes"/>
      <point x="457" y="1318"/>
      <point x="454" y="1281"/>
      <point x="454" y="1234" type="curve" smooth="yes"/>
      <point x="454" y="271" type="line" smooth="yes"/>
      <point x="454" y="226"/>
      <point x="457" y="189"/>
      <point x="464" y="162" type="curve" smooth="yes"/>
      <point x="471" y="135"/>
      <point x="480" y="114"/>
      <point x="492" y="98" type="curve" smooth="yes"/>
      <point x="505" y="84"/>
      <point x="520" y="74"/>
      <point x="537" y="68" type="curve" smooth="yes"/>
      <point x="554" y="64"/>
      <point x="574" y="61"/>
      <point x="596" y="61" type="curve" smooth="yes"/>
    </contour>
  </outline>
</glyph>
<glyph name="J" format="2">
  <advance width="894"/>
  <unicode hex="004A"/>
  <outline>
    <contour>
      <point x="262" y="1443" type="line"/>
      <point x="262" y="1505" type="line"/>
      <point x="794" y="1505" type="line"/>
      <point x="794" y="1443" type="line"/>
      <point x="757" y="1443" type="line" smooth="yes"/>
      <point x="735" y="1443"/>
      <point x="716" y="1441"/>
      <point x="698" y="1437" type="curve" smooth="yes"/>
      <point x="682" y="1433"/>
      <point x="667" y="1424"/>
      <point x="655" y="1410" type="curve" smooth="yes"/>
      <point x="643" y="1396"/>
      <point x="634" y="1375"/>
      <point x="628" y="1348" type="curve" smooth="yes"/>
      <point x="621" y="1320"/>
      <point x="618" y="1282"/>
      <point x="618" y="1234" type="curve" smooth="yes"/>
      <point x="618" y="454" type="line" smooth="yes"/>
      <point x="618" y="390"/>
      <point x="614" y="328"/>
      <point x="606" y="270" type="curve" smooth="yes"/>
      <point x="598" y="210"/>
      <point x="582" y="158"/>
      <point x="559" y="114" type="curve" smooth="yes"/>
      <point x="536" y="68"/>
      <point x="502" y="33"/>
      <point x="459" y="6" type="curve" smooth="yes"/>
      <point x="416" y="-21"/>
      <point x="359" y="-34"/>
      <point x="288" y="-33" type="curve" smooth="yes"/>
      <point x="253" y="-33"/>
      <point x="220" y="-28"/>
      <point x="192" y="-18" type="curve" smooth="yes"/>
      <point x="162" y="-9"/>
      <point x="138" y="4"/>
      <point x="118" y="21" type="curve" smooth="yes"/>
      <point x="97" y="38"/>
      <point x="81" y="56"/>
      <point x="70" y="78" type="curve" smooth="yes"/>
      <point x="59" y="98"/>
      <point x="53" y="121"/>
      <point x="53" y="144" type="curve" smooth="yes"/>
      <point x="53" y="168"/>
      <point x="56" y="188"/>
      <point x="64" y="204" type="curve" smooth="yes"/>
      <point x="70" y="219"/>
      <point x="80" y="232"/>
      <point x="92" y="242" type="curve" smooth="yes"/>
      <point x="104" y="251"/>
      <point x="118" y="258"/>
      <point x="134" y="262" type="curve" smooth="yes"/>
      <point x="149" y="266"/>
      <point x="166" y="268"/>
      <point x="183" y="268" type="curve" smooth="yes"/>
      <point x="196" y="268"/>
      <point x="208" y="266"/>
      <point x="220" y="262" type="curve" smooth="yes"/>
      <point x="232" y="258"/>
      <point x="244" y="250"/>
      <point x="256" y="240" type="curve" smooth="yes"/>
      <point x="269" y="228"/>
      <point x="281" y="213"/>
      <point x="294" y="194" type="curve" smooth="yes"/>
      <point x="307" y="175"/>
      <point x="320" y="150"/>
      <point x="333" y="119" type="curve" smooth="yes"/>
      <point x="350" y="84"/>
      <point x="366" y="66"/>
      <point x="381" y="66" type="curve" smooth="yes"/>
      <point x="394" y="65"/>
      <point x="408" y="76"/>
      <point x="420" y="102" type="curve" smooth="yes"/>
      <point x="434" y="126"/>
      <point x="441" y="166"/>
      <point x="443" y="220" type="curve" smooth="yes"/>
      <point x="443" y="1234" type="line" smooth="yes"/>
      <point x="443" y="1265"/>
      <point x="442" y="1294"/>
      <point x="438" y="1320" type="curve" smooth="yes"/>
      <point x="436" y="1345"/>
      <point x="429" y="1367"/>
      <point x="420" y="1386" type="curve" smooth="yes"/>
      <point x="410" y="1404"/>
      <point x="396" y="1418"/>
      <point x="378" y="1428" type="curve" smooth="yes"/>
      <point x="359" y="1438"/>
      <point x="335" y="1443"/>
      <point x="304" y="1443" type="curve" smooth="yes"/>
    </contour>
  </outline>
</glyph>
<glyph name="K" format="2">
  <advance width="792"/>
  <unicode hex="004B"/>
  <outline>
    <contour>
      <point x="292" y="386" type="line"/>
      <point x="542" y="146" type="line" smooth="yes"/>
      <point x="563" y="126"/>
      <point x="583" y="108"/>
      <point x="601" y="95" type="curve" smooth="yes"/>
      <point x="619" y="80"/>
      <point x="636" y="69"/>
      <point x="653" y="60" type="curve" smooth="yes"/>
      <point x="669" y="50"/>
      <point x="686" y="43"/>
      <point x="701" y="39" type="curve" smooth="yes"/>
      <point x="717" y="34"/>
      <point x="733" y="31"/>
      <point x="750" y="29" type="curve"/>
      <point x="750" y="0" type="line"/>
      <point x="436" y="0" type="line"/>
      <point x="436" y="30" type="line"/>
      <point x="457" y="30"/>
      <point x="472" y="33"/>
      <point x="480" y="39" type="curve" smooth="yes"/>
      <point x="489" y="45"/>
      <point x="494" y="52"/>
      <point x="494" y="60" type="curve" smooth="yes"/>
      <point x="494" y="67"/>
      <point x="491" y="76"/>
      <point x="484" y="84" type="curve" smooth="yes"/>
      <point x="478" y="93"/>
      <point x="469" y="104"/>
      <point x="458" y="115" type="curve" smooth="yes"/>
      <point x="225" y="341" type="line"/>
      <point x="225" y="132" type="line" smooth="yes"/>
      <point x="225" y="117"/>
      <point x="226" y="104"/>
      <point x="228" y="91" type="curve" smooth="yes"/>
      <point x="229" y="79"/>
      <point x="232" y="68"/>
      <point x="237" y="59" type="curve" smooth="yes"/>
      <point x="242" y="49"/>
      <point x="249" y="42"/>
      <point x="258" y="37" type="curve" smooth="yes"/>
      <point x="267" y="32"/>
      <point x="278" y="30"/>
      <point x="292" y="30" type="curve" smooth="yes"/>
      <point x="312" y="30" type="line"/>
      <point x="312" y="0" type="line"/>
      <point x="49" y="0" type="line"/>
      <point x="49" y="30" type="line"/>
      <point x="68" y="30" type="line" smooth="yes"/>
      <point x="79" y="30"/>
      <point x="89" y="31"/>
      <point x="97" y="33" type="curve" smooth="yes"/>
      <point x="105" y="35"/>
      <point x="113" y="39"/>
      <point x="118" y="46" type="curve" smooth="yes"/>
      <point x="124" y="54"/>
      <point x="128" y="64"/>
      <point x="131" y="77" type="curve" smooth="yes"/>
      <point x="134" y="91"/>
      <point x="136" y="109"/>
      <point x="136" y="132" type="curve" smooth="yes"/>
      <point x="136" y="603" type="line" smooth="yes"/>
      <point x="136" y="618"/>
      <point x="135" y="632"/>
      <point x="134" y="645" type="curve" smooth="yes"/>
      <point x="132" y="657"/>
      <point x="129" y="667"/>
      <point x="124" y="677" type="curve" smooth="yes"/>
      <point x="120" y="686"/>
      <point x="113" y="692"/>
      <point x="104" y="697" type="curve" smooth="yes"/>
      <point x="95" y="702"/>
      <point x="83" y="705"/>
      <point x="68" y="705" type="curve" smooth="yes"/>
      <point x="49" y="705" type="line"/>
      <point x="49" y="735" type="line"/>
      <point x="312" y="735" type="line"/>
      <point x="312" y="705" type="line"/>
      <point x="292" y="705" type="line" smooth="yes"/>
      <point x="281" y="705"/>
      <point x="271" y="704"/>
      <point x="263" y="701" type="curve" smooth="yes"/>
      <point x="255" y="699"/>
      <point x="248" y="694"/>
      <point x="242" y="687" type="curve" smooth="yes"/>
      <point x="237" y="680"/>
      <point x="232" y="669"/>
      <point x="229" y="656" type="curve" smooth="yes"/>
      <point x="227" y="643"/>
      <point x="225" y="625"/>
      <point x="225" y="603" type="curve" smooth="yes"/>
      <point x="225" y="393" type="line"/>
      <point x="415" y="563" type="line" smooth="yes"/>
      <point x="438" y="585"/>
      <point x="456" y="606"/>
      <point x="468" y="625" type="curve" smooth="yes"/>
      <point x="480" y="645"/>
      <point x="486" y="663"/>
      <point x="486" y="679" type="curve" smooth="yes"/>
      <point x="486" y="687"/>
      <point x="483" y="692"/>
      <point x="477" y="697" type="curve" smooth="yes"/>
      <point x="471" y="702"/>
      <point x="460" y="705"/>
      <point x="446" y="705" type="curve" smooth="yes"/>
      <point x="436" y="705" type="line"/>
      <point x="436" y="735" type="line"/>
      <point x="694" y="735" type="line"/>
      <point x="694" y="705" type="line"/>
      <point x="676" y="705"/>
      <point x="660" y="702"/>
      <point x="646" y="696" type="curve" smooth="yes"/>
      <point x="631" y="690"/>
      <point x="617" y="683"/>
      <point x="604" y="673" type="curve" smooth="yes"/>
      <point x="591" y="664"/>
      <point x="579" y="653"/>
      <point x="567" y="643" type="curve" smooth="yes"/>
      <point x="556" y="631"/>
      <point x="545" y="620"/>
      <point x="534" y="609" type="curve" smooth="yes"/>
    </contour>
  </outline>
</glyph>
<glyph name="L" format="2">
  <advance width="1365"/>
  <unicode hex="004C"/>
  <outline>
    <contour>
      <point x="1279" y="397" type="line"/>
      <point x="1176" y="0" type="line"/>
      <point x="97" y="0" type="line"/>
      <point x="97" y="61" type="line"/>
      <point x="137" y="61" type="line" smooth="yes"/>
      <point x="160.333" y="61"/>
      <point x="180.667" y="63.3333"/>
      <point x="198" y="68" type="curve" smooth="yes"/>
      <point x="215.333" y="72.6667"/>
      <point x="229.833" y="82.5"/>
      <point x="241.5" y="97.5" type="curve" smooth="yes"/>
      <point x="253.167" y="112.5"/>
      <point x="261.833" y="134"/>
      <point x="267.5" y="162" type="curve" smooth="yes"/>
      <point x="273.167" y="190"/>
      <point x="276" y="227.333"/>
      <point x="276" y="274" type="curve" smooth="yes"/>
      <point x="276" y="1234" type="line" smooth="yes"/>
      <point x="276" y="1274"/>
      <point x="272.667" y="1307.33"/>
      <point x="266" y="1334" type="curve" smooth="yes"/>
      <point x="259.333" y="1360.67"/>
      <point x="249.833" y="1382.17"/>
      <point x="237.5" y="1398.5" type="curve" smooth="yes"/>
      <point x="225.167" y="1414.83"/>
      <point x="210.5" y="1426.33"/>
      <point x="193.5" y="1433" type="curve" smooth="yes"/>
      <point x="176.5" y="1439.67"/>
      <point x="157.667" y="1443"/>
      <point x="137" y="1443" type="curve" smooth="yes"/>
      <point x="97" y="1443" type="line"/>
      <point x="97" y="1505" type="line"/>
      <point x="669" y="1505" type="line"/>
      <point x="669" y="1443" type="line"/>
      <point x="624" y="1443" type="line" smooth="yes"/>
      <point x="594" y="1443"/>
      <point x="568.333" y="1439.17"/>
      <point x="547" y="1431.5" type="curve" smooth="yes"/>
      <point x="525.667" y="1423.83"/>
      <point x="508.167" y="1410.83"/>
      <point x="494.5" y="1392.5" type="curve" smooth="yes"/>
      <point x="480.833" y="1374.17"/>
      <point x="470.667" y="1349.83"/>
      <point x="464" y="1319.5" type="curve" smooth="yes"/>
      <point x="457.333" y="1289.17"/>
      <point x="454" y="1251.33"/>
      <point x="454" y="1206" type="curve" smooth="yes"/>
      <point x="454" y="184" type="line" smooth="yes"/>
      <point x="454" y="170"/>
      <point x="454.167" y="157.333"/>
      <point x="454.5" y="146" type="curve" smooth="yes"/>
      <point x="454.833" y="134.667"/>
      <point x="457" y="125"/>
      <point x="461" y="117" type="curve" smooth="yes"/>
      <point x="465" y="109"/>
      <point x="471.667" y="102.667"/>
      <point x="481" y="98" type="curve" smooth="yes"/>
      <point x="490.333" y="93.3333"/>
      <point x="503.667" y="91"/>
      <point x="521" y="91" type="curve" smooth="yes"/>
      <point x="772" y="91" type="line" smooth="yes"/>
      <point x="827.333" y="91"/>
      <point x="875.667" y="94"/>
      <point x="917" y="100" type="curve" smooth="yes"/>
      <point x="958.333" y="106"/>
      <point x="995.5" y="119.667"/>
      <point x="1028.5" y="141" type="curve" smooth="yes"/>
      <point x="1061.5" y="162.333"/>
      <point x="1092.17" y="194"/>
      <point x="1120.5" y="236" type="curve" smooth="yes"/>
      <point x="1148.83" y="278"/>
      <point x="1178" y="335"/>
      <point x="1208" y="407" type="curve"/>
    </contour>
  </outline>
</glyph>
<glyph name="M" format="2">
  <advance width="1929"/>
  <unicode hex="004D"/>
  <outline>
    <contour>
      <point x="944" y="0" type="line"/>
      <point x="399" y="1173" type="line"/>
      <point x="399" y="265" type="line" smooth="yes"/>
      <point x="399" y="218"/>
      <point x="402" y="182"/>
      <point x="409" y="154" type="curve" smooth="yes"/>
      <point x="416" y="128"/>
      <point x="425" y="107"/>
      <point x="438" y="93" type="curve" smooth="yes"/>
      <point x="450" y="79"/>
      <point x="465" y="70"/>
      <point x="482" y="66" type="curve" smooth="yes"/>
      <point x="499" y="63"/>
      <point x="519" y="61"/>
      <point x="541" y="61" type="curve" smooth="yes"/>
      <point x="580" y="61" type="line"/>
      <point x="580" y="0" type="line"/>
      <point x="116" y="0" type="line"/>
      <point x="116" y="61" type="line"/>
      <point x="154" y="61" type="line" smooth="yes"/>
      <point x="178" y="61"/>
      <point x="198" y="63"/>
      <point x="216" y="68" type="curve" smooth="yes"/>
      <point x="232" y="72"/>
      <point x="246" y="81"/>
      <point x="258" y="96" type="curve" smooth="yes"/>
      <point x="268" y="110"/>
      <point x="276" y="130"/>
      <point x="282" y="158" type="curve" smooth="yes"/>
      <point x="286" y="184"/>
      <point x="289" y="220"/>
      <point x="289" y="265" type="curve" smooth="yes"/>
      <point x="289" y="1234" type="line" smooth="yes"/>
      <point x="289" y="1269"/>
      <point x="288" y="1299"/>
      <point x="285" y="1325" type="curve" smooth="yes"/>
      <point x="282" y="1351"/>
      <point x="274" y="1373"/>
      <point x="261" y="1390" type="curve" smooth="yes"/>
      <point x="248" y="1408"/>
      <point x="227" y="1421"/>
      <point x="199" y="1430" type="curve" smooth="yes"/>
      <point x="171" y="1439"/>
      <point x="132" y="1443"/>
      <point x="82" y="1443" type="curve"/>
      <point x="82" y="1505" type="line"/>
      <point x="443" y="1505" type="line"/>
      <point x="994" y="327" type="line"/>
      <point x="1507" y="1505" type="line"/>
      <point x="1839" y="1505" type="line"/>
      <point x="1839" y="1443" type="line"/>
      <point x="1796" y="1443" type="line" smooth="yes"/>
      <point x="1774" y="1443"/>
      <point x="1754" y="1441"/>
      <point x="1738" y="1437" type="curve" smooth="yes"/>
      <point x="1720" y="1433"/>
      <point x="1706" y="1424"/>
      <point x="1695" y="1409" type="curve" smooth="yes"/>
      <point x="1684" y="1394"/>
      <point x="1675" y="1373"/>
      <point x="1670" y="1346" type="curve" smooth="yes"/>
      <point x="1664" y="1318"/>
      <point x="1661" y="1281"/>
      <point x="1661" y="1234" type="curve" smooth="yes"/>
      <point x="1661" y="265" type="line" smooth="yes"/>
      <point x="1661" y="218"/>
      <point x="1664" y="182"/>
      <point x="1670" y="154" type="curve" smooth="yes"/>
      <point x="1676" y="128"/>
      <point x="1685" y="107"/>
      <point x="1696" y="93" type="curve" smooth="yes"/>
      <point x="1708" y="79"/>
      <point x="1722" y="70"/>
      <point x="1739" y="66" type="curve" smooth="yes"/>
      <point x="1756" y="63"/>
      <point x="1775" y="61"/>
      <point x="1796" y="61" type="curve" smooth="yes"/>
      <point x="1839" y="61" type="line"/>
      <point x="1839" y="0" type="line"/>
      <point x="1300" y="0" type="line"/>
      <point x="1300" y="61" type="line"/>
      <point x="1339" y="61" type="line" smooth="yes"/>
      <point x="1364" y="61"/>
      <point x="1386" y="63"/>
      <point x="1404" y="68" type="curve" smooth="yes"/>
      <point x="1421" y="73"/>
      <point x="1436" y="82"/>
      <point x="1446" y="97" type="curve" smooth="yes"/>
      <point x="1458" y="112"/>
      <point x="1466" y="132"/>
      <point x="1470" y="159" type="curve" smooth="yes"/>
      <point x="1476" y="186"/>
      <point x="1478" y="221"/>
      <point x="1478" y="265" type="curve" smooth="yes"/>
      <point x="1478" y="1165" type="line"/>
      <point x="982" y="0" type="line"/>
    </contour>
  </outline>
</glyph>
<glyph name="N" format="2">
  <advance width="1635"/>
  <unicode hex="004E"/>
  <outline>
    <contour>
      <point x="0" y="1505" type="line"/>
      <point x="348" y="1505" type="line"/>
      <point x="1266" y="367" type="line"/>
      <point x="1266" y="1234" type="line" smooth="yes"/>
      <point x="1266" y="1282.67"/>
      <point x="1263.17" y="1320.83"/>
      <point x="1257.5" y="1348.5" type="curve" smooth="yes"/>
      <point x="1251.83" y="1376.17"/>
      <point x="1243.17" y="1397"/>
      <point x="1231.5" y="1411" type="curve" smooth="yes"/>
      <point x="1219.83" y="1425"/>
      <point x="1205.17" y="1433.67"/>
      <point x="1187.5" y="1437" type="curve" smooth="yes"/>
      <point x="1169.83" y="1440.33"/>
      <point x="1149.67" y="1442.33"/>
      <point x="1127" y="1443" type="curve" smooth="yes"/>
      <point x="1090" y="1443" type="line"/>
      <point x="1090" y="1505" type="line"/>
      <point x="1554" y="1505" type="line"/>
      <point x="1554" y="1443" type="line"/>
      <point x="1517" y="1443" type="line" smooth="yes"/>
      <point x="1494.33" y="1443"/>
      <point x="1474.33" y="1440.83"/>
      <point x="1457" y="1436.5" type="curve" smooth="yes"/>
      <point x="1439.67" y="1432.17"/>
      <point x="1425" y="1422.83"/>
      <point x="1413" y="1408.5" type="curve" smooth="yes"/>
      <point x="1401" y="1394.17"/>
      <point x="1391.83" y="1373.17"/>
      <point x="1385.5" y="1345.5" type="curve" smooth="yes"/>
      <point x="1379.17" y="1317.83"/>
      <point x="1375.67" y="1280.67"/>
      <point x="1375" y="1234" type="curve" smooth="yes"/>
      <point x="1375" y="-26" type="line"/>
      <point x="1332" y="-26" type="line"/>
      <point x="404" y="1125" type="line"/>
      <point x="404" y="265" type="line" smooth="yes"/>
      <point x="404" y="217.667"/>
      <point x="407.167" y="180.333"/>
      <point x="413.5" y="153" type="curve" smooth="yes"/>
      <point x="419.833" y="125.667"/>
      <point x="429" y="105.167"/>
      <point x="441" y="91.5" type="curve" smooth="yes"/>
      <point x="453" y="77.8333"/>
      <point x="467.5" y="69.3333"/>
      <point x="484.5" y="66" type="curve" smooth="yes"/>
      <point x="501.5" y="62.6667"/>
      <point x="520.667" y="61"/>
      <point x="542" y="61" type="curve" smooth="yes"/>
      <point x="581" y="61" type="line"/>
      <point x="581" y="0" type="line"/>
      <point x="116" y="0" type="line"/>
      <point x="116" y="61" type="line"/>
      <point x="156" y="61" type="line" smooth="yes"/>
      <point x="178" y="61"/>
      <point x="197.667" y="63.3333"/>
      <point x="215" y="68" type="curve" smooth="yes"/>
      <point x="232.333" y="72.6667"/>
      <point x="246.833" y="82.3333"/>
      <point x="258.5" y="97" type="curve" smooth="yes"/>
      <point x="270.167" y="111.667"/>
      <point x="279" y="132.333"/>
      <point x="285" y="159" type="curve" smooth="yes"/>
      <point x="291" y="185.667"/>
      <point x="294" y="221"/>
      <point x="294" y="265" type="curve" smooth="yes"/>
      <point x="294" y="1298" type="line"/>
      <point x="297" y="1296" type="line"/>
      <point x="274.333" y="1322"/>
      <point x="254.167" y="1344.33"/>
      <point x="236.5" y="1363" type="curve" smooth="yes"/>
      <point x="218.833" y="1381.67"/>
      <point x="199.667" y="1396.83"/>
      <point x="179" y="1408.5" type="curve" smooth="yes"/>
      <point x="158.333" y="1420.17"/>
      <point x="134" y="1428.83"/>
      <point x="106" y="1434.5" type="curve" smooth="yes"/>
      <point x="78" y="1440.17"/>
      <point x="42.6667" y="1443"/>
      <point x="0" y="1443" type="curve"/>
    </contour>
  </outline>
</glyph>
<glyph name="O" format="2">
  <advance width="1632"/>
  <unicode hex="004F"/>
  <outline>
    <contour>
      <point x="827" y="1515" type="curve" smooth="yes"/>
      <point x="925" y="1515"/>
      <point x="1016" y="1496"/>
      <point x="1099" y="1459" type="curve" smooth="yes"/>
      <point x="1182" y="1422"/>
      <point x="1254" y="1370"/>
      <point x="1316" y="1303" type="curve" smooth="yes"/>
      <point x="1376" y="1236"/>
      <point x="1424" y="1157"/>
      <point x="1458" y="1064" type="curve" smooth="yes"/>
      <point x="1493" y="972"/>
      <point x="1510" y="871"/>
      <point x="1510" y="762" type="curve" smooth="yes"/>
      <point x="1510" y="649"/>
      <point x="1493" y="546"/>
      <point x="1460" y="451" type="curve" smooth="yes"/>
      <point x="1426" y="356"/>
      <point x="1378" y="275"/>
      <point x="1317" y="206" type="curve" smooth="yes"/>
      <point x="1256" y="137"/>
      <point x="1182" y="84"/>
      <point x="1096" y="46" type="curve" smooth="yes"/>
      <point x="1010" y="7"/>
      <point x="915" y="-12"/>
      <point x="810" y="-12" type="curve" smooth="yes"/>
      <point x="704" y="-11"/>
      <point x="608" y="7"/>
      <point x="522" y="44" type="curve" smooth="yes"/>
      <point x="436" y="80"/>
      <point x="363" y="131"/>
      <point x="302" y="198" type="curve" smooth="yes"/>
      <point x="241" y="265"/>
      <point x="194" y="345"/>
      <point x="162" y="440" type="curve" smooth="yes"/>
      <point x="128" y="534"/>
      <point x="112" y="640"/>
      <point x="112" y="757" type="curve" smooth="yes"/>
      <point x="112" y="866"/>
      <point x="129" y="966"/>
      <point x="162" y="1059" type="curve" smooth="yes"/>
      <point x="195" y="1152"/>
      <point x="243" y="1232"/>
      <point x="304" y="1299" type="curve" smooth="yes"/>
      <point x="366" y="1366"/>
      <point x="441" y="1419"/>
      <point x="530" y="1458" type="curve" smooth="yes"/>
      <point x="618" y="1496"/>
      <point x="717" y="1515"/>
    </contour>
    <contour>
      <point x="804" y="1440" type="curve" smooth="yes"/>
      <point x="733" y="1439"/>
      <point x="668" y="1423"/>
      <point x="608" y="1391" type="curve" smooth="yes"/>
      <point x="550" y="1359"/>
      <point x="499" y="1314"/>
      <point x="456" y="1255" type="curve" smooth="yes"/>
      <point x="413" y="1196"/>
      <point x="380" y="1125"/>
      <point x="357" y="1042" type="curve" smooth="yes"/>
      <point x="334" y="959"/>
      <point x="322" y="865"/>
      <point x="321" y="762" type="curve" smooth="yes"/>
      <point x="321" y="658"/>
      <point x="333" y="563"/>
      <point x="357" y="478" type="curve" smooth="yes"/>
      <point x="381" y="392"/>
      <point x="414" y="318"/>
      <point x="458" y="258" type="curve" smooth="yes"/>
      <point x="500" y="196"/>
      <point x="552" y="149"/>
      <point x="612" y="116" type="curve" smooth="yes"/>
      <point x="671" y="83"/>
      <point x="736" y="66"/>
      <point x="807" y="66" type="curve" smooth="yes"/>
      <point x="873" y="66"/>
      <point x="936" y="79"/>
      <point x="995" y="106" type="curve" smooth="yes"/>
      <point x="1054" y="132"/>
      <point x="1106" y="172"/>
      <point x="1152" y="227" type="curve" smooth="yes"/>
      <point x="1196" y="282"/>
      <point x="1232" y="351"/>
      <point x="1258" y="434" type="curve" smooth="yes"/>
      <point x="1285" y="518"/>
      <point x="1298" y="617"/>
      <point x="1298" y="732" type="curve" smooth="yes"/>
      <point x="1298" y="843"/>
      <point x="1287" y="942"/>
      <point x="1264" y="1030" type="curve" smooth="yes"/>
      <point x="1241" y="1117"/>
      <point x="1209" y="1192"/>
      <point x="1166" y="1252" type="curve" smooth="yes"/>
      <point x="1123" y="1314"/>
      <point x="1072" y="1360"/>
      <point x="1010" y="1392" type="curve" smooth="yes"/>
      <point x="950" y="1424"/>
      <point x="881" y="1440"/>
    </contour>
  </outline>
</glyph>
<glyph name="P" format="2">
  <advance width="598"/>
  <unicode hex="0050"/>
  <outline>
    <contour>
      <point x="218" y="132" type="line" smooth="yes"/>
      <point x="218" y="108"/>
      <point x="219" y="90"/>
      <point x="223" y="76" type="curve" smooth="yes"/>
      <point x="226" y="63"/>
      <point x="230" y="52"/>
      <point x="236" y="45" type="curve" smooth="yes"/>
      <point x="242" y="39"/>
      <point x="249" y="34"/>
      <point x="257" y="32" type="curve" smooth="yes"/>
      <point x="266" y="31"/>
      <point x="274" y="30"/>
      <point x="285" y="30" type="curve" smooth="yes"/>
      <point x="307" y="30" type="line"/>
      <point x="307" y="0" type="line"/>
      <point x="43" y="0" type="line"/>
      <point x="43" y="30" type="line"/>
      <point x="64" y="30" type="line" smooth="yes"/>
      <point x="75" y="30"/>
      <point x="84" y="31"/>
      <point x="92" y="33" type="curve" smooth="yes"/>
      <point x="101" y="36"/>
      <point x="107" y="40"/>
      <point x="113" y="47" type="curve" smooth="yes"/>
      <point x="118" y="55"/>
      <point x="123" y="65"/>
      <point x="125" y="78" type="curve" smooth="yes"/>
      <point x="128" y="92"/>
      <point x="129" y="110"/>
      <point x="129" y="132" type="curve" smooth="yes"/>
      <point x="129" y="603" type="line" smooth="yes"/>
      <point x="129" y="626"/>
      <point x="127" y="645"/>
      <point x="125" y="658" type="curve" smooth="yes"/>
      <point x="122" y="672"/>
      <point x="117" y="682"/>
      <point x="112" y="689" type="curve" smooth="yes"/>
      <point x="106" y="697"/>
      <point x="100" y="701"/>
      <point x="92" y="703" type="curve" smooth="yes"/>
      <point x="83" y="704"/>
      <point x="74" y="705"/>
      <point x="64" y="705" type="curve" smooth="yes"/>
      <point x="27" y="705" type="line"/>
      <point x="27" y="735" type="line"/>
      <point x="268" y="735" type="line" smooth="yes"/>
      <point x="310" y="735"/>
      <point x="348" y="730"/>
      <point x="382" y="721" type="curve" smooth="yes"/>
      <point x="415" y="712"/>
      <point x="444" y="699"/>
      <point x="468" y="681" type="curve" smooth="yes"/>
      <point x="491" y="664"/>
      <point x="509" y="642"/>
      <point x="522" y="616" type="curve" smooth="yes"/>
      <point x="535" y="590"/>
      <point x="542" y="560"/>
      <point x="542" y="526" type="curve" smooth="yes"/>
      <point x="542" y="496"/>
      <point x="537" y="467"/>
      <point x="527" y="442" type="curve" smooth="yes"/>
      <point x="517" y="417"/>
      <point x="503" y="396"/>
      <point x="485" y="378" type="curve" smooth="yes"/>
      <point x="467" y="361"/>
      <point x="444" y="347"/>
      <point x="418" y="338" type="curve" smooth="yes"/>
      <point x="392" y="328"/>
      <point x="362" y="323"/>
      <point x="330" y="323" type="curve" smooth="yes"/>
      <point x="312" y="323"/>
      <point x="294" y="324"/>
      <point x="276" y="326" type="curve" smooth="yes"/>
      <point x="259" y="329"/>
      <point x="239" y="332"/>
      <point x="218" y="335" type="curve"/>
    </contour>
    <contour>
      <point x="218" y="379" type="line"/>
      <point x="223" y="378"/>
      <point x="228" y="377"/>
      <point x="232" y="377" type="curve" smooth="yes"/>
      <point x="239" y="376"/>
      <point x="239" y="376"/>
      <point x="246" y="375" type="curve" smooth="yes"/>
      <point x="256" y="374"/>
      <point x="265" y="372"/>
      <point x="273" y="371" type="curve" smooth="yes"/>
      <point x="282" y="370"/>
      <point x="290" y="369"/>
      <point x="296" y="369" type="curve" smooth="yes"/>
      <point x="313" y="369"/>
      <point x="331" y="372"/>
      <point x="348" y="378" type="curve" smooth="yes"/>
      <point x="365" y="384"/>
      <point x="380" y="393"/>
      <point x="394" y="405" type="curve" smooth="yes"/>
      <point x="407" y="417"/>
      <point x="418" y="434"/>
      <point x="427" y="453" type="curve" smooth="yes"/>
      <point x="435" y="472"/>
      <point x="439" y="496"/>
      <point x="439" y="522" type="curve" smooth="yes"/>
      <point x="439" y="551"/>
      <point x="435" y="576"/>
      <point x="426" y="598" type="curve" smooth="yes"/>
      <point x="417" y="620"/>
      <point x="406" y="638"/>
      <point x="392" y="651" type="curve" smooth="yes"/>
      <point x="377" y="666"/>
      <point x="361" y="676"/>
      <point x="343" y="684" type="curve" smooth="yes"/>
      <point x="324" y="691"/>
      <point x="305" y="694"/>
      <point x="286" y="694" type="curve" smooth="yes"/>
      <point x="277" y="694"/>
      <point x="268" y="693"/>
      <point x="256" y="692" type="curve" smooth="yes"/>
      <point x="245" y="690"/>
      <point x="232" y="688"/>
      <point x="218" y="684" type="curve"/>
    </contour>
  </outline>
</glyph>
<glyph name="Q" format="2">
  <advance width="1629"/>
  <unicode hex="0051"/>
  <outline>
    <contour>
      <point x="1507" y="752" type="curve" smooth="yes"/>
      <point x="1507" y="648"/>
      <point x="1495.67" y="556.333"/>
      <point x="1473" y="477" type="curve" smooth="yes"/>
      <point x="1450.33" y="397.667"/>
      <point x="1417" y="327.833"/>
      <point x="1373" y="267.5" type="curve" smooth="yes"/>
      <point x="1329" y="207.167"/>
      <point x="1275" y="154.667"/>
      <point x="1211" y="110" type="curve" smooth="yes"/>
      <point x="1147" y="65.3333"/>
      <point x="1073.67" y="25.6667"/>
      <point x="991" y="-9" type="curve"/>
      <point x="1009" y="-61.6667"/>
      <point x="1036.5" y="-107.5"/>
      <point x="1073.5" y="-146.5" type="curve" smooth="yes"/>
      <point x="1110.5" y="-185.5"/>
      <point x="1152.67" y="-218.333"/>
      <point x="1200" y="-245" type="curve" smooth="yes"/>
      <point x="1247.33" y="-271.667"/>
      <point x="1297.83" y="-292.667"/>
      <point x="1351.5" y="-308" type="curve" smooth="yes"/>
      <point x="1405.17" y="-323.333"/>
      <point x="1458" y="-333.667"/>
      <point x="1510" y="-339" type="curve"/>
      <point x="1510" y="-406" type="line"/>
      <point x="1430.67" y="-406"/>
      <point x="1349.83" y="-396"/>
      <point x="1267.5" y="-376" type="curve" smooth="yes"/>
      <point x="1185.17" y="-356"/>
      <point x="1105" y="-328.5"/>
      <point x="1027" y="-293.5" type="curve" smooth="yes"/>
      <point x="949" y="-258.5"/>
      <point x="875.167" y="-216.833"/>
      <point x="805.5" y="-168.5" type="curve" smooth="yes"/>
      <point x="735.833" y="-120.167"/>
      <point x="674" y="-67.6667"/>
      <point x="620" y="-11" type="curve"/>
      <point x="624" y="-12" type="line"/>
      <point x="546.667" y="24.6667"/>
      <point x="476.333" y="66.3333"/>
      <point x="413" y="113" type="curve" smooth="yes"/>
      <point x="349.667" y="159.667"/>
      <point x="295.333" y="213.833"/>
      <point x="250" y="275.5" type="curve" smooth="yes"/>
      <point x="204.667" y="337.167"/>
      <point x="169.5" y="407.333"/>
      <point x="144.5" y="486" type="curve" smooth="yes"/>
      <point x="119.5" y="564.667"/>
      <point x="107" y="655"/>
      <point x="107" y="757" type="curve" smooth="yes"/>
      <point x="107" y="868.333"/>
      <point x="124.667" y="970.333"/>
      <point x="160" y="1063" type="curve" smooth="yes"/>
      <point x="195.333" y="1155.67"/>
      <point x="244.667" y="1235.5"/>
      <point x="308" y="1302.5" type="curve" smooth="yes"/>
      <point x="371.333" y="1369.5"/>
      <point x="446.333" y="1421.67"/>
      <point x="533" y="1459" type="curve" smooth="yes"/>
      <point x="619.667" y="1496.33"/>
      <point x="714.667" y="1515"/>
      <point x="818" y="1515" type="curve" smooth="yes"/>
      <point x="918" y="1515"/>
      <point x="1010" y="1496.33"/>
      <point x="1094" y="1459" type="curve" smooth="yes"/>
      <point x="1178" y="1421.67"/>
      <point x="1250.67" y="1369.33"/>
      <point x="1312" y="1302" type="curve" smooth="yes"/>
      <point x="1373.33" y="1234.67"/>
      <point x="1421.17" y="1154.17"/>
      <point x="1455.5" y="1060.5" type="curve" smooth="yes"/>
      <point x="1489.83" y="966.833"/>
      <point x="1507" y="864"/>
    </contour>
    <contour>
      <point x="807" y="1436" type="curve" smooth="yes"/>
      <point x="737.667" y="1435.33"/>
      <point x="673.833" y="1419"/>
      <point x="615.5" y="1387" type="curve" smooth="yes"/>
      <point x="557.167" y="1355"/>
      <point x="506.5" y="1309.67"/>
      <point x="463.5" y="1251" type="curve" smooth="yes"/>
      <point x="420.5" y="1192.33"/>
      <point x="386.333" y="1121.17"/>
      <point x="361" y="1037.5" type="curve" smooth="yes"/>
      <point x="335.667" y="953.833"/>
      <point x="321.333" y="860.333"/>
      <point x="318" y="757" type="curve"/>
      <point x="318.667" y="653.667"/>
      <point x="331.167" y="559.333"/>
      <point x="355.5" y="474" type="curve" smooth="yes"/>
      <point x="379.833" y="388.667"/>
      <point x="413.333" y="315.333"/>
      <point x="456" y="254" type="curve" smooth="yes"/>
      <point x="498.667" y="192.667"/>
      <point x="549.833" y="145.167"/>
      <point x="609.5" y="111.5" type="curve" smooth="yes"/>
      <point x="669.167" y="77.8333"/>
      <point x="735" y="61"/>
      <point x="807" y="61" type="curve" smooth="yes"/>
      <point x="879.667" y="61"/>
      <point x="945.667" y="76"/>
      <point x="1005" y="106" type="curve" smooth="yes"/>
      <point x="1064.33" y="136"/>
      <point x="1115.33" y="179.5"/>
      <point x="1158" y="236.5" type="curve" smooth="yes"/>
      <point x="1200.67" y="293.5"/>
      <point x="1233.67" y="363.167"/>
      <point x="1257" y="445.5" type="curve" smooth="yes"/>
      <point x="1280.33" y="527.833"/>
      <point x="1292" y="621"/>
      <point x="1292" y="725" type="curve" smooth="yes"/>
      <point x="1292" y="839.667"/>
      <point x="1279.5" y="941.167"/>
      <point x="1254.5" y="1029.5" type="curve" smooth="yes"/>
      <point x="1229.5" y="1117.83"/>
      <point x="1195.17" y="1192.17"/>
      <point x="1151.5" y="1252.5" type="curve" smooth="yes"/>
      <point x="1107.83" y="1312.83"/>
      <point x="1056.5" y="1358.5"/>
      <point x="997.5" y="1389.5" type="curve" smooth="yes"/>
      <point x="938.5" y="1420.5"/>
      <point x="875" y="1436"/>
    </contour>
  </outline>
</glyph>
<glyph name="R" format="2">
  <advance width="688"/>
  <unicode hex="0052"/>
  <outline>
    <contour>
      <point x="220" y="132" type="line" smooth="yes"/>
      <point x="220" y="108"/>
      <point x="222" y="90"/>
      <point x="225" y="76" type="curve" smooth="yes"/>
      <point x="228" y="63"/>
      <point x="232" y="52"/>
      <point x="238" y="45" type="curve" smooth="yes"/>
      <point x="244" y="39"/>
      <point x="251" y="34"/>
      <point x="260" y="32" type="curve" smooth="yes"/>
      <point x="268" y="31"/>
      <point x="277" y="30"/>
      <point x="287" y="30" type="curve" smooth="yes"/>
      <point x="308" y="30" type="line"/>
      <point x="308" y="0" type="line"/>
      <point x="38" y="0" type="line"/>
      <point x="38" y="30" type="line"/>
      <point x="64" y="30" type="line" smooth="yes"/>
      <point x="75" y="30"/>
      <point x="84" y="31"/>
      <point x="93" y="33" type="curve" smooth="yes"/>
      <point x="101" y="36"/>
      <point x="108" y="40"/>
      <point x="113" y="47" type="curve" smooth="yes"/>
      <point x="119" y="55"/>
      <point x="123" y="65"/>
      <point x="126" y="78" type="curve" smooth="yes"/>
      <point x="128" y="92"/>
      <point x="130" y="110"/>
      <point x="130" y="132" type="curve" smooth="yes"/>
      <point x="130" y="603" type="line" smooth="yes"/>
      <point x="130" y="626"/>
      <point x="128" y="645"/>
      <point x="125" y="659" type="curve" smooth="yes"/>
      <point x="123" y="672"/>
      <point x="118" y="683"/>
      <point x="113" y="689" type="curve" smooth="yes"/>
      <point x="107" y="696"/>
      <point x="101" y="701"/>
      <point x="92" y="702" type="curve" smooth="yes"/>
      <point x="84" y="704"/>
      <point x="75" y="705"/>
      <point x="64" y="705" type="curve" smooth="yes"/>
      <point x="27" y="705" type="line"/>
      <point x="27" y="735" type="line"/>
      <point x="269" y="735" type="line" smooth="yes"/>
      <point x="313" y="735"/>
      <point x="351" y="730"/>
      <point x="385" y="722" type="curve" smooth="yes"/>
      <point x="419" y="712"/>
      <point x="448" y="700"/>
      <point x="471" y="683" type="curve" smooth="yes"/>
      <point x="495" y="666"/>
      <point x="513" y="645"/>
      <point x="525" y="621" type="curve" smooth="yes"/>
      <point x="537" y="597"/>
      <point x="543" y="570"/>
      <point x="543" y="540" type="curve" smooth="yes"/>
      <point x="543" y="510"/>
      <point x="539" y="483"/>
      <point x="529" y="460" type="curve" smooth="yes"/>
      <point x="520" y="437"/>
      <point x="506" y="417"/>
      <point x="489" y="400" type="curve" smooth="yes"/>
      <point x="471" y="383"/>
      <point x="450" y="369"/>
      <point x="425" y="358" type="curve" smooth="yes"/>
      <point x="399" y="348"/>
      <point x="371" y="340"/>
      <point x="339" y="335" type="curve"/>
      <point x="343" y="330"/>
      <point x="347" y="324"/>
      <point x="351" y="318" type="curve" smooth="yes"/>
      <point x="354" y="313"/>
      <point x="357" y="307"/>
      <point x="361" y="302" type="curve" smooth="yes"/>
      <point x="377" y="276"/>
      <point x="395" y="251"/>
      <point x="412" y="228" type="curve" smooth="yes"/>
      <point x="430" y="204"/>
      <point x="448" y="179"/>
      <point x="465" y="153" type="curve" smooth="yes"/>
      <point x="481" y="131"/>
      <point x="496" y="112"/>
      <point x="509" y="98" type="curve" smooth="yes"/>
      <point x="523" y="83"/>
      <point x="537" y="70"/>
      <point x="551" y="61" type="curve" smooth="yes"/>
      <point x="565" y="52"/>
      <point x="580" y="44"/>
      <point x="597" y="40" type="curve" smooth="yes"/>
      <point x="612" y="35"/>
      <point x="631" y="31"/>
      <point x="651" y="29" type="curve"/>
      <point x="651" y="0" type="line"/>
      <point x="472" y="0" type="line"/>
      <point x="228" y="345" type="line"/>
      <point x="230" y="344" type="line"/>
      <point x="225" y="346" type="line"/>
      <point x="227" y="345" type="line"/>
      <point x="229" y="345" type="line" smooth="yes"/>
      <point x="229" y="346"/>
      <point x="228" y="346"/>
      <point x="226" y="346" type="curve" smooth="yes"/>
      <point x="225" y="347"/>
      <point x="223" y="347"/>
      <point x="220" y="347" type="curve"/>
    </contour>
    <contour>
      <point x="220" y="390" type="line"/>
      <point x="236" y="388"/>
      <point x="250" y="386"/>
      <point x="264" y="383" type="curve" smooth="yes"/>
      <point x="277" y="381"/>
      <point x="289" y="380"/>
      <point x="299" y="380" type="curve" smooth="yes"/>
      <point x="317" y="380"/>
      <point x="335" y="383"/>
      <point x="353" y="390" type="curve" smooth="yes"/>
      <point x="369" y="396"/>
      <point x="384" y="405"/>
      <point x="397" y="418" type="curve" smooth="yes"/>
      <point x="411" y="431"/>
      <point x="421" y="447"/>
      <point x="429" y="466" type="curve" smooth="yes"/>
      <point x="436" y="485"/>
      <point x="440" y="508"/>
      <point x="440" y="534" type="curve" smooth="yes"/>
      <point x="440" y="562"/>
      <point x="436" y="586"/>
      <point x="427" y="605" type="curve" smooth="yes"/>
      <point x="419" y="625"/>
      <point x="407" y="642"/>
      <point x="394" y="654" type="curve" smooth="yes"/>
      <point x="379" y="667"/>
      <point x="363" y="677"/>
      <point x="345" y="683" type="curve" smooth="yes"/>
      <point x="327" y="689"/>
      <point x="308" y="693"/>
      <point x="289" y="694" type="curve" smooth="yes"/>
      <point x="280" y="694"/>
      <point x="270" y="693"/>
      <point x="258" y="691" type="curve" smooth="yes"/>
      <point x="245" y="690"/>
      <point x="233" y="688"/>
      <point x="220" y="684" type="curve"/>
    </contour>
  </outline>
</glyph>
<glyph name="S" format="2">
  <advance width="614"/>
  <unicode hex="0053"/>
  <outline>
    <contour>
      <point x="512" y="743" type="line"/>
      <point x="512" y="511" type="line"/>
      <point x="477" y="511" type="line"/>
      <point x="474" y="546"/>
      <point x="466" y="575"/>
      <point x="455" y="600" type="curve" smooth="yes"/>
      <point x="444" y="624"/>
      <point x="431" y="643"/>
      <point x="414" y="658" type="curve" smooth="yes"/>
      <point x="396" y="673"/>
      <point x="377" y="684"/>
      <point x="354" y="691" type="curve" smooth="yes"/>
      <point x="333" y="698"/>
      <point x="309" y="701"/>
      <point x="283" y="701" type="curve" smooth="yes"/>
      <point x="267" y="701"/>
      <point x="251" y="698"/>
      <point x="237" y="691" type="curve" smooth="yes"/>
      <point x="222" y="685"/>
      <point x="209" y="676"/>
      <point x="198" y="666" type="curve" smooth="yes"/>
      <point x="187" y="655"/>
      <point x="177" y="643"/>
      <point x="170" y="629" type="curve" smooth="yes"/>
      <point x="163" y="615"/>
      <point x="160" y="602"/>
      <point x="159" y="587" type="curve" smooth="yes"/>
      <point x="159" y="568"/>
      <point x="165" y="550"/>
      <point x="176" y="533" type="curve" smooth="yes"/>
      <point x="188" y="517"/>
      <point x="203" y="501"/>
      <point x="222" y="487" type="curve" smooth="yes"/>
      <point x="241" y="473"/>
      <point x="262" y="458"/>
      <point x="286" y="445" type="curve" smooth="yes"/>
      <point x="310" y="432"/>
      <point x="334" y="419"/>
      <point x="359" y="405" type="curve" smooth="yes"/>
      <point x="384" y="393"/>
      <point x="408" y="379"/>
      <point x="433" y="364" type="curve" smooth="yes"/>
      <point x="456" y="351"/>
      <point x="478" y="335"/>
      <point x="497" y="319" type="curve" smooth="yes"/>
      <point x="516" y="303"/>
      <point x="531" y="285"/>
      <point x="542" y="266" type="curve" smooth="yes"/>
      <point x="553" y="247"/>
      <point x="559" y="226"/>
      <point x="559" y="203" type="curve" smooth="yes"/>
      <point x="559" y="172"/>
      <point x="553" y="143"/>
      <point x="542" y="117" type="curve" smooth="yes"/>
      <point x="530" y="90"/>
      <point x="513" y="68"/>
      <point x="490" y="49" type="curve" smooth="yes"/>
      <point x="468" y="30"/>
      <point x="441" y="15"/>
      <point x="408" y="5" type="curve" smooth="yes"/>
      <point x="376" y="-6"/>
      <point x="339" y="-11"/>
      <point x="298" y="-11" type="curve" smooth="yes"/>
      <point x="281" y="-11"/>
      <point x="265" y="-9"/>
      <point x="250" y="-6" type="curve" smooth="yes"/>
      <point x="235" y="-2"/>
      <point x="221" y="2"/>
      <point x="208" y="7" type="curve" smooth="yes"/>
      <point x="194" y="11"/>
      <point x="181" y="15"/>
      <point x="168" y="19" type="curve" smooth="yes"/>
      <point x="155" y="22"/>
      <point x="142" y="24"/>
      <point x="128" y="24" type="curve" smooth="yes"/>
      <point x="125" y="24"/>
      <point x="123" y="24"/>
      <point x="121" y="23" type="curve" smooth="yes"/>
      <point x="118" y="22"/>
      <point x="116" y="20"/>
      <point x="114" y="17" type="curve" smooth="yes"/>
      <point x="112" y="14"/>
      <point x="110" y="10"/>
      <point x="109" y="5" type="curve" smooth="yes"/>
      <point x="107" y="-1"/>
      <point x="106" y="-8"/>
      <point x="105" y="-16" type="curve"/>
      <point x="69" y="-16" type="line"/>
      <point x="69" y="221" type="line"/>
      <point x="101" y="221" type="line"/>
      <point x="106" y="188"/>
      <point x="115" y="160"/>
      <point x="126" y="136" type="curve" smooth="yes"/>
      <point x="137" y="112"/>
      <point x="151" y="92"/>
      <point x="168" y="77" type="curve" smooth="yes"/>
      <point x="185" y="61"/>
      <point x="206" y="49"/>
      <point x="229" y="42" type="curve" smooth="yes"/>
      <point x="254" y="35"/>
      <point x="282" y="31"/>
      <point x="313" y="31" type="curve" smooth="yes"/>
      <point x="333" y="31"/>
      <point x="353" y="34"/>
      <point x="369" y="42" type="curve" smooth="yes"/>
      <point x="387" y="49"/>
      <point x="401" y="59"/>
      <point x="414" y="71" type="curve" smooth="yes"/>
      <point x="426" y="83"/>
      <point x="436" y="99"/>
      <point x="443" y="115" type="curve" smooth="yes"/>
      <point x="451" y="133"/>
      <point x="454" y="151"/>
      <point x="454" y="171" type="curve" smooth="yes"/>
      <point x="454" y="192"/>
      <point x="448" y="211"/>
      <point x="438" y="229" type="curve" smooth="yes"/>
      <point x="426" y="245"/>
      <point x="411" y="260"/>
      <point x="393" y="274" type="curve" smooth="yes"/>
      <point x="374" y="289"/>
      <point x="353" y="302"/>
      <point x="330" y="314" type="curve" smooth="yes"/>
      <point x="306" y="326"/>
      <point x="282" y="339"/>
      <point x="257" y="352" type="curve" smooth="yes"/>
      <point x="232" y="364"/>
      <point x="208" y="377"/>
      <point x="185" y="391" type="curve" smooth="yes"/>
      <point x="162" y="404"/>
      <point x="141" y="419"/>
      <point x="122" y="435" type="curve" smooth="yes"/>
      <point x="104" y="451"/>
      <point x="89" y="470"/>
      <point x="77" y="490" type="curve" smooth="yes"/>
      <point x="66" y="510"/>
      <point x="61" y="533"/>
      <point x="61" y="559" type="curve" smooth="yes"/>
      <point x="61" y="586"/>
      <point x="66" y="611"/>
      <point x="77" y="634" type="curve" smooth="yes"/>
      <point x="87" y="656"/>
      <point x="103" y="676"/>
      <point x="122" y="692" type="curve" smooth="yes"/>
      <point x="142" y="708"/>
      <point x="165" y="721"/>
      <point x="192" y="729" type="curve" smooth="yes"/>
      <point x="219" y="739"/>
      <point x="249" y="743"/>
      <point x="281" y="743" type="curve" smooth="yes"/>
      <point x="301" y="743"/>
      <point x="322" y="741"/>
      <point x="343" y="735" type="curve" smooth="yes"/>
      <point x="364" y="730"/>
      <point x="386" y="723"/>
      <point x="409" y="714" type="curve" smooth="yes"/>
      <point x="417" y="709"/>
      <point x="425" y="707"/>
      <point x="431" y="704" type="curve" smooth="yes"/>
      <point x="436" y="702"/>
      <point x="441" y="701"/>
      <point x="446" y="701" type="curve" smooth="yes"/>
      <point x="450" y="701"/>
      <point x="453" y="702"/>
      <point x="455" y="703" type="curve" smooth="yes"/>
      <point x="458" y="704"/>
      <point x="460" y="706"/>
      <point x="462" y="709" type="curve" smooth="yes"/>
      <point x="464" y="712"/>
      <point x="466" y="716"/>
      <point x="468" y="722" type="curve" smooth="yes"/>
      <point x="470" y="727"/>
      <point x="472" y="734"/>
      <point x="474" y="743" type="curve"/>
    </contour>
  </outline>
</glyph>
<glyph name="T" format="2">
  <advance width="1375"/>
  <unicode hex="0054"/>
  <outline>
    <contour>
      <point x="1283" y="1505" type="line"/>
      <point x="1283" y="1136" type="line"/>
      <point x="1218" y="1136" type="line"/>
      <point x="1213" y="1183"/>
      <point x="1204" y="1224"/>
      <point x="1192" y="1259" type="curve" smooth="yes"/>
      <point x="1179" y="1294"/>
      <point x="1163" y="1322"/>
      <point x="1143" y="1345" type="curve" smooth="yes"/>
      <point x="1123" y="1368"/>
      <point x="1099" y="1384"/>
      <point x="1070" y="1396" type="curve" smooth="yes"/>
      <point x="1041" y="1406"/>
      <point x="1008" y="1412"/>
      <point x="969" y="1412" type="curve" smooth="yes"/>
      <point x="779" y="1412" type="line"/>
      <point x="779" y="265" type="line" smooth="yes"/>
      <point x="779" y="218"/>
      <point x="782" y="180"/>
      <point x="788" y="153" type="curve" smooth="yes"/>
      <point x="794" y="126"/>
      <point x="803" y="105"/>
      <point x="814" y="92" type="curve" smooth="yes"/>
      <point x="826" y="78"/>
      <point x="840" y="69"/>
      <point x="858" y="66" type="curve" smooth="yes"/>
      <point x="874" y="63"/>
      <point x="894" y="61"/>
      <point x="915" y="61" type="curve" smooth="yes"/>
      <point x="987" y="61" type="line"/>
      <point x="987" y="0" type="line"/>
      <point x="393" y="0" type="line"/>
      <point x="393" y="61" type="line"/>
      <point x="462" y="61" type="line" smooth="yes"/>
      <point x="485" y="61"/>
      <point x="504" y="63"/>
      <point x="522" y="68" type="curve" smooth="yes"/>
      <point x="538" y="72"/>
      <point x="553" y="81"/>
      <point x="564" y="96" type="curve" smooth="yes"/>
      <point x="575" y="110"/>
      <point x="584" y="130"/>
      <point x="590" y="157" type="curve" smooth="yes"/>
      <point x="595" y="184"/>
      <point x="598" y="220"/>
      <point x="598" y="265" type="curve" smooth="yes"/>
      <point x="598" y="1412" type="line"/>
      <point x="440" y="1412" type="line" smooth="yes"/>
      <point x="399" y="1412"/>
      <point x="361" y="1407"/>
      <point x="328" y="1398" type="curve" smooth="yes"/>
      <point x="294" y="1389"/>
      <point x="265" y="1373"/>
      <point x="240" y="1352" type="curve" smooth="yes"/>
      <point x="215" y="1331"/>
      <point x="196" y="1302"/>
      <point x="180" y="1267" type="curve" smooth="yes"/>
      <point x="166" y="1232"/>
      <point x="157" y="1188"/>
      <point x="154" y="1136" type="curve"/>
      <point x="87" y="1136" type="line"/>
      <point x="87" y="1505" type="line"/>
    </contour>
  </outline>
</glyph>
<glyph name="U" format="2">
  <advance width="1612"/>
  <unicode hex="0055"/>
  <outline>
    <contour>
      <point x="1041" y="1443" type="line"/>
      <point x="1041" y="1505" type="line"/>
      <point x="1519" y="1505" type="line"/>
      <point x="1519" y="1443" type="line"/>
      <point x="1477" y="1443" type="line" smooth="yes"/>
      <point x="1456" y="1442"/>
      <point x="1438" y="1440"/>
      <point x="1420" y="1434" type="curve" smooth="yes"/>
      <point x="1404" y="1430"/>
      <point x="1389" y="1419"/>
      <point x="1377" y="1404" type="curve" smooth="yes"/>
      <point x="1365" y="1389"/>
      <point x="1356" y="1367"/>
      <point x="1349" y="1338" type="curve" smooth="yes"/>
      <point x="1342" y="1310"/>
      <point x="1339" y="1272"/>
      <point x="1339" y="1225" type="curve" smooth="yes"/>
      <point x="1339" y="621" type="line" smooth="yes"/>
      <point x="1339" y="560"/>
      <point x="1336" y="501"/>
      <point x="1330" y="446" type="curve" smooth="yes"/>
      <point x="1323" y="390"/>
      <point x="1312" y="338"/>
      <point x="1296" y="290" type="curve" smooth="yes"/>
      <point x="1280" y="242"/>
      <point x="1258" y="198"/>
      <point x="1231" y="160" type="curve" smooth="yes"/>
      <point x="1204" y="120"/>
      <point x="1169" y="87"/>
      <point x="1126" y="60" type="curve" smooth="yes"/>
      <point x="1084" y="33"/>
      <point x="1034" y="12"/>
      <point x="974" y="-4" type="curve" smooth="yes"/>
      <point x="916" y="-18"/>
      <point x="847" y="-26"/>
      <point x="768" y="-26" type="curve" smooth="yes"/>
      <point x="665" y="-26"/>
      <point x="579" y="-10"/>
      <point x="510" y="22" type="curve" smooth="yes"/>
      <point x="441" y="54"/>
      <point x="386" y="99"/>
      <point x="346" y="158" type="curve" smooth="yes"/>
      <point x="304" y="217"/>
      <point x="276" y="288"/>
      <point x="258" y="371" type="curve" smooth="yes"/>
      <point x="242" y="454"/>
      <point x="233" y="548"/>
      <point x="233" y="651" type="curve" smooth="yes"/>
      <point x="233" y="1234" type="line" smooth="yes"/>
      <point x="233" y="1277"/>
      <point x="230" y="1312"/>
      <point x="224" y="1339" type="curve" smooth="yes"/>
      <point x="219" y="1366"/>
      <point x="210" y="1388"/>
      <point x="198" y="1403" type="curve" smooth="yes"/>
      <point x="187" y="1418"/>
      <point x="172" y="1429"/>
      <point x="154" y="1434" type="curve" smooth="yes"/>
      <point x="136" y="1440"/>
      <point x="115" y="1443"/>
      <point x="90" y="1443" type="curve" smooth="yes"/>
      <point x="50" y="1443" type="line"/>
      <point x="50" y="1505" type="line"/>
      <point x="599" y="1505" type="line"/>
      <point x="599" y="1443" type="line"/>
      <point x="552" y="1443" type="line" smooth="yes"/>
      <point x="531" y="1443"/>
      <point x="511" y="1440"/>
      <point x="494" y="1434" type="curve" smooth="yes"/>
      <point x="477" y="1429"/>
      <point x="462" y="1418"/>
      <point x="450" y="1403" type="curve" smooth="yes"/>
      <point x="438" y="1388"/>
      <point x="429" y="1366"/>
      <point x="422" y="1340" type="curve" smooth="yes"/>
      <point x="416" y="1312"/>
      <point x="413" y="1277"/>
      <point x="413" y="1234" type="curve" smooth="yes"/>
      <point x="413" y="583" type="line" smooth="yes"/>
      <point x="413" y="542"/>
      <point x="415" y="501"/>
      <point x="418" y="460" type="curve" smooth="yes"/>
      <point x="421" y="419"/>
      <point x="428" y="379"/>
      <point x="437" y="341" type="curve" smooth="yes"/>
      <point x="446" y="303"/>
      <point x="460" y="268"/>
      <point x="476" y="235" type="curve" smooth="yes"/>
      <point x="494" y="202"/>
      <point x="516" y="174"/>
      <point x="542" y="150" type="curve" smooth="yes"/>
      <point x="570" y="125"/>
      <point x="602" y="106"/>
      <point x="641" y="92" type="curve" smooth="yes"/>
      <point x="680" y="78"/>
      <point x="726" y="71"/>
      <point x="779" y="71" type="curve" smooth="yes"/>
      <point x="871" y="71"/>
      <point x="946" y="85"/>
      <point x="1003" y="114" type="curve" smooth="yes"/>
      <point x="1060" y="142"/>
      <point x="1105" y="181"/>
      <point x="1138" y="231" type="curve" smooth="yes"/>
      <point x="1170" y="281"/>
      <point x="1192" y="340"/>
      <point x="1203" y="408" type="curve" smooth="yes"/>
      <point x="1214" y="477"/>
      <point x="1220" y="551"/>
      <point x="1220" y="630" type="curve" smooth="yes"/>
      <point x="1220" y="1234" type="line" smooth="yes"/>
      <point x="1220" y="1283"/>
      <point x="1217" y="1321"/>
      <point x="1210" y="1349" type="curve" smooth="yes"/>
      <point x="1204" y="1377"/>
      <point x="1195" y="1398"/>
      <point x="1184" y="1412" type="curve" smooth="yes"/>
      <point x="1172" y="1426"/>
      <point x="1157" y="1435"/>
      <point x="1140" y="1438" type="curve" smooth="yes"/>
      <point x="1123" y="1441"/>
      <point x="1103" y="1443"/>
      <point x="1081" y="1443" type="curve" smooth="yes"/>
    </contour>
  </outline>
</glyph>
<glyph name="V" format="2">
  <advance width="766"/>
  <unicode hex="0056"/>
  <outline>
    <contour>
      <point x="748" y="735" type="line"/>
      <point x="748" y="705" type="line"/>
      <point x="732" y="703"/>
      <point x="719" y="699"/>
      <point x="708" y="693" type="curve" smooth="yes"/>
      <point x="697" y="688"/>
      <point x="688" y="681"/>
      <point x="680" y="672" type="curve" smooth="yes"/>
      <point x="671" y="664"/>
      <point x="665" y="653"/>
      <point x="658" y="642" type="curve" smooth="yes"/>
      <point x="652" y="630"/>
      <point x="646" y="617"/>
      <point x="640" y="602" type="curve" smooth="yes"/>
      <point x="621" y="547"/>
      <point x="602" y="494"/>
      <point x="583" y="443" type="curve" smooth="yes"/>
      <point x="564" y="392"/>
      <point x="545" y="342"/>
      <point x="527" y="292" type="curve" smooth="yes"/>
      <point x="508" y="242"/>
      <point x="490" y="192"/>
      <point x="471" y="142" type="curve" smooth="yes"/>
      <point x="452" y="91"/>
      <point x="434" y="39"/>
      <point x="415" y="-16" type="curve"/>
      <point x="393" y="-16" type="line"/>
      <point x="118" y="612" type="line" smooth="yes"/>
      <point x="110" y="628"/>
      <point x="104" y="642"/>
      <point x="98" y="653" type="curve" smooth="yes"/>
      <point x="92" y="665"/>
      <point x="85" y="674"/>
      <point x="78" y="682" type="curve" smooth="yes"/>
      <point x="70" y="688"/>
      <point x="61" y="694"/>
      <point x="50" y="698" type="curve" smooth="yes"/>
      <point x="40" y="702"/>
      <point x="25" y="704"/>
      <point x="8" y="705" type="curve"/>
      <point x="8" y="735" type="line"/>
      <point x="284" y="735" type="line"/>
      <point x="284" y="705" type="line"/>
      <point x="267" y="704"/>
      <point x="254" y="702"/>
      <point x="243" y="700" type="curve" smooth="yes"/>
      <point x="233" y="697"/>
      <point x="225" y="694"/>
      <point x="220" y="690" type="curve" smooth="yes"/>
      <point x="214" y="686"/>
      <point x="210" y="682"/>
      <point x="208" y="677" type="curve" smooth="yes"/>
      <point x="207" y="672"/>
      <point x="206" y="667"/>
      <point x="206" y="662" type="curve" smooth="yes"/>
      <point x="206" y="651"/>
      <point x="208" y="639"/>
      <point x="212" y="626" type="curve" smooth="yes"/>
      <point x="216" y="614"/>
      <point x="222" y="598"/>
      <point x="229" y="580" type="curve" smooth="yes"/>
      <point x="413" y="152" type="line"/>
      <point x="425" y="190"/>
      <point x="438" y="227"/>
      <point x="450" y="261" type="curve" smooth="yes"/>
      <point x="463" y="294"/>
      <point x="476" y="328"/>
      <point x="488" y="361" type="curve" smooth="yes"/>
      <point x="500" y="395"/>
      <point x="513" y="428"/>
      <point x="525" y="462" type="curve" smooth="yes"/>
      <point x="538" y="496"/>
      <point x="551" y="532"/>
      <point x="563" y="570" type="curve"/>
      <point x="582" y="613"/>
      <point x="591" y="643"/>
      <point x="591" y="659" type="curve" smooth="yes"/>
      <point x="591" y="666"/>
      <point x="590" y="671"/>
      <point x="587" y="677" type="curve" smooth="yes"/>
      <point x="585" y="682"/>
      <point x="581" y="687"/>
      <point x="575" y="690" type="curve" smooth="yes"/>
      <point x="569" y="695"/>
      <point x="561" y="698"/>
      <point x="551" y="701" type="curve" smooth="yes"/>
      <point x="542" y="704"/>
      <point x="529" y="706"/>
      <point x="515" y="707" type="curve"/>
      <point x="515" y="735" type="line"/>
    </contour>
  </outline>
</glyph>
